<?xml version="1.0" encoding="UTF-8" standalone="no"?>
<!-- Created with Inkscape (http://www.inkscape.org/) -->
<svg
   xmlns:dc="http://purl.org/dc/elements/1.1/"
   xmlns:cc="http://creativecommons.org/ns#"
   xmlns:rdf="http://www.w3.org/1999/02/22-rdf-syntax-ns#"
   xmlns:svg="http://www.w3.org/2000/svg"
   xmlns="http://www.w3.org/2000/svg"
   xmlns:xlink="http://www.w3.org/1999/xlink"
   xmlns:sodipodi="http://sodipodi.sourceforge.net/DTD/sodipodi-0.dtd"
   xmlns:inkscape="http://www.inkscape.org/namespaces/inkscape"
   width="300"
   height="200"
   id="svg2"
   sodipodi:version="0.32"
   inkscape:version="0.46"
   version="1.0"
   sodipodi:docname="message.svg"
   inkscape:output_extension="org.inkscape.output.svg.inkscape">
  <defs
     id="defs4">
    <linearGradient
       id="linearGradient3912">
      <stop
         style="stop-color:#6a80ae;stop-opacity:1;"
         offset="0"
         id="stop3914" />
      <stop
         style="stop-color:#6a80ae;stop-opacity:0;"
         offset="1"
         id="stop3916" />
    </linearGradient>
    <radialGradient
       gradientUnits="userSpaceOnUse"
       r="73.9327"
       cy="76.9468"
       cx="129.9072"
       id="SVGID_1_">
      <stop
         id="stop2986"
         style="stop-color:#FFFFFF"
         offset="0" />
      <stop
         id="stop2988"
         style="stop-color:#FFFFFF"
         offset="0.0664" />
      <stop
         id="stop2990"
         style="stop-color:#C3C8DE"
         offset="0.7773" />
      <stop
         id="stop2992"
         style="stop-color:#C3C8DE"
         offset="1" />
    </radialGradient>
    <inkscape:perspective
       sodipodi:type="inkscape:persp3d"
       inkscape:vp_x="0 : 526.18109 : 1"
       inkscape:vp_y="0 : 1000 : 0"
       inkscape:vp_z="744.09448 : 526.18109 : 1"
       inkscape:persp3d-origin="372.04724 : 350.78739 : 1"
       id="perspective10" />
    <linearGradient
       inkscape:collect="always"
       xlink:href="#radialGradient3101"
       id="linearGradient3918"
       x1="135.71428"
       y1="-0.30000001"
       x2="135.85748"
       y2="149.22942"
       gradientUnits="userSpaceOnUse"
       gradientTransform="matrix(1.332303,0,0,1.4964562,-49.845442,-99.421145)" />
  </defs>
  <sodipodi:namedview
     id="base"
     pagecolor="#ffffff"
     bordercolor="#666666"
     borderopacity="1.0"
     inkscape:pageopacity="0.0"
     inkscape:pageshadow="2"
     inkscape:zoom="2"
     inkscape:cx="124.80227"
     inkscape:cy="87.654086"
     inkscape:document-units="px"
     inkscape:current-layer="layer1"
     showgrid="false"
     inkscape:window-width="1600"
     inkscape:window-height="1140"
     inkscape:window-x="-5"
     inkscape:window-y="-3"
     showguides="true"
     inkscape:guide-bbox="true" />
  <metadata
     id="metadata7">
    <rdf:RDF>
      <cc:Work
         rdf:about="">
        <dc:format>image/svg+xml</dc:format>
        <dc:type
           rdf:resource="http://purl.org/dc/dcmitype/StillImage" />
      </cc:Work>
    </rdf:RDF>
  </metadata>
  <g
     inkscape:label="Ebene 1"
     inkscape:groupmode="layer"
     id="layer1">
    <rect
       style="fill:#3a6e9c;fill-opacity:1;stroke:none;stroke-width:1.13526201;stroke-miterlimit:4;stroke-dasharray:none;stroke-opacity:1"
       id="rect3920"
       width="1024"
       height="768"
       x="-360.16696"
       y="-292.77191" />
    <rect
       style="fill:url(#linearGradient3918);fill-opacity:1;stroke:#2e3a55;stroke-width:0.70858735;stroke-miterlimit:4;stroke-dasharray:none;stroke-opacity:1"
       id="rect3132"
       width="399.29141"
       height="299.29141"
       x="-49.645706"
       y="-99.645721" />
    <path
       style="fill:#ebeff9;fill-opacity:1;stroke:#85a1d9;stroke-width:0.70967722;stroke-miterlimit:4;stroke-opacity:1"
       d="M -39.395154,-53.593957 L 339.39516,-53.593957 L 339.39516,169.35424 L -39.395154,169.35424 L -39.395154,-53.593957 z"
       id="rect3922"
       sodipodi:nodetypes="ccccc" />
    <g
       transform="matrix(0.2513283,0,0,0.2513283,-47.315704,-96.963032)"
       id="g3055">
      <g
         id="g2973">
        <g
           id="g2975">
          <path
             id="path2977"
             d="M 181.302,94.366 C 178.493,94.626 177.768,94.554 177.282,94.204 C 176.814,93.886 176.292,93.308 176.288,92.85 C 177.897,91.056 179.723,90.301 183.5,89.778 C 186.696,89.336 193.027,88.927 197.974,91.895 C 198.245,92.85 198.468,94.519 198.479,96.215 C 198.518,103.111 196.155,110.121 194.791,113.086 C 194.479,113.264 194.378,113.326 194.09,113.593 C 193.808,113.849 193.652,114.059 193.36,114.249 C 191.929,115.194 188.238,115.934 185.34,115.912 C 181.493,115.878 180.565,115.418 177.592,114.672 C 176.555,114.41 175.19,113.68 174.952,113.922 C 171.127,112.469 169.945,104.01 169.856,101.626 C 169.705,97.786 170.766,91.782 173.262,89.971 C 174.338,89.19 176.506,89.023 176.513,89.266 C 176.534,89.807 174.914,94.105 174.597,95.316 C 173.194,100.69 174.617,106.97 174.677,108.539 C 176.821,109.26 181.941,111.059 186.853,110.469 C 188.766,110.237 191.439,109.464 191.67,109.347 C 191.67,109.347 192.287,105.454 192.757,102.163 C 193.128,99.56 193.82,95.143 193.82,95.143 C 193.82,95.143 186.934,93.847 181.302,94.366 z"
             style="fill:#a20f32" />
        </g>
        <g
           id="g2979">
          <path
             id="path2981"
             d="M 167.408,119.886 C 167.102,119.873 165.175,120.993 165.122,121.999 C 165.226,124.084 177.042,129.632 185.707,129.234 C 197.688,128.687 194.927,126.231 199.523,123.701 C 199.523,123.188 199.967,122.323 199.588,122.032 C 199.367,121.866 198.692,121.871 198.478,121.9 C 198.478,121.9 190.326,123.272 181.987,122.642 C 174.79,122.095 168.946,119.971 167.408,119.886 z"
             style="fill:#a20f32" />
        </g>
        <path
           id="path2983"
           d="M 200.537,129.916 C 199.119,129.997 198.441,129.244 197.823,128.795 C 197.949,127.571 200.741,125.201 202.02,125.22 C 202.539,125.223 203.892,125.178 204.178,125.665 C 203.388,127.357 202.58,129.797 200.537,129.916 z"
           style="fill:#a20f32" />
        <radialGradient
           gradientUnits="userSpaceOnUse"
           r="73.932701"
           cy="76.9468"
           cx="129.9072"
           id="radialGradient3101">
          <stop
             id="stop3103"
             style="stop-color:#ccddff;stop-opacity:1;"
             offset="0" />
          <stop
             id="stop3109"
             style="stop-color:#84a0d9;stop-opacity:1;"
             offset="1" />
        </radialGradient>
        <path
           id="path2994"
           d="M 104.04,64.577 C 81.5,64.577 63.228,82.849 63.228,105.39 C 63.228,127.931 81.5,146.206 104.04,146.206 C 126.583,146.206 144.854,127.931 144.854,105.39 C 144.854,82.849 126.583,64.577 104.04,64.577 z"
           clip-rule="evenodd"
           style="fill:url(#SVGID_1_);fill-rule:evenodd" />
      </g>
      <g
         id="g2996">
        <g
           id="g2998">
          <path
             id="path3000"
             d="M 21.417,94.366 C 18.608,94.626 17.884,94.554 17.397,94.204 C 16.929,93.886 16.406,93.308 16.401,92.85 C 18.009,91.056 19.837,90.301 23.613,89.778 C 26.812,89.336 33.142,88.927 38.089,91.895 C 38.359,92.85 38.585,94.519 38.593,96.215 C 38.633,103.111 36.271,110.121 34.905,113.086 C 34.592,113.264 34.489,113.326 34.203,113.593 C 33.922,113.849 33.764,114.059 33.474,114.249 C 32.042,115.194 28.353,115.934 25.453,115.912 C 21.607,115.878 20.68,115.418 17.707,114.672 C 16.668,114.41 15.303,113.68 15.063,113.922 C 11.241,112.469 10.06,104.01 9.967,101.626 C 9.816,97.786 10.879,91.782 13.377,89.971 C 14.451,89.19 16.617,89.023 16.626,89.266 C 16.645,89.807 15.028,94.105 14.709,95.316 C 13.306,100.69 14.73,106.97 14.79,108.539 C 16.934,109.26 22.055,111.059 26.965,110.469 C 28.879,110.237 31.554,109.464 31.783,109.347 C 31.783,109.347 32.399,105.454 32.868,102.163 C 33.239,99.56 33.931,95.143 33.931,95.143 C 33.931,95.143 27.047,93.847 21.417,94.366 z"
             style="fill:#a20f32" />
        </g>
        <g
           id="g3002">
          <path
             id="path3004"
             d="M 7.523,119.886 C 7.215,119.873 5.288,120.993 5.235,121.999 C 5.34,124.084 17.156,129.632 25.82,129.234 C 37.802,128.687 35.041,126.231 39.638,123.701 C 39.638,123.188 40.084,122.323 39.704,122.032 C 39.481,121.866 38.804,121.871 38.592,121.9 C 38.592,121.9 30.441,123.272 22.1,122.642 C 14.903,122.095 9.064,119.971 7.523,119.886 z"
             style="fill:#a20f32" />
        </g>
        <path
           id="path3006"
           d="M 40.652,129.916 C 39.232,129.997 38.557,129.244 37.94,128.795 C 38.064,127.571 40.854,125.201 42.135,125.22 C 42.654,125.223 44.007,125.178 44.293,125.665 C 43.504,127.357 42.696,129.797 40.652,129.916 z"
           style="fill:#a20f32" />
      </g>
      <g
         id="g3008">
        <g
           id="g3010">
          <path
             id="path3012"
             d="M 102.068,5.203 C 99.258,5.465 98.534,5.395 98.047,5.044 C 97.581,4.726 97.058,4.143 97.053,3.686 C 98.661,1.895 100.489,1.14 104.265,0.618 C 107.462,0.178 113.794,-0.235 118.741,2.736 C 119.009,3.691 119.235,5.358 119.244,7.053 C 119.281,13.945 116.923,20.96 115.557,23.923 C 115.244,24.102 115.141,24.167 114.852,24.43 C 114.573,24.688 114.414,24.898 114.123,25.086 C 112.691,26.031 109.003,26.773 106.101,26.749 C 102.258,26.717 101.33,26.255 98.359,25.509 C 97.321,25.247 95.956,24.518 95.715,24.758 C 91.893,23.307 90.711,14.849 90.619,12.463 C 90.47,8.622 91.532,2.619 94.03,0.807 C 95.102,0.028 97.267,-0.137 97.279,0.102 C 97.297,0.646 95.681,4.939 95.361,6.155 C 93.959,11.527 95.381,17.805 95.443,19.372 C 97.588,20.095 102.707,21.893 107.617,21.304 C 109.533,21.072 112.207,20.299 112.437,20.186 C 112.437,20.186 113.052,16.289 113.522,12.999 C 113.892,10.395 114.585,5.978 114.585,5.978 C 114.585,5.978 107.699,4.684 102.068,5.203 z"
             style="fill:#a20f32" />
        </g>
        <g
           id="g3014">
          <path
             id="path3016"
             d="M 88.173,30.723 C 87.867,30.708 85.94,31.827 85.887,32.837 C 85.992,34.923 97.809,40.468 106.47,40.072 C 118.454,39.523 115.691,37.068 120.29,34.539 C 120.29,34.026 120.736,33.162 120.356,32.872 C 120.132,32.705 119.455,32.711 119.244,32.737 C 119.244,32.737 111.092,34.111 102.752,33.479 C 95.553,32.93 89.715,30.807 88.173,30.723 z"
             style="fill:#a20f32" />
        </g>
        <path
           id="path3018"
           d="M 121.305,40.754 C 119.883,40.835 119.209,40.079 118.592,39.632 C 118.715,38.404 121.506,36.037 122.785,36.057 C 123.305,36.063 124.659,36.015 124.944,36.504 C 124.155,38.194 123.347,40.636 121.305,40.754 z"
           style="fill:#a20f32" />
      </g>
      <g
         id="g3020">
        <g
           id="g3022">
          <path
             id="path3024"
             d="M 98.666,83.599 C 94.245,84.01 93.105,83.905 92.339,83.346 C 91.603,82.846 90.78,81.934 90.772,81.213 C 93.303,78.393 96.18,77.203 102.124,76.382 C 107.159,75.687 117.122,75.041 124.91,79.713 C 125.331,81.217 125.685,83.844 125.699,86.511 C 125.761,97.362 122.048,108.398 119.897,113.068 C 119.405,113.347 119.242,113.442 118.789,113.86 C 118.351,114.269 118.101,114.596 117.643,114.897 C 115.388,116.382 109.586,117.551 105.017,117.514 C 98.966,117.462 97.505,116.735 92.829,115.556 C 91.197,115.147 89.049,114 88.671,114.381 C 82.653,112.09 80.795,98.778 80.649,95.025 C 80.414,88.982 82.084,79.534 86.017,76.682 C 87.704,75.452 91.115,75.194 91.129,75.571 C 91.158,76.427 88.614,83.189 88.114,85.098 C 85.903,93.552 88.143,103.441 88.239,105.902 C 91.615,107.036 99.674,109.87 107.404,108.942 C 110.414,108.582 114.624,107.364 114.987,107.185 C 114.987,107.185 115.954,101.058 116.696,95.869 C 117.276,91.776 118.369,84.823 118.369,84.823 C 118.369,84.823 107.53,82.782 98.666,83.599 z"
             style="fill:#6a80ae" />
        </g>
        <g
           id="g3026">
          <path
             id="path3028"
             d="M 78.621,124.116 C 78.113,124.113 74.976,126.008 74.955,127.599 C 75.267,130.87 95.328,139.069 109.688,137.54 C 128.629,135.52 124.842,132.172 132.322,127.873 C 132.288,127.066 132.974,125.675 132.324,125.248 C 131.942,124.996 130.814,125.064 130.463,125.11 C 130.463,125.11 116.989,127.844 103.066,127.433 C 91.051,127.071 81.194,124.141 78.621,124.116 z"
             style="fill:#6a80ae" />
        </g>
      </g>
      <g
         id="g3042">
        <g
           id="g3044">
          <path
             id="path3046"
             d="M 164.188,106.325 C 164.188,106.325 158.619,102.565 154.563,101.058 C 153.177,100.542 151.867,100.178 150.701,99.917 C 148.164,78.598 131.5,61.619 110.328,58.608 C 109.997,57.466 109.59,56.191 109.088,54.842 C 107.58,50.786 104.428,45.216 104.428,45.216 C 104.428,45.216 103.535,46.24 102.431,48.064 C 101.733,49.212 98.966,54.417 97.51,58.525 C 75.719,61.315 58.548,78.872 56.371,100.848 C 55.452,101.128 54.466,101.454 53.437,101.837 C 49.381,103.347 43.811,106.519 43.811,106.519 C 43.811,106.519 44.835,107.412 46.658,108.517 C 47.773,109.194 52.721,111.827 56.771,113.311 C 60.463,135.844 80.015,153.039 103.591,153.039 C 127.132,153.039 146.659,135.896 150.394,113.413 C 154.567,112.013 160.148,109.048 161.34,108.323 C 163.163,107.219 164.188,106.325 164.188,106.325 z M 104.04,146.207 C 81.5,146.207 63.228,127.932 63.228,105.391 C 63.228,82.85 81.5,64.577 104.04,64.577 C 126.583,64.577 144.854,82.849 144.854,105.39 C 144.854,127.931 126.583,146.207 104.04,146.207 z"
             style="fill:#6a80ae" />
        </g>
      </g>
    </g>
    <rect
       style="fill:#d1d1d2;fill-opacity:1;stroke:#959595;stroke-width:0.74360245;stroke-miterlimit:4;stroke-dasharray:none;stroke-opacity:1"
       id="rect4043"
       width="119.2564"
       height="14.256397"
       x="90.371796"
       y="177.71867" />
  </g>
</svg>
