<?xml version="1.0" encoding="UTF-8" standalone="no"?>
<svg
   xmlns:dc="http://purl.org/dc/elements/1.1/"
   xmlns:cc="http://creativecommons.org/ns#"
   xmlns:rdf="http://www.w3.org/1999/02/22-rdf-syntax-ns#"
   xmlns:svg="http://www.w3.org/2000/svg"
   xmlns="http://www.w3.org/2000/svg"
   xmlns:sodipodi="http://sodipodi.sourceforge.net/DTD/sodipodi-0.dtd"
   xmlns:inkscape="http://www.inkscape.org/namespaces/inkscape"
   width="300"
   height="200"
   id="svg2"
   sodipodi:version="0.32"
   inkscape:version="1.0.1 (0767f8302a, 2020-10-17)"
   version="1.0"
   sodipodi:docname="notifier-popup.svg"
   inkscape:output_extension="org.inkscape.output.svg.inkscape">
  <defs
     id="defs4">
    <linearGradient
       id="linearGradient3912">
      <stop
         style="stop-color:#6a80ae;stop-opacity:1;"
         offset="0"
         id="stop3914" />
      <stop
         style="stop-color:#6a80ae;stop-opacity:0;"
         offset="1"
         id="stop3916" />
    </linearGradient>
    <radialGradient
       gradientUnits="userSpaceOnUse"
       r="73.9327"
       cy="76.9468"
       cx="129.9072"
       id="SVGID_1_">
      <stop
         id="stop2986"
         style="stop-color:#FFFFFF"
         offset="0" />
      <stop
         id="stop2988"
         style="stop-color:#FFFFFF"
         offset="0.0664" />
      <stop
         id="stop2990"
         style="stop-color:#C3C8DE"
         offset="0.7773" />
      <stop
         id="stop2992"
         style="stop-color:#C3C8DE"
         offset="1" />
    </radialGradient>
    <inkscape:perspective
       sodipodi:type="inkscape:persp3d"
       inkscape:vp_x="0 : 526.18109 : 1"
       inkscape:vp_y="0 : 1000 : 0"
       inkscape:vp_z="744.09448 : 526.18109 : 1"
       inkscape:persp3d-origin="372.04724 : 350.78739 : 1"
       id="perspective10" />
    <radialGradient
       fx="0"
       fy="0"
       cx="0"
       cy="0"
       r="1"
       gradientUnits="userSpaceOnUse"
       gradientTransform="matrix(522.074,0,0,-522.074,880.356,537.325)"
       spreadMethod="pad"
       id="radialGradient933">
      <stop
         style="stop-opacity:1;stop-color:#ffffff"
         offset="0"
         id="stop925" />
      <stop
         style="stop-opacity:1;stop-color:#ffffff"
         offset="0.0664063"
         id="stop927" />
      <stop
         style="stop-opacity:1;stop-color:#a6b8da"
         offset="0.777344"
         id="stop929" />
      <stop
         style="stop-opacity:1;stop-color:#a6b8da"
         offset="1"
         id="stop931" />
    </radialGradient>
  </defs>
  <sodipodi:namedview
     id="base"
     pagecolor="#ffffff"
     bordercolor="#666666"
     borderopacity="1.0"
     inkscape:pageopacity="0.0"
     inkscape:pageshadow="2"
     inkscape:zoom="0.89809149"
     inkscape:cx="203.06307"
     inkscape:cy="69.892536"
     inkscape:document-units="px"
     inkscape:current-layer="layer1"
     showgrid="false"
     inkscape:window-width="1920"
     inkscape:window-height="1001"
     inkscape:window-x="0"
     inkscape:window-y="0"
     showguides="true"
     inkscape:guide-bbox="true"
     inkscape:document-rotation="0"
     inkscape:window-maximized="1" />
  <metadata
     id="metadata7">
    <rdf:RDF>
      <cc:Work
         rdf:about="">
        <dc:format>image/svg+xml</dc:format>
        <dc:type
           rdf:resource="http://purl.org/dc/dcmitype/StillImage" />
      </cc:Work>
    </rdf:RDF>
  </metadata>
  <g
     inkscape:label="Ebene 1"
     inkscape:groupmode="layer"
     id="layer1">
    <rect
       style="fill:#3a6e9c;fill-opacity:1;stroke:none;stroke-width:1.13526201;stroke-miterlimit:4;stroke-dasharray:none;stroke-opacity:1"
       id="rect3920"
       width="1024"
       height="768"
       x="-360.16696"
       y="-292.77191" />
    <rect
       style="fill:#e3e3e3;fill-opacity:1;stroke:#555555;stroke-width:1.00061;stroke-miterlimit:4;stroke-dasharray:none;stroke-opacity:1"
       id="rect3132"
       width="798.99939"
       height="598.99939"
       x="-233.71317"
       y="-215.40475"
       inkscape:export-xdpi="96"
       inkscape:export-ydpi="96" />
    <path
       style="fill:#fcffff;fill-opacity:1;stroke:#9fa8af;stroke-width:1;stroke-miterlimit:4;stroke-opacity:1;stroke-dasharray:none"
       d="M -222.78229,-169.29082 H 553.93818 V 344.83649 H -222.78229 Z"
       id="rect3922"
       sodipodi:nodetypes="ccccc" />
    <rect
       style="fill:#d1d1d2;fill-opacity:1;stroke:#959595;stroke-width:0.743602;stroke-miterlimit:4;stroke-dasharray:none;stroke-opacity:1"
       id="rect4043"
       width="119.2564"
       height="14.256397"
       x="105.94974"
       y="356.29422" />
    <g
       id="g1635"
       transform="matrix(0.03364105,0,0,-0.03364105,-223.00261,-173.85169)">
      <path
         d="m 1389.58,196.441 c -9.04,0.137 -28.75,-16.613 -29.64,-25.246 4.36,-3.172 9.15,-8.484 19.17,-7.91 14.42,0.844 20.12,18.067 25.71,30.012 -2.02,3.445 -11.58,3.125 -15.24,3.144 z m -17.17,22.508 c -1.56,1.172 -6.33,1.145 -7.84,0.942 0,0 -57.57,-9.692 -116.45,-5.246 -50.83,3.859 -92.09,18.867 -102.95,19.46 -2.16,0.098 -15.77,-7.808 -16.14,-14.921 0.72,-14.715 84.17,-53.895 145.35,-51.082 84.61,3.867 65.11,21.211 97.57,39.074 0,3.621 3.13,9.734 0.46,11.773 z m -173.98,57.285 c 1.68,1.711 11.32,-3.457 18.65,-5.3 20.98,-5.274 27.54,-8.516 54.7,-8.758 20.46,-0.16 46.53,5.066 56.63,11.746 2.06,1.34 3.17,2.812 5.16,4.629 2.04,1.883 2.75,2.324 4.95,3.574 9.64,20.938 26.33,70.438 26.05,119.141 -0.07,11.961 -1.65,23.757 -3.57,30.507 -34.92,20.95 -79.63,18.067 -102.21,14.942 -26.67,-3.692 -39.56,-9.024 -50.91,-21.692 0.02,-3.23 3.71,-7.312 7.01,-9.57 3.43,-2.469 8.55,-2.976 28.39,-1.14 39.76,3.66 88.39,-5.469 88.39,-5.469 0,0 -4.89,-31.192 -7.5,-49.571 -3.33,-23.242 -7.68,-50.73 -7.68,-50.73 -1.63,-0.82 -20.51,-6.281 -34.01,-7.922 -34.69,-4.16 -70.85,8.535 -85.98,13.621 -0.43,11.086 -10.48,55.434 -0.57,93.379 2.24,8.547 13.67,38.899 13.53,42.719 -0.05,1.715 -15.35,0.535 -22.96,-4.985 -17.63,-12.792 -25.12,-55.183 -24.05,-82.292 0.63,-16.836 8.97,-76.575 35.98,-86.829"
         style="fill:#c7165b;fill-opacity:1;fill-rule:nonzero;stroke:none"
         id="path923-3" />
      <path
         d="m 697.695,624.676 c -159.16,0 -288.187,-129.035 -288.187,-288.203 0,-159.172 129.027,-288.223 288.187,-288.223 159.196,0 288.2,129.051 288.2,288.223 0,159.168 -129.004,288.203 -288.2,288.203"
         style="fill:url(#radialGradient933);fill-opacity:1;fill-rule:evenodd;stroke:none"
         id="path935-6" />
      <path
         d="m 114.258,414.313 c -19.8283,-1.836 -24.9416,-1.329 -28.383,1.14 -3.3008,2.258 -6.9922,6.34 -7.0273,9.57 11.3593,12.668 24.2653,18 50.9253,21.692 22.594,3.125 67.293,6.008 102.219,-14.942 1.903,-6.75 3.496,-18.546 3.559,-30.507 0.285,-48.703 -16.391,-98.203 -26.043,-119.141 -2.207,-1.25 -2.93,-1.691 -4.953,-3.574 -1.989,-1.817 -3.106,-3.289 -5.153,-4.629 -10.109,-6.68 -36.16,-11.906 -56.632,-11.746 -27.161,0.242 -33.711,3.484 -54.7036,8.758 -7.3281,1.843 -16.9687,7.011 -18.6562,5.3 -26.9922,10.254 -35.336,69.993 -35.9844,86.829 -1.0664,27.109 6.4414,69.5 24.0781,82.292 7.5899,5.52 22.8789,6.7 22.9375,4.985 0.1289,-3.82 -11.2812,-34.172 -13.5273,-42.719 -9.9102,-37.945 0.1367,-82.293 0.5625,-93.379 15.1445,-5.086 51.3084,-17.781 85.9804,-13.621 13.516,1.641 32.402,7.102 34.023,7.922 0,0 4.344,27.488 7.661,50.73 2.613,18.379 7.511,49.571 7.511,49.571 0,0 -48.632,9.129 -88.394,5.469"
         style="fill:#c7165b;fill-opacity:1;fill-rule:nonzero;stroke:none"
         id="path937-7" />
      <path
         d="M 16.1563,234.105 C 13.9844,234.203 0.375,226.297 0,219.184 c 0.738281,-14.715 84.1797,-53.895 145.359,-51.082 84.614,3.867 65.11,21.211 97.575,39.074 0,3.621 3.144,9.734 0.468,11.773 -1.57,1.172 -6.355,1.145 -7.851,0.942 0,0 -57.559,-9.692 -116.457,-5.246 -50.8206,3.859 -92.0549,18.867 -102.9377,19.46"
         style="fill:#c7165b;fill-opacity:1;fill-rule:nonzero;stroke:none"
         id="path939-5" />
      <path
         d="m 250.094,163.285 c -10.028,-0.574 -14.797,4.738 -19.156,7.91 0.882,8.633 20.578,25.383 29.625,25.246 3.671,-0.019 13.222,0.301 15.238,-3.144 -5.571,-11.945 -11.281,-29.168 -25.707,-30.012"
         style="fill:#c7165b;fill-opacity:1;fill-rule:nonzero;stroke:none"
         id="path941-3" />
      <path
         d="m 683.777,1043.93 c -19.847,-1.84 -24.953,-1.35 -28.394,1.12 -3.293,2.25 -6.981,6.37 -7.024,9.59 11.36,12.65 24.262,17.98 50.934,21.67 22.566,3.11 67.285,6.02 102.215,-14.96 1.894,-6.74 3.488,-18.51 3.555,-30.47 0.265,-48.677 -16.387,-98.22 -26.036,-119.138 -2.207,-1.258 -2.929,-1.719 -4.98,-3.582 -1.973,-1.816 -3.086,-3.301 -5.137,-4.629 -10.117,-6.672 -36.152,-11.914 -56.66,-11.738 -27.133,0.223 -33.687,3.484 -54.66,8.762 -7.324,1.843 -16.977,6.992 -18.68,5.308 -26.98,10.235 -35.332,69.961 -35.98,86.817 -1.051,27.11 6.441,69.49 24.086,82.3 7.562,5.49 22.863,6.66 22.945,4.98 0.121,-3.84 -11.285,-34.16 -13.543,-42.75 -9.902,-37.937 0.137,-82.265 0.578,-93.327 15.145,-5.11 51.289,-17.813 85.957,-13.653 13.535,1.641 32.422,7.098 34.043,7.903 0,0 4.336,27.515 7.656,50.738 2.618,18.389 7.512,49.579 7.512,49.579 0,0 -48.625,9.15 -88.387,5.48"
         style="fill:#c7165b;fill-opacity:1;fill-rule:nonzero;stroke:none"
         id="path943-5" />
      <path
         d="m 585.652,863.727 c -2.156,0.109 -15.769,-7.793 -16.14,-14.922 0.746,-14.739 84.183,-53.887 145.347,-51.094 84.629,3.879 65.106,21.211 97.586,39.07 0,3.625 3.157,9.731 0.469,11.778 -1.57,1.183 -6.355,1.132 -7.851,0.949 0,0 -57.567,-9.699 -116.458,-5.235 -50.835,3.868 -92.062,18.86 -102.953,19.454"
         style="fill:#c7165b;fill-opacity:1;fill-rule:nonzero;stroke:none"
         id="path945-6" />
      <path
         d="m 819.613,792.895 c -10.047,-0.586 -14.793,4.765 -19.16,7.91 0.871,8.672 20.578,25.39 29.621,25.246 3.66,-0.039 13.223,0.301 15.235,-3.145 -5.567,-11.941 -11.27,-29.187 -25.696,-30.011"
         style="fill:#c7165b;fill-opacity:1;fill-rule:nonzero;stroke:none"
         id="path947-2" />
      <path
         d="m 659.75,490.348 c -31.227,-2.903 -39.262,-2.16 -44.676,1.789 -5.191,3.535 -11.011,9.968 -11.07,15.066 17.875,19.91 38.191,28.313 80.16,34.11 35.547,4.914 105.91,9.472 160.899,-23.512 2.98,-10.625 5.48,-29.172 5.578,-48.008 0.429,-76.621 -25.782,-154.555 -40.977,-187.531 -3.476,-1.973 -4.621,-2.625 -7.824,-5.586 -3.094,-2.891 -4.852,-5.196 -8.094,-7.317 -15.93,-10.496 -56.894,-18.75 -89.152,-18.484 -42.735,0.359 -53.047,5.508 -86.063,13.828 -11.535,2.891 -26.695,10.985 -29.367,8.289 -42.5,16.184 -55.617,110.188 -56.648,136.692 -1.661,42.664 10.129,109.382 37.91,129.519 11.91,8.692 35.996,10.512 36.09,7.852 0.207,-6.043 -17.754,-53.797 -21.286,-67.274 -15.617,-59.695 0.204,-129.531 0.883,-146.914 23.836,-8 80.742,-28.019 135.328,-21.457 21.258,2.539 50.985,11.145 53.543,12.403 0,0 6.829,43.261 12.071,79.914 4.093,28.894 11.808,77.996 11.808,77.996 0,0 -76.515,14.394 -139.113,8.625"
         style="fill:#106aaf;fill-opacity:1;fill-rule:nonzero;stroke:none"
         id="path949-9" />
      <path
         d="m 518.207,204.234 c -3.59,0.032 -25.734,-13.347 -25.887,-24.589 2.2,-23.106 143.864,-80.9966 245.262,-70.196 133.75,14.258 107.004,37.899 159.836,68.262 -0.246,5.691 4.598,15.516 0.008,18.535 -2.696,1.777 -10.664,1.301 -13.145,0.977 0,0 -95.136,-19.305 -193.461,-16.407 -84.843,2.559 -154.441,23.25 -172.613,23.418"
         style="fill:#106aaf;fill-opacity:1;fill-rule:nonzero;stroke:none"
         id="path951-1" />
      <path
         d="m 697.695,48.25 c -159.16,0 -288.187,129.051 -288.187,288.223 0,159.168 129.027,288.203 288.187,288.203 159.196,0 288.2,-129.035 288.2,-288.203 0,-159.172 -129.004,-288.223 -288.2,-288.223 z m 424.735,281.617 c 0,0 -39.33,26.555 -67.97,37.188 -9.79,3.644 -19.04,6.211 -27.28,8.058 -17.92,150.547 -135.582,270.446 -285.086,291.7 -2.332,8.054 -5.215,17.066 -8.75,26.582 -10.645,28.64 -32.906,67.98 -32.906,67.98 0,0 -6.301,-7.238 -14.094,-20.109 C 681.41,733.16 661.879,696.41 651.602,667.398 497.719,647.699 376.461,523.727 361.09,368.543 c -6.488,-1.977 -13.449,-4.277 -20.719,-6.984 -28.641,-10.664 -67.973,-33.067 -67.973,-33.067 0,0 7.231,-6.308 20.106,-14.101 7.879,-4.778 42.812,-23.348 71.406,-33.836 C 389.977,121.422 528.047,0.0117188 694.535,0.0117188 c 166.25,0 304.153,121.0662812 330.495,279.8552812 29.48,9.887 68.86,30.766 77.3,35.899 12.86,7.793 20.1,14.101 20.1,14.101"
         style="fill:#106aaf;fill-opacity:1;fill-rule:nonzero;stroke:none"
         id="path953-2" />
    </g>
  </g>
</svg>
