<?xml version="1.0" encoding="UTF-8" standalone="no"?>
<!-- Created with Inkscape (http://www.inkscape.org/) -->

<svg
   width="100"
   height="100"
   viewBox="0 0 26.458333 26.458333"
   version="1.1"
   id="svg1"
   inkscape:version="1.3 (0e150ed6c4, 2023-07-21)"
   sodipodi:docname="opsi-notifier_login.svg"
   xmlns:inkscape="http://www.inkscape.org/namespaces/inkscape"
   xmlns:sodipodi="http://sodipodi.sourceforge.net/DTD/sodipodi-0.dtd"
   xmlns="http://www.w3.org/2000/svg"
   xmlns:svg="http://www.w3.org/2000/svg">
  <sodipodi:namedview
     id="namedview1"
     pagecolor="#ffffff"
     bordercolor="#000000"
     borderopacity="0.25"
     inkscape:showpageshadow="2"
     inkscape:pageopacity="0.0"
     inkscape:pagecheckerboard="0"
     inkscape:deskcolor="#d1d1d1"
     inkscape:document-units="mm"
     inkscape:zoom="8.6943334"
     inkscape:cx="14.434689"
     inkscape:cy="60.384158"
     inkscape:window-width="3440"
     inkscape:window-height="1369"
     inkscape:window-x="0"
     inkscape:window-y="0"
     inkscape:window-maximized="1"
     inkscape:current-layer="layer1" />
  <defs
     id="defs1" />
  <g
     inkscape:label="Ebene 1"
     inkscape:groupmode="layer"
     id="layer1">
    <g
       id="g1"
       transform="matrix(0.16668221,0,0,0.16668221,109.73243,-97.596251)">
      <path
         id="path2-6-9-1"
         d="m -647.7,625.20655 v 79.36722 l 68.73438,39.68433 68.7344,-39.68433 V 625.20655 L -578.96562,585.5229 -647.7,625.20655"
         style="fill:#cb165d;fill-opacity:1;fill-rule:nonzero;stroke:none;stroke-width:0.0559982" />
      <path
         id="path2-2-1-3-1"
         d="m -635.03762,632.5172 v 64.74602 l 56.072,32.37362 56.07201,-32.37361 V 632.5172 l -56.07201,-32.37304 -56.072,32.37304"
         style="fill:#ffffff;fill-opacity:1;fill-rule:nonzero;stroke:none;stroke-width:0.0456821" />
      <g
         id="g2-0-7-5"
         transform="matrix(0.9149883,0,0,0.9149883,-668.56585,235.16425)">
        <path
           d="m 108.74837,427.53461 c 0.0907,-6.1377 -5.06744,-11.15951 -11.148063,-11.15951 -6.189639,0 -11.154386,5.09423 -11.148056,11.15951 -0.196961,6.06687 4.737976,11.22099 11.148056,11.15951 6.534663,-0.0627 11.154393,-5.20584 11.148063,-11.15951 z m -27.291619,0 c -0.0044,-8.91899 7.224585,-16.1516 16.143576,-16.1516 8.918993,0 16.148013,7.23261 16.143573,16.1516 0.004,8.91899 -7.22458,16.1516 -16.143573,16.1516 -8.918991,0 -16.148016,-7.23261 -16.143576,-16.1516 z m -6.948232,43.4352 h 46.183571 c -0.79421,-10.04682 -9.04183,-16.77147 -17.32801,-16.77147 H 91.836569 c -8.286223,0 -16.467588,7.1818 -17.32805,16.77147 z m -5.159472,1.2497 c 0,-12.42299 10.064531,-22.4875 22.487522,-22.4875 h 11.527511 c 12.42297,0 22.48749,10.06451 22.48749,22.4875 0,2.0684 -1.67742,3.74581 -3.74583,3.74581 H 73.094868 c -2.068386,0 -3.745821,-1.67741 -3.745821,-3.74581 z"
           id="path1-2-6-4-9"
           style="stroke-width:0.126122"
           sodipodi:nodetypes="cscsccscscccsscsssssss" />
        <rect
           style="fill:#000000;fill-opacity:1;stroke-width:0.223029;stroke-miterlimit:0"
           id="rect2-8-0-3-3-5-7"
           width="95.235344"
           height="21.184635"
           x="50.307339"
           y="484.12961"
           rx="3.3812861"
           ry="2.8196566" />
        <rect
           style="fill:#ffffff;fill-opacity:1;stroke-width:0.223029;stroke-miterlimit:0"
           id="rect2-2-6-2-2-7"
           width="87.256668"
           height="12.420265"
           x="54.278656"
           y="488.51181"
           rx="2.1010585"
           ry="1.1984011" />
        <text
           xml:space="preserve"
           style="font-weight:bold;font-size:19.0318px;font-family:'Open Sans';-inkscape-font-specification:'Open Sans Bold';fill:#ffffff;fill-opacity:1;stroke-width:0.223029;stroke-miterlimit:0"
           x="55.720058"
           y="504.73038"
           id="text2-3-1-0-5-6"><tspan
             sodipodi:role="line"
             id="tspan2-7-2-6-4-7"
             style="fill:#000000;fill-opacity:1;stroke-width:0.223029"
             x="55.720058"
             y="504.73038">*****</tspan></text>
      </g>
      <rect
         style="fill:#cb165d;fill-opacity:1;stroke-width:0.320313;stroke-miterlimit:0"
         id="rect1-1-74-3"
         width="147.68262"
         height="12.780476"
         x="-906.04767"
         y="287.82513"
         transform="matrix(0.8709395,-0.49139026,0.49547383,0.86862286,0,0)" />
    </g>
  </g>
</svg>
