<?xml version="1.0" encoding="UTF-8"?><svg id="Ebene_1" xmlns="http://www.w3.org/2000/svg" xmlns:xlink="http://www.w3.org/1999/xlink" viewBox="0 0 240 160"><defs><style>.cls-1{clip-path:url(#clippath);}.cls-2{fill:none;}.cls-2,.cls-3,.cls-4,.cls-5,.cls-6{stroke-width:0px;}.cls-7{opacity:.05;}.cls-8{clip-path:url(#clippath-1);}.cls-3{fill:#3f3f3e;}.cls-4{fill:#cb1e58;}.cls-5{fill:#fff;}.cls-6{fill:#e4e4e3;}</style><clipPath id="clippath"><rect class="cls-2" x="-14.83" y="-328.76" width="319.59" height="176.36"/></clipPath><clipPath id="clippath-1"><rect class="cls-2" x="79.13" y="-.87" width="160" height="161.73" transform="translate(79.13 239.13) rotate(-90)"/></clipPath></defs><g class="cls-7"><g class="cls-1"><path class="cls-6" d="m382.6-270.5v-14.53l-11.29-6.52v-13.04l-12.59-7.27-11.29,6.52-11.29-6.52-11.29,6.52-11.29-6.52-11.29,6.52-11.29-6.52-11.29,6.52-11.29-6.52-11.29,6.52-11.29-6.52-11.29,6.52-11.29-6.52-11.29,6.52-11.29-6.52-11.29,6.52-11.29-6.52-11.29,6.52-11.29-6.52-11.29,6.52-11.29-6.52-11.29,6.52-11.29-6.52-11.29,6.52-11.29-6.52-11.29,6.52-11.29-6.52-11.29,6.52-11.29-6.52-11.29,6.52-11.29-6.52-11.29,6.52-11.29-6.52-11.29,6.52-11.29-6.52-11.29,6.52-11.29-6.52-11.29,6.52-11.29-6.52-12.59,7.27v13.04l-11.29,6.52v14.53l11.29,6.52v11.55l-11.29,6.52v14.53l11.29,6.52v11.55l-11.29,6.52v14.53l11.29,6.52v11.55l-11.29,6.52v14.53l11.29,6.52v11.55l-11.29,6.52v14.53l11.29,6.52v11.55l-11.29,6.52v14.53l11.29,6.52v11.55l-11.29,6.52v14.53l11.29,6.52v11.55l-11.29,6.52V3.33l11.29,6.52v11.55l-11.29,6.52v14.53l12.58,7.27,11.29-6.52,11.29,6.52,11.29-6.52,11.29,6.52,11.29-6.52,11.29,6.52,11.29-6.52,11.29,6.52,11.29-6.52,11.29,6.52,11.29-6.52,11.29,6.52,11.29-6.52,11.29,6.52,11.29-6.52,11.29,6.52,11.29-6.52,11.29,6.52,11.29-6.52,11.29,6.52,11.29-6.52,11.29,6.52,11.29-6.52,11.29,6.52,11.29-6.52,11.29,6.52,11.29-6.52,11.29,6.52,11.29-6.52,11.29,6.52,11.29-6.52,11.29,6.52,11.29-6.52,11.29,6.52,11.29-6.52,11.29,6.52,11.29-6.52,11.29,6.52,11.29-6.52,11.29,6.52,12.59-7.27v-14.53l-11.29-6.52v-11.55l11.29-6.52v-14.53l-11.29-6.52v-11.55l11.29-6.52v-14.53l-11.29-6.52v-11.55l11.29-6.52v-14.53l-11.29-6.52v-11.55l11.29-6.52v-14.53l-11.29-6.52v-11.55l11.29-6.52v-14.53l-11.29-6.52v-11.55l11.29-6.52v-14.53l-11.29-6.52v-11.55l11.29-6.52v-14.53l-11.29-6.52v-11.55l11.29-6.52Zm-13.88,45.64v11.54l-10,5.77-10-5.77v-11.54l3.95-2.28,6.05-3.49,6.23,3.6,3.76,2.17Zm0,39.12v11.54l-10,5.77-10-5.77v-11.54l5-2.89,5-2.89,5,2.89,5,2.89Zm0,39.12v11.54l-7.13,4.12-2.87,1.66-10-5.77v-11.54l4.34-2.51,5.65-3.26,5.72,3.3,4.28,2.47Zm0,39.12v11.55l-9.07,5.24-.93.54-10-5.77v-11.55l5-2.89,5-2.89,5,2.89,5,2.89Zm0,39.12v11.54l-8.31,4.8-1.69.98-10-5.77v-11.54l5-2.89,5-2.89,5,2.89,5,2.89Zm0,39.12v11.55l-9.07,5.24-.93.54-10-5.77v-11.55l5-2.89,5-2.89,5,2.89,5,2.89Zm0,39.12v11.54l-8.31,4.8-1.69.98-10-5.77v-11.54l4.21-2.43,5.79-3.34,5.71,3.29,4.29,2.48Zm-449.09,0l4.2-2.42,5.8-3.35,5.63,3.25,4.37,2.52v11.54l-10,5.77-10-5.77v-11.54Zm0-39.12l5-2.89,5-2.89,5,2.89,5,2.89v11.55l-10,5.77-10-5.77v-11.55Zm0-39.12l5-2.89,5-2.89,5,2.89,5,2.89v11.54l-10,5.77-10-5.77v-11.54Zm0-39.12l5-2.89,5-2.89,5,2.89,5,2.89v11.55l-10,5.77-10-5.77v-11.55Zm0-39.12l4.35-2.51,5.64-3.26,5.82,3.36,4.18,2.41v11.54l-10,5.77-10-5.77v-11.54Zm0-39.12l5-2.89,5-2.89,5,2.89,5,2.89v11.54l-10,5.77-10-5.77v-11.54Zm0-39.12l3.97-2.29,6.02-3.48,6.55,3.78,3.45,1.99v11.54l-10,5.77-10-5.77v-11.54Zm0-39.12l5-2.89,5-2.89,5,2.89,5,2.89v11.54l-10,5.77-10-5.77v-11.54Zm437.8,31.1l-3.95,2.28-6.05,3.49-6.23-3.6-3.76-2.17v-11.54l10-5.77,10,5.77v11.54Zm0,39.12l-5,2.89-5,2.89-5-2.89-5-2.89v-11.54l10-5.77,10,5.77v11.54Zm0,39.12l-5,2.89-5,2.89-5-2.89-5-2.89v-11.54l10-5.77,10,5.77v11.54Zm0,39.12l-5,2.89-5,2.89-5-2.89-5-2.89v-11.54l10-5.77,10,5.77v11.54Zm0,39.12l-5,2.89-5,2.89-5-2.89-5-2.89v-11.54l10-5.77,10,5.77v11.54Zm0,39.12l-5,2.89-5,2.89-5-2.89-5-2.89v-11.54l10-5.77,10,5.77v11.54Zm0,39.12l-5,2.89-5,2.89-5-2.89-5-2.89v-11.54l10-5.77,10,5.77V1.83ZM-69.07,1.83v-11.54l10-5.77,10,5.77V1.83l-4.4,2.54-5.6,3.23-5-2.89-5-2.89Zm0-39.12v-11.54l10-5.77,10,5.77v11.54l-4.64,2.68-5.36,3.09-5-2.89-5-2.89Zm0-39.12v-11.54l10-5.77,10,5.77v11.54l-4.54,2.62-5.46,3.15-5-2.89-5-2.89Zm0-39.12v-11.54l10-5.77,10,5.77v11.54l-4.56,2.63-5.44,3.14-5-2.89-5-2.89Zm0-39.12v-11.54l10-5.77,10,5.77v11.54l-5.31,3.07-4.69,2.71-5-2.89-5-2.89Zm0-39.12v-11.54l10-5.77,10,5.77v11.54l-5.63,3.25-4.36,2.52-5-2.89-5-2.89Zm0-39.12v-11.54l10-5.77,10,5.77v11.54l-4.6,2.66-5.4,3.11-6.55-3.78-3.45-1.99Zm0-39.12v-11.54l10-5.77,10,5.77v11.54l-5.45,3.15-4.54,2.62-5-2.89-5-2.89Zm415.21,8.01v11.54l-10,5.77-10-5.77v-11.54l5-2.89,5-2.89,5,2.89,5,2.89Zm0,39.12v11.54l-10,5.77-10-5.77v-11.54l3.76-2.17,6.23-3.6,6.23,3.6,3.76,2.17Zm0,39.12v11.54l-10,5.77-10-5.77v-11.54l5-2.89,5-2.89,5,2.89,5,2.89Zm0,39.12v11.54l-10,5.77-10-5.77v-11.54l4.28-2.47,5.72-3.3,5.72,3.3,4.28,2.47Zm0,39.12v11.55l-10,5.77-10-5.77v-11.55l5-2.89,5-2.89,5,2.89,5,2.89Zm0,39.12v11.54l-10,5.77-10-5.77v-11.54l5-2.89,5-2.89,5,2.89,5,2.89Zm0,39.12v11.55l-10,5.77-10-5.77v-11.55l5-2.89,5-2.89,5,2.89,5,2.89Zm0,39.12v11.54l-10,5.77-10-5.77v-11.54l4.29-2.48,5.71-3.29,5.71,3.29,4.29,2.48Zm-22.58,11.54l-10,5.77-10-5.77v-11.54l4.29-2.48,5.71-3.29,5.69,3.29,4.3,2.48v11.54Zm-90.34,0l-10,5.77-10-5.77v-11.54l4.29-2.48,5.71-3.29,5.71,3.29,4.29,2.48v11.54Zm-22.58,0l-10,5.77-10-5.77v-11.54l4.29-2.48,5.71-3.29,6.19,3.57,3.81,2.2v11.54Zm-67.75-11.54v11.54l-10,5.77-10-5.77v-11.54l4.63-2.68,5.36-3.1,3.65,2.1,6.35,3.67Zm-22.58,11.54l-10,5.77-10-5.77v-11.54l4.2-2.42,5.8-3.35,5.63,3.25,4.37,2.52v11.54Zm-22.58,0l-10,5.77-10-5.77v-11.54l4.2-2.42,5.8-3.35,6.06,3.5,3.94,2.27v11.54Zm-135.5,0l-10,5.77-10-5.77v-11.54l4.21-2.43,5.79-3.34,5.28,3.05,4.72,2.72v11.54Zm-20-50.66l5-2.89,5-2.89,4.63,2.67,5.36,3.1v11.55l-10,5.77-10-5.77v-11.55Zm0-39.12l5-2.89,5-2.89,4.7,2.71,5.3,3.06v11.54l-10,5.77-10-5.77v-11.54Zm0-39.12l5-2.89,5-2.89,4.55,2.63,5.45,3.14v11.55l-10,5.77-10-5.77v-11.55Zm0-39.12l4.34-2.51,5.65-3.26,6.2,3.58,3.8,2.19v11.54l-10,5.77-10-5.77v-11.54Zm0-39.12l5-2.89,5-2.89,5.62,3.24,4.38,2.53v11.54l-10,5.77-10-5.77v-11.54Zm0-39.12l3.95-2.28,6.05-3.49,7.14,4.12,2.85,1.65v11.54l-10,5.77-10-5.77v-11.54Zm0-39.12l5-2.89,5-2.89,6,3.46,4,2.31v11.54l-10,5.77-10-5.77v-11.54Zm392.63-8.01l-5,2.89-5,2.89-5-2.89-5-2.89v-11.54l10-5.77,10,5.77v11.54Zm0,39.12l-3.76,2.17-6.23,3.6-6.27-3.62-3.73-2.15v-11.54l10-5.77,10,5.77v11.54Zm0,39.12l-5,2.89-5,2.89-5-2.89-5-2.89v-11.54l10-5.77,10,5.77v11.54Zm0,39.12l-5,2.89-5,2.89-5-2.89-5-2.89v-11.54l10-5.77,10,5.77v11.54Zm0,39.12l-5,2.89-5,2.89-5-2.89-5-2.89v-11.54l10-5.77,10,5.77v11.54Zm0,39.12l-5,2.89-5,2.89-5-2.89-5-2.89v-11.54l10-5.77,10,5.77v11.54Zm0,39.12l-5,2.89-5,2.89-5-2.89-5-2.89v-11.54l10-5.77,10,5.77v11.54Zm0,39.12l-5,2.89-5,2.89-5-2.89-5-2.89v-11.54l10-5.77,10,5.77V1.83Zm-32.58,5.77l-5-2.89-5-2.89v-11.54l10-5.77,10,5.77V1.83l-5,2.89-5,2.89Zm-22.58,0l-4.49-2.59-5.51-3.18v-11.54l10-5.77,10,5.77V1.83l-5,2.89-5,2.89Zm-22.58,0l-5-2.89-5-2.89v-11.54l10-5.77,10,5.77V1.83l-5,2.89-5,2.89Zm-45.17,0l-5-2.89-5-2.89v-11.54l10-5.77,10,5.77V1.83l-5.51,3.18-4.49,2.59Zm-22.58,0l-5-2.89-5-2.89v-11.54l10-5.77,10,5.77V1.83l-5,2.89-5,2.89Zm-22.58,0l-4.49-2.59-5.51-3.18v-11.54l10-5.77,10,5.77V1.83l-5,2.89-5,2.89Zm-45.17,0l-5-2.89-5-2.89v-11.54l10-5.77,10,5.77V1.83l-5,2.89-5,2.89Zm-22.58,0l-5-2.89-5-2.89v-11.54l10-5.77,10,5.77V1.83l-5.6,3.23-4.4,2.54Zm-22.58,0l-5-2.89-5-2.89v-11.54l10-5.77,10,5.77V1.83l-5,2.89-5,2.89Zm-22.58,0l-5-2.89-5-2.89v-11.54l10-5.77,10,5.77V1.83l-4.55,2.63-5.45,3.14Zm-22.58,0l-5-2.89-5-2.89v-11.54l10-5.77,10,5.77V1.83l-5,2.89-5,2.89Zm-22.58,0l-5-2.89L-1.32,1.83v-11.54l10-5.77,10,5.77V1.83l-5,2.89-5,2.89Zm-22.58,0l-5-2.89-5-2.89v-11.54l10-5.77L-3.91-9.71V1.83l-5.45,3.14-4.55,2.63Zm-22.58,0l-5-2.89-5-2.89v-11.54l10-5.77,10,5.77V1.83l-5,2.89-5,2.89Zm-10-44.89v-11.54l10-5.77,10,5.77v11.54l-5,2.89-5,2.89-5-2.89-5-2.89Zm0-39.12v-11.54l10-5.77,10,5.77v11.54l-5,2.89-5,2.89-5-2.89-5-2.89Zm0-39.12v-11.54l10-5.77,10,5.77v11.54l-5,2.89-5,2.89-5-2.89-5-2.89Zm0-39.12v-11.54l10-5.77,10,5.77v11.54l-5,2.89-5,2.89-5-2.89-5-2.89Zm0-39.12v-11.54l10-5.77,10,5.77v11.54l-5,2.89-5,2.89-5-2.89-5-2.89Zm0-39.12v-11.54l10-5.77,10,5.77v11.54l-3.98,2.29-6.02,3.48-6.55-3.78-3.45-1.99Zm21.29-36.88l4.36,2.52,5.63,3.25v11.54l-10,5.77-10-5.77v-11.54l5-2.89,5-2.89Zm22.58,0l5,2.89,5,2.89v11.54l-10,5.77-10-5.77v-11.54l5-2.89,5-2.89Zm22.58,0l5,2.89,5,2.89v11.54l-10,5.77-10-5.77v-11.54l5-2.89,5-2.89Zm22.58,0l5,2.89,5,2.89v11.54l-10,5.77-10-5.77v-11.54l5-2.89,5-2.89Zm22.58,0l5.63,3.25,4.36,2.52v11.54l-10,5.77-10-5.77v-11.54l5-2.89,5-2.89Zm22.58,0l4,2.31,6,3.46v11.54l-10,5.77-10-5.77v-11.54l5-2.89,5-2.89Zm22.58,0l5,2.89,5,2.89v11.54l-10,5.77-10-5.77v-11.54l5-2.89,5-2.89Zm45.17,0l5,2.89,5,2.89v11.54l-10,5.77-10-5.77v-11.54l5-2.89,5-2.89Zm22.58,0l5,2.89,5,2.89v11.54l-10,5.77-10-5.77v-11.54l5.78-3.34,4.22-2.44Zm22.58,0l4.22,2.44,5.78,3.34v11.54l-10,5.77-10-5.77v-11.54l5-2.89,5-2.89Zm22.58,0l5,2.89,5,2.89v11.54l-10,5.77-10-5.77v-11.54l5-2.89,5-2.89Zm14.77,4.51l7.81-4.51,5.78,3.34,4.22,2.44v11.54l-10,5.77-10-5.77v-11.54l2.18-1.26Zm30.4-4.51l5,2.89,5,2.89v11.54l-10,5.77-10-5.77v-11.54l5-2.89,5-2.89Zm22.58,0l5,2.89,5,2.89v11.54l-10,5.77-10-5.77v-11.54l5.78-3.34,4.22-2.44Zm22.58,0l5,2.89,5,2.89v11.54l-10,5.77-10-5.77v-11.54l5-2.89,5-2.89Zm10,44.89v11.54l-10,5.77-10-5.77v-11.54l3.76-2.17,6.23-3.6,6.27,3.62,3.73,2.15Zm0,39.12v11.54l-10,5.77-10-5.77v-11.54l5-2.89,5-2.89,5,2.89,5,2.89Zm0,39.12v11.54l-10,5.77-10-5.77v-11.54l4.28-2.47,5.72-3.3,5.73,3.31,4.26,2.46Zm0,39.12v11.55l-10,5.77-10-5.77v-11.55l5-2.89,5-2.89,5,2.89,5,2.89Zm0,39.12v11.54l-10,5.77-10-5.77v-11.54l5-2.89,5-2.89,5,2.89,5,2.89Zm0,39.12v11.55l-10,5.77-10-5.77v-11.55l5-2.89,5-2.89,5,2.89,5,2.89Zm-358.76,0l5-2.89,5-2.89,5.46,3.15,4.54,2.62v11.55l-10,5.77-10-5.77v-11.55Zm0-39.12l5-2.89,5-2.89,5.36,3.09,4.64,2.68v11.54l-10,5.77-10-5.77v-11.54Zm0-39.12l5-2.89,5-2.89,5.6,3.23,4.4,2.54v11.55l-10,5.77-10-5.77v-11.55Zm0-39.12l4.35-2.51,5.64-3.26,5.26,3.03,4.74,2.74v11.54l-10,5.77-10-5.77v-11.54Zm0-39.12l5-2.89,5-2.89,4.54,2.62,5.45,3.15v11.54l-10,5.77-10-5.77v-11.54Zm0-39.12l3.97-2.29,6.02-3.48,5.4,3.11,4.6,2.66v11.54l-10,5.77-10-5.77v-11.54Zm347.46-8.01l-3.76,2.17-6.23,3.6-6.23-3.6-3.76-2.17v-11.54l10-5.77,10,5.77v11.54Zm0,39.12l-5,2.89-5,2.89-5-2.89-5-2.89v-11.54l10-5.77,10,5.77v11.54Zm0,39.12l-5,2.89-5,2.89-5-2.89-5-2.89v-11.54l10-5.77,10,5.77v11.54Zm0,39.12l-5,2.89-5,2.89-5-2.89-5-2.89v-11.54l10-5.77,10,5.77v11.54Zm0,39.12l-5,2.89-5,2.89-5-2.89-5-2.89v-11.54l10-5.77,10,5.77v11.54Zm0,39.12l-5,2.89-5,2.89-5-2.89-5-2.89v-11.54l10-5.77,10,5.77v11.54Zm-336.17,0v-11.54l10-5.77,10,5.77v11.54l-5.3,3.06-4.7,2.71-5-2.89-5-2.89Zm0-39.12v-11.54l10-5.77,10,5.77v11.54l-5.36,3.1-4.63,2.67-5-2.89-5-2.89Zm0-39.12v-11.54l10-5.77,10,5.77v11.54l-5.35,3.09-4.65,2.68-5-2.89-5-2.89Zm0-39.12v-11.54l10-5.77,10,5.77v11.54l-4.62,2.67-5.38,3.11-5-2.89-5-2.89Zm0-39.12v-11.54l10-5.77,10,5.77v11.54l-4,2.31-6,3.46-5-2.89-5-2.89Zm0-39.12v-11.54l10-5.77,10,5.77v11.54l-2.85,1.65-7.14,4.12-6.05-3.49-3.95-2.28Zm324.88,8.01v11.54l-10,5.77-10-5.77v-11.54l4.53-2.62,5.47-3.16,6.23,3.6,3.76,2.17Zm0,39.12v11.54l-10,5.77-10-5.77v-11.54l5.52-3.19,4.48-2.58,5,2.89,5,2.89Zm0,39.12v11.54l-10,5.77-10-5.77v-11.54l4.71-2.72,5.29-3.05,5.72,3.3,4.28,2.47Zm0,39.12v11.55l-10,5.77-10-5.77v-11.55l4.49-2.59,5.51-3.18,5,2.89,5,2.89Zm0,39.12v11.54l-10,5.77-10-5.77v-11.54l4.67-2.7,5.33-3.07,5,2.89,5,2.89Zm0,39.12v11.55l-10,5.77-10-5.77v-11.55l4.59-2.65,5.41-3.12,5,2.89,5,2.89Zm-67.75,11.55l-10,5.77-10-5.77v-11.55l5-2.89,5-2.89,5,2.89,5,2.89v11.55Zm-22.58,0l-10,5.77-10-5.77v-11.55l5-2.89,5-2.89,5.41,3.12,4.59,2.65v11.55Zm-67.75-11.55v11.55l-10,5.77-10-5.77v-11.55l5.46-3.15,4.54-2.62,3.27,1.89,6.73,3.89Zm-22.58,11.55l-10,5.77-10-5.77v-11.55l5-2.89,5-2.89,5,2.89,5,2.89v11.55Zm-22.58,0l-10,5.77-10-5.77v-11.55l5-2.89,5-2.89,5.37,3.1,4.63,2.68v11.55ZM-12.61-29.27l5-2.89,5-2.89,5,2.89,5,2.89v11.55L-2.62-11.96l-10-5.77v-11.55Zm0-39.12l5-2.89,5-2.89,5,2.89,5,2.89v11.54l-10,5.77-10-5.77v-11.54Zm0-39.12l5-2.89,5-2.89,5,2.89,5,2.89v11.55l-10,5.77-10-5.77v-11.55Zm0-39.12l4.18-2.41,5.82-3.36,5.64,3.26,4.35,2.51v11.54l-10,5.77-10-5.77v-11.54Zm0-39.12l5-2.89,5-2.89,5,2.89,5,2.89v11.54l-10,5.77-10-5.77v-11.54Zm0-39.12l3.45-1.99,6.55-3.78,6.02,3.48,3.97,2.29v11.54l-10,5.77-10-5.77v-11.54Zm302.3-8.01l-3.73,2.15-6.27,3.62-6.75-3.9-3.25-1.88v-11.54l10-5.77,10,5.77v11.54Zm0,39.12l-5,2.89-5,2.89-5.78-3.34-4.22-2.44v-11.54l10-5.77,10,5.77v11.54Zm0,39.12l-5,2.89-5,2.89-5.34-3.08-4.65-2.69v-11.54l10-5.77,10,5.77v11.54Zm0,39.12l-5,2.89-5,2.89-4.61-2.66-5.39-3.11v-11.54l10-5.77,10,5.77v11.54Zm0,39.12l-5,2.89-5,2.89-4.59-2.65-5.41-3.12v-11.54l10-5.77,10,5.77v11.54Zm0,39.12l-5,2.89-5,2.89-4.67-2.7-5.33-3.07v-11.54l10-5.77,10,5.77v11.54Zm-32.58,5.77l-5-2.89-5-2.89v-11.54l10-5.77,10,5.77v11.54l-5,2.89-5,2.89Zm-45.17,0l-5-2.89-5-2.89v-11.54l10-5.77,10,5.77v11.54l-5.33,3.07-4.67,2.7Zm-22.58,0l-5-2.89-5-2.89v-11.54l10-5.77,10,5.77v11.54l-5,2.89-5,2.89Zm-22.58,0l-4.67-2.7-5.33-3.07v-11.54l10-5.77,10,5.77v11.54l-5,2.89-5,2.89Zm-22.58,0l-5.33-3.07-4.67-2.7v-11.54l10-5.77,10,5.77v11.54l-8.31,4.8-1.68.97Zm-22.58,0l-5-2.89-5-2.89v-11.54l10-5.77,10,5.77v11.54l-5,2.89-5,2.89Zm-22.58,0l-5-2.89-5-2.89v-11.54l10-5.77,10,5.77v11.54l-5.36,3.09-4.64,2.68Zm-22.58,0l-5-2.89-5-2.89v-11.54l10-5.77,10,5.77v11.54l-5,2.89-5,2.89Zm-22.58,0l-5-2.89-5-2.89v-11.54l10-5.77,10,5.77v11.54l-4.7,2.71-5.3,3.06Zm-22.58,0l-5-2.89-5-2.89v-11.54l10-5.77,10,5.77v11.54l-5,2.89-5,2.89Zm-22.58,0l-5-2.89-5-2.89v-11.54l10-5.77,10,5.77v11.54l-5,2.89-5,2.89ZM-1.32-76.4v-11.54l10-5.77,10,5.77v11.54l-5,2.89-5,2.89-5-2.89-5-2.89Zm0-39.12v-11.54l10-5.77,10,5.77v11.54l-5,2.89-5,2.89-5-2.89-5-2.89Zm0-39.12v-11.54l10-5.77,10,5.77v11.54l-5,2.89-5,2.89-5-2.89-5-2.89Zm0-39.12v-11.54l10-5.77,10,5.77v11.54l-5,2.89-5,2.89-5-2.89-5-2.89Zm21.29-36.88l6.05,3.49,3.95,2.28v11.54l-10,5.77-10-5.77v-11.54l3.45-1.99,6.55-3.78Zm22.58,0l6.02,3.48,3.97,2.29v11.54l-10,5.77-10-5.77v-11.54l3.45-1.99,6.55-3.78Zm22.58,0l6.48,3.74,3.52,2.03v11.54l-10,5.77-10-5.77v-11.54l3.39-1.96,6.61-3.82Zm22.58,0l5.57,3.22,4.42,2.55v11.54l-10,5.77-10-5.77v-11.54l3.97-2.29,6.02-3.48Zm22.58,0l6.55,3.78,3.45,1.99v11.54l-10,5.77-10-5.77v-11.54l3.97-2.29,6.02-3.48Zm45.17,0l6.23,3.6,3.76,2.17v11.54l-10,5.77-10-5.77v-11.54l3.76-2.17,6.23-3.6Zm22.58,0l6.23,3.6,3.76,2.17v11.54l-10,5.77-10-5.77v-11.54l4.53-2.62,5.47-3.16Zm22.58,0l5.47,3.16,4.53,2.62v11.54l-10,5.77-10-5.77v-11.54l3.76-2.17,6.23-3.6Zm22.58,0l6.23,3.6,3.76,2.17v11.54l-10,5.77-10-5.77v-11.54l3.76-2.17,6.23-3.6Zm14.42,4.71l8.16-4.71,6.75,3.9,3.25,1.88v11.54l-10,5.77-10-5.77v-11.54l1.84-1.06Zm30.74-4.71l6.23,3.6,3.76,2.17v11.54l-10,5.77-10-5.77v-11.54l3.76-2.17,6.23-3.6Zm10,44.89v11.54l-10,5.77-10-5.77v-11.54l5-2.89,5-2.89,5,2.89,5,2.89Zm0,39.12v11.54l-10,5.77-10-5.77v-11.54l4.28-2.47,5.72-3.3,5.72,3.3,4.28,2.47Zm0,39.12v11.55l-10,5.77-10-5.77v-11.55l5-2.89,5-2.89,5,2.89,5,2.89Zm0,39.12v11.54l-10,5.77-10-5.77v-11.54l5-2.89,5-2.89,5,2.89,5,2.89Zm-268.42,0l5-2.89,5-2.89,5,2.89,5,2.89v11.54l-10,5.77-10-5.77v-11.54Zm0-39.12l5-2.89,5-2.89,5,2.89,5,2.89v11.55l-10,5.77-10-5.77v-11.55Zm0-39.12l4.18-2.41,5.82-3.36,5.65,3.26,4.34,2.51v11.54l-10,5.77-10-5.77v-11.54Zm0-39.12l5-2.89,5-2.89,5,2.89,5,2.89v11.54l-10,5.77-10-5.77v-11.54Zm257.13-8.01l-5,2.89-5,2.89-5-2.89-5-2.89v-11.54l10-5.77,10,5.77v11.54Zm0,39.12l-5,2.89-5,2.89-5-2.89-5-2.89v-11.54l10-5.77,10,5.77v11.54Zm0,39.12l-5,2.89-5,2.89-5-2.89-5-2.89v-11.54l10-5.77,10,5.77v11.54Zm0,39.12l-5,2.89-5,2.89-5-2.89-5-2.89v-11.54l10-5.77,10,5.77v11.54Zm-245.84,0v-11.54l10-5.77,10,5.77v11.54l-5,2.89-5,2.89-5-2.89-5-2.89Zm0-39.12v-11.54l10-5.77,10,5.77v11.54l-5,2.89-5,2.89-5-2.89-5-2.89Zm0-39.12v-11.54l10-5.77,10,5.77v11.54l-5,2.89-5,2.89-5-2.89-5-2.89Zm0-39.12v-11.54l10-5.77,10,5.77v11.54l-5,2.89-5,2.89-5-2.89-5-2.89Zm234.54,8.01v11.54l-10,5.77-10-5.77v-11.54l2.75-1.59,7.25-4.19,5.52,3.19,4.48,2.58Zm0,39.12v11.54l-10,5.77-10-5.77v-11.54l2.68-1.55,7.32-4.23,6.07,3.5,3.93,2.27Zm0,39.12v11.55l-10,5.77-10-5.77v-11.55l10-5.77,4.49,2.59,5.51,3.18Zm0,39.12v11.54l-10,5.77-10-5.77v-11.54l8.75-5.05,1.25-.72,4.67,2.7,5.33,3.07Zm-22.58,11.54l-10,5.77-10-5.77v-11.54l5-2.89,5-2.89,5,2.89,5,2.89v11.54Zm-22.58,0l-10,5.77-10-5.77v-11.54l5-2.89,5-2.89,5.33,3.07,4.67,2.7v11.54Zm-67.75-11.54v11.54l-10,5.77-10-5.77v-11.54l5.36-3.09,4.64-2.68,3.5,2.02,6.5,3.75Zm-22.58,11.54l-10,5.77-10-5.77v-11.54l5-2.89,5-2.89,5,2.89,5,2.89v11.54Zm-22.58,0l-10,5.77-10-5.77v-11.54l5-2.89,5-2.89,5.3,3.06,4.7,2.71v11.54Zm-65.16-11.54l5-2.89,5-2.89,5,2.89,5,2.89v11.54l-10,5.77-10-5.77v-11.54Zm0-39.12l5-2.89,5-2.89,5,2.89,5,2.89v11.55l-10,5.77-10-5.77v-11.55Zm0-39.12l4.18-2.41,5.82-3.36,5.64,3.26,4.35,2.51v11.54l-10,5.77-10-5.77v-11.54Zm0-39.12l5-2.89,5-2.89,5,2.89,5,2.89v11.54l-10,5.77-10-5.77v-11.54Zm179.38,115.11l-5-2.89-5-2.89v-11.54l10-5.77,10,5.77v11.54l-5.41,3.12-4.59,2.65Zm-22.58,0l-5-2.89-5-2.89v-11.54l10-5.77,10,5.77v11.54l-5,2.89-5,2.89Zm-22.58,0l-4.59-2.65-5.41-3.12v-11.54l10-5.77,10,5.77v11.54l-5,2.89-5,2.89Zm-22.58,0l-5.41-3.12-4.59-2.65v-11.54l10-5.77,10,5.77v11.54l-9.7,5.6-.3.17Zm-22.58,0l-5-2.89-5-2.89v-11.54l10-5.77,10,5.77v11.54l-5,2.89-5,2.89Zm-22.58,0l-5-2.89-5-2.89v-11.54l10-5.77,10,5.77v11.54l-5.46,3.15-4.54,2.62Zm-22.58,0l-5-2.89-5-2.89v-11.54l10-5.77,10,5.77v11.54l-5,2.89-5,2.89Zm-22.58,0l-5-2.89-5-2.89v-11.54l10-5.77,10,5.77v11.54l-4.63,2.68-5.36,3.1Zm-10-44.89v-11.54l10-5.77,10,5.77v11.54l-4.65,2.68-5.35,3.09-5-2.89-5-2.89Zm0-39.12v-11.54l10-5.77,10,5.77v11.54l-5.38,3.11-4.62,2.67-5-2.89-5-2.89Zm21.29-36.88l5.45,3.15,4.54,2.62v11.54l-10,5.77-10-5.77v-11.54l5-2.89,5-2.89Zm22.58,0l4.38,2.53,5.62,3.24v11.54l-10,5.77-10-5.77v-11.54l5-2.89,5-2.89Zm22.58,0l5,2.89,5,2.89v11.54l-10,5.77-10-5.77v-11.54l5-2.89,5-2.89Zm45.17,0l5,2.89,5,2.89v11.54l-10,5.77-10-5.77v-11.54l5-2.89,5-2.89Zm22.58,0l5,2.89,5,2.89v11.54l-10,5.77-10-5.77v-11.54l5.52-3.19,4.48-2.58Zm22.58,0l4.48,2.58,5.52,3.19v11.54l-10,5.77-10-5.77v-11.54l5-2.89,5-2.89Zm22.58,0l5,2.89,5,2.89v11.54l-10,5.77-10-5.77v-11.54l5-2.89,5-2.89Zm10,44.89v11.54l-10,5.77-10-5.77v-11.54l4.28-2.47,5.72-3.3,5.72,3.3,4.28,2.47ZM55.14-107.51l5-2.89,5-2.89,4.4,2.54,5.6,3.23v11.55l-10,5.77-10-5.77v-11.55Zm0-39.12l4.16-2.4,5.84-3.37,5.96,3.44,4.04,2.33v11.54l-10,5.77-10-5.77v-11.54Zm166.79-8.01l-4.66,2.69-5.34,3.08-5-2.89-5-2.89v-11.54l10-5.77,10,5.77v11.54Zm-155.5,39.12v-11.54l10-5.77,10,5.77v11.54l-5,2.89-5,2.89-5-2.89-5-2.89Zm0-39.12v-11.54l10-5.77,10,5.77v11.54l-5,2.89-5,2.89-5-2.89-5-2.89Zm144.21,8.01v11.54l-10,5.77-10-5.77v-11.54l4.28-2.47,5.72-3.3,5.29,3.05,4.71,2.72Zm0,39.12v11.55l-10,5.77-10-5.77v-11.55l5-2.89,5-2.89,5.51,3.18,4.49,2.59Zm-67.75,0v11.55l-10,5.77-10-5.77v-11.55l5.6-3.23,4.4-2.54,3.02,1.75,6.97,4.03Zm-22.58,11.55l-10,5.77-10-5.77v-11.55l5-2.89,5-2.89,5,2.89,5,2.89v11.55Zm-22.58,0l-10,5.77-10-5.77v-11.55l5-2.89,5-2.89,5.45,3.14,4.55,2.63v11.55Zm-20-50.66l4.35-2.51,5.64-3.26,5.32,3.07,4.68,2.7v11.54l-10,5.77-10-5.77v-11.54Zm121.62-8.01l-5,2.89-5,2.89-5-2.89-5-2.89v-11.54l10-5.77,10,5.77v11.54Zm0,39.12l-5,2.89-5,2.89-5-2.89-5-2.89v-11.54l10-5.77,10,5.77v11.54Zm-32.58,5.77l-4.61-2.66-5.39-3.11v-11.54l10-5.77,10,5.77v11.54l-5,2.89-5,2.89Zm-22.58,0l-5.39-3.11-4.61-2.66v-11.54l10-5.77,10,5.77v11.54l-9.34,5.39-.66.38Zm-22.58,0l-5-2.89-5-2.89v-11.54l10-5.77,10,5.77v11.54l-5,2.89-5,2.89Zm-22.58,0l-5-2.89-5-2.89v-11.54l10-5.77,10,5.77v11.54l-5.44,3.14-4.56,2.63Zm11.29-42.65l5.82,3.36,4.18,2.41v11.54l-10,5.77-10-5.77v-11.54l4.35-2.51,5.64-3.26Zm45.17,0l5.72,3.3,4.28,2.47v11.54l-10,5.77-10-5.77v-11.54l4.28-2.47,5.72-3.3Zm22.58,0l5.72,3.3,4.28,2.47v11.54l-10,5.77-10-5.77v-11.54l4.71-2.72,5.29-3.05Zm-45.17,0l10,5.77v11.54l-10,5.77-10-5.77v-11.54l4.04-2.33,5.96-3.44Zm43.87-2.24l-5,2.89-5,2.89-5.34-3.08-4.66-2.69v-11.54l10-5.77,10,5.77v11.54Zm-22.58,0l-3.19,1.84-6.81,3.93-4.66-2.69-5.34-3.08v-11.54l10-5.77,10,5.77v11.54Zm-22.58,0l-5,2.89-5,2.89-5-2.89-5-2.89v-11.54l10-5.77,10,5.77v11.54Zm-22.58,0l-4.69,2.71-5.31,3.07-5-2.89-5-2.89v-11.54l10-5.77,10,5.77v11.54Zm36.46,47.13l5-2.89,5-2.89,5,2.89,5,2.89v11.55l-10,5.77-10-5.77v-11.55Zm22.58,0l4.49-2.59,5.51-3.18,5,2.89,5,2.89v11.55l-10,5.77-10-5.77v-11.55Zm43.87-2.24l-5-2.89-5-2.89v-11.54l10-5.77,10,5.77v11.54l-5.39,3.11-4.61,2.66Zm21.29,13.79l-10,5.77-10-5.77v-11.55l5-2.89,5-2.89,5,2.89,5,2.89v11.55Zm1.29-13.79l-5-2.89-5-2.89v-11.54l10-5.77,10,5.77v11.54l-6.63,3.83-3.37,1.94Zm-101.63-81.77l10,5.77v11.54l-10,5.77-10-5.77v-11.54l4.54-2.62,5.45-3.15Zm91.63,115.11v-11.54l10-5.77,10,5.77v11.54l-6.69,3.86-3.31,1.91-5-2.89-5-2.89Zm10-72.46l-5-2.89-5-2.89v-11.54l10-5.77,10,5.77v11.54l-1.65.95-8.34,4.82Zm10-44.89l-10,5.77-5-2.89-5-2.89v-11.54l10-5.77,10,5.77v11.54Zm-22.58,0l-4.22,2.44-5.78,3.34-5-2.89-5-2.89v-11.54l10-5.77,10,5.77v11.54Zm-22.58,0l-5,2.89-5,2.89-5-2.89-5-2.89v-11.54l10-5.77,10,5.77v11.54Zm-22.58,0l-5,2.89-5,2.89-5.78-3.34-4.22-2.44v-11.54l10-5.77,10,5.77v11.54Zm-22.58,0l-1.87,1.08-8.12,4.69-4.22-2.44-5.78-3.34v-11.54l10-5.77,10,5.77v11.54Zm-22.58,0l-5,2.89-5,2.89-5-2.89-5-2.89v-11.54l10-5.77,10,5.77v11.54Zm-22.58,0l-4.36,2.52-5.63,3.25-5-2.89-5-2.89v-11.54l10-5.77,10,5.77v11.54Zm-22.58,0l-5,2.89-5,2.89-5-2.89-5-2.89v-11.54l10-5.77,10,5.77v11.54Zm-22.58,0l-6,3.46-4,2.31-5-2.89-5-2.89v-11.54l10-5.77,10,5.77v11.54Zm-8.7,125.37l5-2.89,5-2.89,4.64,2.68,5.36,3.09v11.54l-10,5.77-10-5.77v-11.54Zm90.34,0l5-2.89,5-2.89,5,2.89,5,2.89v11.54l-10,5.77-10-5.77v-11.54Zm22.58,0l4.67-2.7,5.33-3.07,5,2.89,5,2.89v11.54l-10,5.77-10-5.77v-11.54Zm-35.17-162.24l10,5.77v11.54l-10,5.77-10-5.77v-11.54l3.52-2.03,6.48-3.74ZM224.52-37.29v-11.54l10-5.77,10,5.77v11.54l-6.44,3.72-3.56,2.06-5-2.89-5-2.89Zm42.58-195.59l-3.76,2.17-6.23,3.6-6.23-3.6-3.76-2.17v-11.54l10-5.77,10,5.77v11.54Zm-22.58,0l-10,5.77-6.23-3.6-3.76-2.17v-11.54l10-5.77,10,5.77v11.54Zm-22.58,0l-3.25,1.88-6.75,3.9-6.27-3.62-3.73-2.15v-11.54l10-5.77,10,5.77v11.54Zm-22.58,0l-3.76,2.17-6.23,3.6-6.23-3.6-3.76-2.17v-11.54l10-5.77,10,5.77v11.54Zm-22.58,0l-3.73,2.15-6.27,3.62-6.75-3.9-3.25-1.88v-11.54l10-5.77,10,5.77v11.54Zm-22.58,0l-1.53.88-8.47,4.89-5.47-3.16-4.53-2.62v-11.54l10-5.77,10,5.77v11.54Zm-22.58,0l-3.97,2.29-6.02,3.48-6.55-3.78-3.45-1.99v-11.54l10-5.77,10,5.77v11.54Zm-22.58,0l-3.52,2.03-6.48,3.74-6.61-3.82-3.39-1.96v-11.54l10-5.77,10,5.77v11.54Zm-22.58,0l-3.97,2.29-6.02,3.48-6.02-3.48-3.97-2.29v-11.54l10-5.77,10,5.77v11.54Zm-22.58,0l-4.42,2.55-5.57,3.22-6.02-3.48-3.97-2.29v-11.54l10-5.77,10,5.77v11.54Zm-22.58,0l-3.45,1.99-6.55,3.78-6.05-3.49-3.95-2.28v-11.54l10-5.77,10,5.77v11.54Zm-22.58,0l-3.45,1.99-6.55,3.78-6.02-3.48-3.97-2.29v-11.54l10-5.77,10,5.77v11.54ZM9.97-29.27l5-2.89,5-2.89,5,2.89,5,2.89v11.55l-10,5.77-10-5.77v-11.55Zm22.58,0l5-2.89,5-2.89,5,2.89,5,2.89v11.55l-10,5.77-10-5.77v-11.55Zm22.58,0l5-2.89,5-2.89,4.54,2.62,5.46,3.15v11.55l-10,5.77-10-5.77v-11.55Zm90.34,0l5-2.89,5-2.89,5,2.89,5,2.89v11.55l-10,5.77-10-5.77v-11.55Zm22.58,0l4.59-2.65,5.41-3.12,5,2.89,5,2.89v11.55l-10,5.77-10-5.77v-11.55Zm67.75,0l10-5.77,4.59,2.65,5.41,3.12v11.55l-10,5.77-10-5.77v-11.55Zm22.58,0l5-2.89,5-2.89,5,2.89,5,2.89v11.55l-10,5.77-10-5.77v-11.55Zm-125.51-240.48l10,5.77v11.54l-10,5.77-10-5.77v-11.54l4.36-2.52,5.63-3.25ZM134.18,1.83v-11.54l10-5.77,10,5.77V1.83l-10,5.77-5.51-3.18-4.49-2.59Zm90.34,0v-11.54l10-5.77,10,5.77V1.83l-6.96,4.02-3.04,1.75-5-2.89-5-2.89Zm87.75-273.82l-5,2.89-5,2.89-5-2.89-5-2.89v-11.54l10-5.77,10,5.77v11.54Zm-22.58,0l-5,2.89-5,2.89-5.52-3.19-4.48-2.58v-11.54l10-5.77,10,5.77v11.54Zm-22.58,0l-5,2.89-5,2.89-5-2.89-5-2.89v-11.54l10-5.77,10,5.77v11.54Zm-22.58,0l-10,5.77-5-2.89-5-2.89v-11.54l10-5.77,10,5.77v11.54Zm-22.58,0l-4.48,2.58-5.52,3.19-5-2.89-5-2.89v-11.54l10-5.77,10,5.77v11.54Zm-22.58,0l-5,2.89-5,2.89-5-2.89-5-2.89v-11.54l10-5.77,10,5.77v11.54Zm-22.58,0l-5,2.89-5,2.89-5.52-3.19-4.48-2.58v-11.54l10-5.77,10,5.77v11.54Zm-22.58,0l-2.55,1.47-7.45,4.3-4.48-2.58-5.52-3.19v-11.54l10-5.77,10,5.77v11.54Zm-22.58,0l-5,2.89-5,2.89-5-2.89-5-2.89v-11.54l10-5.77,10,5.77v11.54Zm-22.58,0l-4.54,2.62-5.45,3.15-5-2.89-5-2.89v-11.54l10-5.77,10,5.77v11.54Zm-22.58,0l-5,2.89-5,2.89-5-2.89-5-2.89v-11.54l10-5.77,10,5.77v11.54Zm-22.58,0l-5.62,3.24-4.38,2.53-5-2.89-5-2.89v-11.54l10-5.77,10,5.77v11.54Zm-22.58,0l-5,2.89-5,2.89-5-2.89-5-2.89v-11.54l10-5.77,10,5.77v11.54Zm-22.58,0l-5,2.89-5,2.89-5-2.89-5-2.89v-11.54l10-5.77,10,5.77v11.54Zm-22.58,0l-4.38,2.53-5.62,3.24-5-2.89-5-2.89v-11.54l10-5.77,10,5.77v11.54Zm-22.58,0l-5,2.89-5,2.89-5-2.89-5-2.89v-11.54l10-5.77,10,5.77v11.54ZM-35.2,9.84l4.2-2.42,5.8-3.35,6.36,3.67,3.64,2.1v11.54l-10,5.77-10-5.77v-11.54Zm22.58,0l4.37-2.52,5.63-3.25,5.8,3.35,4.2,2.42v11.54l-10,5.77-10-5.77v-11.54Zm22.58,0l4.37-2.52,5.63-3.25,5.79,3.34,4.21,2.43v11.54l-10,5.77-10-5.77v-11.54Zm22.58,0l4.37-2.52,5.63-3.25,5.8,3.35,4.2,2.42v11.54l-10,5.77-10-5.77v-11.54Zm22.58,0l4.38-2.53,5.62-3.25,5.36,3.1,4.63,2.68v11.54l-10,5.77-10-5.77v-11.54Zm90.34,0l4.29-2.48,5.71-3.29,5.71,3.29,4.29,2.48v11.54l-10,5.77-10-5.77v-11.54Zm22.58,0l3.81-2.2,6.19-3.57,5.71,3.29,4.29,2.48v11.54l-10,5.77-10-5.77v-11.54Zm67.75,0l9.83-5.67.17-.1,5.32,3.07,4.68,2.7v11.54l-10,5.77-10-5.77v-11.54Zm22.58,0l4.29-2.48,5.71-3.29,5.71,3.29,4.29,2.48v11.54l-10,5.77-10-5.77v-11.54Zm22.58,0l3.81-2.2,6.19-3.57,5.71,3.29,4.29,2.48v11.54l-10,5.77-10-5.77v-11.54Zm66.46-276.06l-5-2.89-5-2.89v-11.54l10-5.77,10,5.77v11.54l-5,2.89-5,2.89Zm11.29,19.56l-10-5.77v-11.54l5-2.89,5-2.89,5,2.89,5,2.89v11.54l-10,5.77Zm21.29-25.33l-10,5.77-5-2.89-5-2.89v-11.55l.94-.54,9.06-5.23,10,5.77v11.54Zm-11.29-31.1v11.54l-10,5.77-10-5.77v-11.54l10-5.77,10,5.77Zm-22.58,0v11.54l-10,5.77-10-5.77v-11.54l10-5.77,10,5.77Zm-22.58,0v11.54l-10,5.77-10-5.77v-11.54l10-5.77,10,5.77Zm-22.58,0v11.54l-10,5.77-10-5.77v-11.54l10-5.77,10,5.77Zm-22.58,0v11.54l-10,5.77-10-5.77v-11.54l10-5.77,10,5.77Zm-22.58,0v11.54l-10,5.77-10-5.77v-11.54l10-5.77,10,5.77Zm-22.58,0v11.54l-10,5.77-10-5.77v-11.54l10-5.77,10,5.77Zm-22.58,0v11.54l-10,5.77-10-5.77v-11.54l10-5.77,10,5.77Zm-22.58,0v11.54l-10,5.77-10-5.77v-11.54l10-5.77,10,5.77Zm-22.58,0v11.54l-10,5.77-10-5.77v-11.54l10-5.77,10,5.77Zm-22.58,0v11.54l-10,5.77-10-5.77v-11.54l10-5.77,10,5.77Zm-22.58,0v11.54l-10,5.77-10-5.77v-11.54l10-5.77,10,5.77Zm-22.58,0v11.54l-10,5.77-10-5.77v-11.54l10-5.77,10,5.77Zm-22.58,0v11.54l-10,5.77-10-5.77v-11.54l10-5.77,10,5.77Zm-22.58,0v11.54l-10,5.77-10-5.77v-11.54l10-5.77,10,5.77Zm-22.58,0v11.54l-10,5.77-10-5.77v-11.54l10-5.77,10,5.77Zm-22.58,0v11.54l-10,5.77-10-5.77v-11.54l10-5.77,10,5.77Zm-22.58,0v11.54l-10,5.77-10-5.77v-11.54l10-5.77,10,5.77Zm-22.58,0v11.54l-10,5.77-10-5.77v-11.54l10-5.77,10,5.77Zm-42.58,0l10-5.77,10,5.77v11.54l-10,5.77-10-5.77v-11.54Zm-11.29,19.56l10-5.77,10,5.77v11.54l-4.54,2.62-5.45,3.15-10-5.77v-11.54Zm0,39.12l10-5.77,10,5.77v11.54l-3.52,2.03-6.48,3.74-10-5.77v-11.54Zm0,39.12l10-5.77,10,5.77v11.54l-4.36,2.52-5.63,3.25-10-5.77v-11.54Zm0,39.12l10-5.77,10,5.77v11.54l-4.69,2.71-5.31,3.07-10-5.77v-11.55Zm0,39.12l10-5.77,10,5.77v11.54l-5.44,3.14-4.56,2.63-10-5.77v-11.54Zm0,39.12l10-5.77,10,5.77v11.54l-5.46,3.15-4.54,2.62-10-5.77v-11.54Zm0,39.12l10-5.77,10,5.77v11.54l-5.36,3.09-4.64,2.68-10-5.77v-11.54Zm0,39.12l10-5.77,10,5.77V1.83l-5.6,3.23-4.4,2.54-10-5.77v-11.54Zm0,50.66v-11.54l10-5.77,10,5.77v11.54l-10,5.77-10-5.77Zm22.58,0v-11.54l10-5.77,10,5.77v11.54l-10,5.77-10-5.77Zm22.58,0v-11.54l10-5.77,10,5.77v11.54l-10,5.77-10-5.77Zm22.58,0v-11.54l10-5.77,10,5.77v11.54l-10,5.77-10-5.77Zm22.58,0v-11.54l10-5.77,10,5.77v11.54l-10,5.77-10-5.77Zm22.58,0v-11.54l10-5.77,10,5.77v11.54l-10,5.77-10-5.77Zm22.58,0v-11.54l10-5.77,10,5.77v11.54l-10,5.77-10-5.77Zm22.58,0v-11.54l10-5.77,10,5.77v11.54l-10,5.77-10-5.77Zm22.58,0v-11.54l10-5.77,10,5.77v11.54l-10,5.77-10-5.77Zm22.58,0v-11.54l10-5.77,10,5.77v11.54l-10,5.77-10-5.77Zm22.58,0v-11.54l10-5.77,10,5.77v11.54l-10,5.77-10-5.77Zm22.58,0v-11.54l10-5.77,10,5.77v11.54l-10,5.77-10-5.77Zm22.58,0v-11.54l10-5.77,10,5.77v11.54l-10,5.77-10-5.77Zm22.58,0v-11.54l10-5.77,10,5.77v11.54l-10,5.77-10-5.77Zm42.58,0l-10,5.77-10-5.77v-11.54l10-5.77,10,5.77v11.54Zm2.59,0v-11.54l10-5.77,10,5.77v11.54l-10,5.77-10-5.77Zm22.58,0v-11.54l10-5.77,10,5.77v11.54l-10,5.77-10-5.77Zm22.58,0v-11.54l10-5.77,10,5.77v11.54l-10,5.77-10-5.77Zm22.58,0v-11.54l10-5.77,10,5.77v11.54l-10,5.77-10-5.77Zm22.58,0v-11.54l10-5.77,10,5.77v11.54l-10,5.77-10-5.77Zm42.58,0l-10,5.77-10-5.77v-11.55l10-5.77,10,5.77v11.54Zm0-39.12l-10,5.77-5-2.89-5-2.89v-11.55l10-5.77,10,5.77V1.83Zm0-39.12l-10,5.77-5-2.89-5-2.89v-11.55l10-5.77,10,5.77v11.54Zm0-39.12l-10,5.77-5-2.89-5-2.89v-11.55l10-5.77,10,5.77v11.54Zm0-39.12l-10,5.77-5-2.89-5-2.89v-11.55l10-5.77,10,5.77v11.54Zm0-39.12l-10,5.77-5-2.89-5-2.89v-11.55l1.32-.77,8.67-5.01,10,5.77v11.55Zm0-39.12l-10,5.77-5-2.89-5-2.89v-11.54l.94-.54,9.06-5.23,10,5.77v11.54Zm0-39.12l-10,5.77-6.23-3.6-3.76-2.17v-11.55l1.89-1.09,8.1-4.68,10,5.77v11.54Z"/></g></g><rect class="cls-3" x=".38" y=".37" width="239.25" height="159.25"/><path class="cls-4" d="m239.25.75v158.5H.75V.75h238.5m.75-.75H0v160h240V0h0Z"/><g class="cls-7"><g class="cls-8"><path class="cls-6" d="m320.87-106.07l4.04-7-4.5-7.8h-9.01l-4.04,7h-7.16l-4.04-7h-9.01l-4.04,7h-7.16l-4.04-7h-9.01l-4.04,7h-7.16l-4.04-7h-9.01l-4.04,7h-7.16l-4.04-7h-9.01l-4.04,7h-7.16l-4.04-7h-9.01l-4.04,7h-7.16l-4.04-7h-9.01l-4.04,7h-7.16l-4.04-7h-9.01l-4.04,7h-7.16l-4.04-7h-9.01l-4.04,7h-8.08l-4.51,7.8,4.04,7-4.04,7,4.04,7-4.04,7,4.04,7-4.04,7,4.04,7-4.04,7,4.04,7-4.04,7,4.04,7-4.04,7,4.04,7-4.04,7,4.04,7-4.04,7,4.04,7-4.04,7,4.04,7-4.04,7,4.04,7-4.04,7,4.04,7-4.04,7,4.04,7-4.04,7,4.04,7-4.04,7,4.04,7-4.04,7,4.04,7-4.04,7,4.04,7-4.04,7,4.04,7-4.04,7,4.04,7-4.04,7,4.51,7.8h8.08l4.04,7h9.01l4.04-7h7.16l4.04,7h9.01l4.04-7h7.16l4.04,7h9.01l4.04-7h7.16l4.04,7h9.01l4.04-7h7.16l4.04,7h9.01l4.04-7h7.16l4.04,7h9.01l4.04-7h7.16l4.04,7h9.01l4.04-7h7.16l4.04,7h9.01l4.04-7h7.16l4.04,7h9.01l4.5-7.8-4.04-7,4.04-7-4.04-7,4.04-7-4.04-7,4.04-7-4.04-7,4.04-7-4.04-7,4.04-7-4.04-7,4.04-7-4.04-7,4.04-7-4.04-7,4.04-7-4.04-7,4.04-7-4.04-7,4.04-7-4.04-7,4.04-7-4.04-7,4.04-7-4.04-7,4.04-7-4.04-7,4.04-7-4.04-7,4.04-7-4.04-7,4.04-7-4.04-7,4.04-7-4.04-7,4.04-7-4.04-7,4.04-7-4.04-7Zm-22.46,269.14l-1.79-3.1,1.57-2.71,2.01-3.49h7.16l3.58,6.2-3.58,6.2h-7.16l-1.79-3.1Zm-23.82.74l-2.22-3.84,1.95-3.38,1.63-2.82h7.16l3.58,6.2-3.58,6.2h-7.16l-1.36-2.36Zm-24.68-.74l-1.79-3.1,1.61-2.78,1.97-3.42h7.16l3.58,6.2-3.58,6.2h-7.16l-1.79-3.1Zm-23.72.93l-2.32-4.03,1.99-3.44,1.59-2.76h7.16l3.58,6.2-3.58,6.2h-7.16l-1.25-2.17Zm-24.79-.93l-1.79-3.1,1.99-3.45,1.59-2.75h7.16l3.58,6.2-3.58,6.2h-7.16l-1.79-3.1Zm-10.34-3.9l-3.58-6.2,3.58-6.2h7.16l2.03,3.51,1.55,2.69-2.1,3.63-1.48,2.57h-7.16Zm-14.51,2.87l-1.19-2.07,1.49-2.58,2.09-3.62h7.16l3.58,6.2-3.58,6.2h-7.16l-2.38-4.13Zm-9.74-2.87l-3.58-6.2,3.58-6.2h7.16l2.03,3.52,1.55,2.68-2.1,3.64-1.48,2.56h-7.16Zm-13.92,3.9l-1.79-3.1,2.47-4.28,1.11-1.92h7.16l3.58,6.2-3.58,6.2h-7.16l-1.79-3.1Zm-10.34-3.9l-3.58-6.2,3.58-6.2h7.16l1.57,2.72,2.01,3.48-2.91,5.04-.67,1.16h-7.16Zm-13.32,4.93l-2.38-4.13,2.91-5.04.67-1.16h7.16l3.58,6.2-3.58,6.2h-7.16l-1.19-2.07Zm-10.93-4.93l-3.58-6.2,3.58-6.2h7.16l1.57,2.72,2.01,3.48-2.91,5.04-.67,1.16h-7.16Zm7.16-264.43l1.19,2.07,2.38,4.13-2.5,4.32-1.08,1.88h-7.16l-3.58-6.2,3.58-6.2h7.16Zm4.97-7h7.16l3.58,6.2-3.58,6.2h-7.16l-.98-1.69-2.6-4.51,2.04-3.54,1.54-2.66Zm19.28,7l1.19,2.07,2.38,4.13-2.5,4.32-1.08,1.88h-7.16l-3.58-6.2,3.58-6.2h7.16Zm4.97-7h7.16l3.58,6.2-3.58,6.2h-7.16l-1.37-2.37-2.21-3.82,1.27-2.2,2.31-4Zm19.28,7l1.79,3.1,1.79,3.1-1.79,3.1-1.79,3.1h-7.16l-3.58-6.2,3.58-6.2h7.16Zm4.97-7h7.16l3.58,6.2-3.58,6.2h-7.16l-2.01-3.48-1.57-2.72.85-1.47,2.73-4.73Zm19.28,7l1.79,3.1,1.79,3.1-1.79,3.1-1.79,3.1h-7.16l-3.58-6.2,3.58-6.2h7.16Zm4.97-7h7.16l2.54,4.4,1.04,1.8-3.58,6.2h-7.16l-1.62-2.81-1.96-3.39,1.61-2.78,1.97-3.42Zm24.25,0h7.16l3.05,5.29.53.91-3.58,6.2h-7.16l-1.53-2.65-2.05-3.55,2.63-4.55.95-1.65Zm24.25,0h7.16l2.96,5.13.62,1.07-3.58,6.2h-7.16l-2.01-3.48-1.57-2.72,1.99-3.44,1.59-2.75Zm24.25,0h7.16l3.05,5.29.53.91-3.58,6.2h-7.16l-1.59-2.75-1.99-3.45,2.46-4.27,1.11-1.93Zm24.25,0h7.16l2.96,5.13.62,1.07-3.58,6.2h-7.16l-2.07-3.59-1.51-2.61,2.04-3.53,1.54-2.67Zm0,264.43l-1.51-2.61-2.07-3.59,1.57-2.71,2.01-3.49h7.16l3.58,6.2-3.58,6.2h-7.16Zm-24.25,0l-1.03-1.78-2.55-4.42,1.95-3.38,1.63-2.82h7.16l3.58,6.2-3.58,6.2h-7.16Zm-24.25,0l-1.57-2.72-2.01-3.48,1.61-2.78,1.97-3.42h7.16l3.58,6.2-3.58,6.2h-7.16Zm-48.51,0l-1.96-3.39-1.62-2.81,1.99-3.45,1.59-2.75h7.16l3.58,6.2-3.58,6.2h-7.16Zm-12.13-7l-3.58-6.2,3.58-6.2h7.16l1.79,3.1,1.79,3.1-2.1,3.63-1.48,2.57h-7.16Zm-12.13,7l-2.6-4.51-.98-1.69,1.49-2.58,2.09-3.62h7.16l3.58,6.2-3.58,6.2h-7.16Zm-12.13-7l-3.58-6.2,3.58-6.2h7.16l1.79,3.1,1.79,3.1-2.1,3.64-1.48,2.56h-7.16Zm-12.13,7l-2.21-3.82-1.37-2.37,2.47-4.28,1.11-1.92h7.16l3.58,6.2-3.58,6.2h-7.16Zm-12.13-7l-3.58-6.2,3.58-6.2h7.16l1.19,2.07,2.38,4.13-2.91,5.04-.67,1.16h-7.16Zm-12.13,7l-1.57-2.72-2.01-3.48,2.91-5.04.67-1.16h7.16l3.58,6.2-3.58,6.2h-7.16Zm-12.13-7l-3.58-6.2,3.58-6.2h7.16l1.19,2.07,2.38,4.13-2.91,5.04-.67,1.16h-7.16Zm7.16-236.43l1.54,2.66,2.04,3.54-2.73,4.73-.85,1.47h-7.16l-3.58-6.2,3.58-6.2h7.16Zm4.97-7h7.16l3.58,6.2-3.58,6.2h-7.16l-1.54-2.66-2.04-3.54,2.73-4.73.85-1.47Zm19.28,7l1.54,2.66,2.04,3.54-2.73,4.73-.85,1.47h-7.16l-3.58-6.2,3.58-6.2h7.16Zm4.97-7h7.16l3.58,6.2-3.58,6.2h-7.16l-2.31-4-1.27-2.2,2.31-4,1.27-2.2Zm19.28,7l2.06,3.57,1.52,2.63-2.06,3.57-1.52,2.63h-7.16l-3.58-6.2,3.58-6.2h7.16Zm4.97-7h7.16l3.58,6.2-3.58,6.2h-7.16l-2.73-4.73-.85-1.47,1.54-2.66,2.04-3.54Zm19.28,7l2.06,3.56,1.52,2.63-2.06,3.56-1.52,2.63h-7.16l-3.58-6.2,3.58-6.2h7.16Zm4.97-7h7.16l3.58,6.2-3.58,6.2h-7.16l-1.97-3.42-1.61-2.78,1.97-3.42,1.61-2.78Zm24.25,0h7.16l3.58,6.2-3.58,6.2h-7.16l-.95-1.65-2.63-4.55,2.01-3.49,1.56-2.71Zm24.25,0h7.16l3.58,6.2-3.58,6.2h-7.16l-1.59-2.75-1.99-3.44,1.59-2.75,1.99-3.44Zm24.25,0h7.16l3.58,6.2-3.58,6.2h-7.16l-1.11-1.93-2.46-4.27,1.97-3.41,1.61-2.79Zm24.25,0h7.16l3.58,6.2-3.58,6.2h-7.16l-1.54-2.67-2.04-3.53,1.54-2.67,2.04-3.53Zm0,236.43l-1.79-3.1-1.79-3.1,2.07-3.59,1.51-2.61h7.16l3.58,6.2-3.58,6.2h-7.16Zm-24.25,0l-1.22-2.11-2.36-4.09,2.55-4.42,1.03-1.78h7.16l3.58,6.2-3.58,6.2h-7.16Zm-24.25,0l-1.79-3.1-1.79-3.1,2.01-3.48,1.57-2.72h7.16l3.58,6.2-3.58,6.2h-7.16Zm-24.25,0l-1.01-1.76-2.56-4.44,2.77-4.79.81-1.41h7.16l3.58,6.2-3.58,6.2h-7.16Zm-24.25,0l-1.79-3.1-1.79-3.1,1.62-2.81,1.96-3.39h7.16l3.58,6.2-3.58,6.2h-7.16Zm-12.13-7l-3.58-6.2,3.58-6.2h7.16l1.48,2.57,2.1,3.63-1.55,2.69-2.03,3.51h-7.16Zm-12.13,7l-2.23-3.87-1.35-2.33.98-1.69,2.6-4.51h7.16l3.58,6.2-3.58,6.2h-7.16Zm-12.13-7l-3.58-6.2,3.58-6.2h7.16l1.48,2.56,2.1,3.64-1.55,2.68-2.03,3.52h-7.16Zm-12.13,7l-1.79-3.1-1.79-3.1,1.37-2.37,2.21-3.82h7.16l3.58,6.2-3.58,6.2h-7.16Zm-12.13-7l-3.58-6.2,3.58-6.2h7.16l.67,1.16,2.91,5.04-2.01,3.48-1.57,2.72h-7.16Zm-12.13,7l-1.35-2.33-2.23-3.87,2.01-3.48,1.57-2.72h7.16l3.58,6.2-3.58,6.2h-7.16Zm-12.13-7l-3.58-6.2,3.58-6.2h7.16l.67,1.16,2.91,5.04-2.01,3.48-1.57,2.72h-7.16Zm7.16-208.43l1.05,1.82,2.53,4.38-2.73,4.73-.85,1.47h-7.16l-3.58-6.2,3.58-6.2h7.16Zm12.13-7l3.58,6.2-3.58,6.2h-7.16l-1.54-2.66-2.04-3.54,2.5-4.32,1.08-1.88h7.16Zm12.13,7l1.05,1.82,2.53,4.38-2.73,4.73-.85,1.47h-7.16l-3.58-6.2,3.58-6.2h7.16Zm12.13-7l3.58,6.2-3.58,6.2h-7.16l-2.31-4-1.27-2.2,1.79-3.1,1.79-3.1h7.16Zm12.13,7l1.79,3.1,1.79,3.1-2.06,3.57-1.52,2.63h-7.16l-3.58-6.2,3.58-6.2h7.16Zm4.97-7h7.16l3.58,6.2-3.58,6.2h-7.16l-2.73-4.73-.85-1.47,1.08-1.88,2.5-4.32Zm19.28,7l1.79,3.1,1.79,3.1-2.06,3.56-1.52,2.63h-7.16l-3.58-6.2,3.58-6.2h7.16Zm4.97-7h7.16l3.58,6.2-3.58,6.2h-7.16l-1.97-3.42-1.61-2.78,1.79-3.1,1.79-3.1Zm24.25,0h7.16l3.58,6.2-3.58,6.2h-7.16l-.95-1.65-2.63-4.55,2.26-3.91,1.32-2.29Zm24.25,0h7.16l3.58,6.2-3.58,6.2h-7.16l-1.59-2.75-1.99-3.44,1.79-3.1,1.79-3.1Zm24.25,0h7.16l3.58,6.2-3.58,6.2h-7.16l-1.11-1.93-2.46-4.27,2.17-3.77,1.4-2.43Zm19.28,7l1.79,3.1,1.79,3.1-1.54,2.67-2.04,3.53h-7.16l-3.58-6.2,3.58-6.2h7.16Zm3.58,20.2l-1.54,2.67-2.04,3.53h-7.16l-3.58-6.2,3.58-6.2h7.16l1.79,3.1,1.79,3.1Zm0,14l-1.79,3.1-1.79,3.1h-7.16l-3.58-6.2,3.58-6.2h7.16l2.04,3.53,1.54,2.67Zm0,28l-1.79,3.1-1.79,3.1h-7.16l-3.58-6.2,3.58-6.2h7.16l1.54,2.67,2.04,3.53Zm0,14l-1.79,3.1-1.79,3.1h-7.16l-3.58-6.2,3.58-6.2h7.16l1.54,2.67,2.04,3.53Zm0,14l-1.54,2.67-2.04,3.53h-7.16l-3.58-6.2,3.58-6.2h7.16l1.79,3.1,1.79,3.1Zm0,14l-1.54,2.67-2.04,3.53h-7.16l-3.58-6.2,3.58-6.2h7.16l3.21,5.57.36.63Zm0,14l-1.79,3.1-1.79,3.1h-7.16l-3.58-6.2,3.58-6.2h7.16l1.79,3.1,1.79,3.1Zm0,14l-2.01,3.49-1.57,2.71h-7.16l-3.58-6.2,3.58-6.2h7.16l1.79,3.1,1.79,3.1Zm0,14l-1.79,3.1-1.79,3.1h-7.16l-3.58-6.2,3.58-6.2h7.16l1.79,3.1,1.79,3.1Zm0,14l-1.79,3.1-1.79,3.1h-7.16l-3.58-6.2,3.58-6.2h7.16l1.79,3.1,1.79,3.1Zm0,14l-1.51,2.61-2.07,3.59h-7.16l-3.58-6.2,3.58-6.2h7.16l1.79,3.1,1.79,3.1Zm0,14l-1.79,3.1-1.79,3.1h-7.16l-3.58-6.2,3.58-6.2h7.16l1.79,3.1,1.79,3.1Zm-22.86,13.2l-1.63-2.82-1.95-3.38,2.22-3.84,1.36-2.36h7.16l3.58,6.2-3.58,6.2h-7.16Zm-24.25,0l-1.97-3.42-1.61-2.78,1.79-3.1,1.79-3.1h7.16l3.58,6.2-3.58,6.2h-7.16Zm-24.25,0l-1.59-2.76-1.99-3.44,2.32-4.03,1.25-2.17h7.16l3.58,6.2-3.58,6.2h-7.16Zm-24.25,0l-1.59-2.75-1.99-3.45,1.79-3.1,1.79-3.1h7.16l3.58,6.2-3.58,6.2h-7.16Zm-12.13-7l-3.58-6.2,3.58-6.2h7.16l1.79,3.1,1.79,3.1-1.79,3.1-1.79,3.1h-7.16Zm-12.13,7l-2.09-3.62-1.49-2.58,1.19-2.07,2.38-4.13h7.16l3.58,6.2-3.58,6.2h-7.16Zm-12.13-7l-3.58-6.2,3.58-6.2h7.16l1.79,3.1,1.79,3.1-1.79,3.1-1.79,3.1h-7.16Zm-12.13,7l-1.11-1.92-2.47-4.28,1.79-3.1,1.79-3.1h7.16l3.58,6.2-3.58,6.2h-7.16Zm-12.13-7l-3.58-6.2,3.58-6.2h7.16l.87,1.5,2.71,4.7-2.23,3.87-1.35,2.33h-7.16Zm-12.13,7l-.67-1.16-2.91-5.04,2.38-4.13,1.19-2.07h7.16l3.58,6.2-3.58,6.2h-7.16Zm-3.58-118.21l2.5-4.32,1.08-1.88h7.16l3.58,6.2-3.58,6.2h-7.16l-1.54-2.66-2.04-3.54Zm0-70.01l2.5-4.32,1.08-1.88h7.16l3.58,6.2-3.58,6.2h-7.16l-1.54-2.66-2.04-3.54Zm22.86.8l1.05,1.82,2.53,4.38-2.73,4.73-.85,1.47h-7.16l-3.58-6.2,3.58-6.2h7.16Zm12.13-7l3.58,6.2-3.58,6.2h-7.16l-2.31-4-1.27-2.2,1.79-3.1,1.79-3.1h7.16Zm12.13,7l1.79,3.1,1.79,3.1-2.06,3.57-1.52,2.63h-7.16l-3.58-6.2,3.58-6.2h7.16Zm4.97-7h7.16l3.58,6.2-3.58,6.2h-7.16l-2.73-4.73-.85-1.47,1.08-1.88,2.5-4.32Zm19.28,7l1.79,3.1,1.79,3.1-2.06,3.57-1.52,2.63h-7.16l-3.58-6.2,3.58-6.2h7.16Zm4.97-7h7.16l3.58,6.2-3.58,6.2h-7.16l-1.97-3.42-1.61-2.78,1.79-3.1,1.79-3.1Zm24.25,0h7.16l3.58,6.2-3.58,6.2h-7.16l-.95-1.65-2.63-4.55,2.26-3.91,1.32-2.29Zm24.25,0h7.16l3.58,6.2-3.58,6.2h-7.16l-1.59-2.75-1.99-3.44,1.79-3.1,1.79-3.1Zm24.25,0h7.16l3.58,6.2-3.58,6.2h-7.16l-1.11-1.93-2.46-4.27,2.17-3.77,1.4-2.43Zm0,180.42l-1.18-2.05-2.4-4.15,2.22-3.84,1.36-2.36h7.16l3.58,6.2-3.58,6.2h-7.16Zm-24.25,0l-1.61-2.78-1.97-3.42,1.79-3.1,1.79-3.1h7.16l3.58,6.2-3.58,6.2h-7.16Zm-24.25,0l-1.05-1.83-2.53-4.37,2.32-4.03,1.25-2.17h7.16l3.58,6.2-3.58,6.2h-7.16Zm-24.25,0l-1.99-3.45-1.59-2.75,1.79-3.1,1.79-3.1h7.16l3.58,6.2-3.58,6.2h-7.16Zm-12.13-7l-3.58-6.2,3.58-6.2h7.16l1.79,3.1,1.79,3.1-2.03,3.51-1.55,2.69h-7.16Zm-12.13,7l-2.91-5.04-.67-1.16,1.19-2.07,2.38-4.13h7.16l3.58,6.2-3.58,6.2h-7.16Zm-12.13-7l-3.58-6.2,3.58-6.2h7.16l1.79,3.1,1.79,3.1-2.03,3.52-1.55,2.68h-7.16Zm-12.13,7l-2.47-4.28-1.11-1.92,1.79-3.1,1.79-3.1h7.16l3.58,6.2-3.58,6.2h-7.16Zm-12.13-7l-3.58-6.2,3.58-6.2h7.16l.87,1.5,2.71,4.7-2.6,4.51-.98,1.69h-7.16Zm-15.71-83.21l2.5-4.32,1.08-1.88h7.16l3.58,6.2-3.58,6.2h-7.16l-1.54-2.66-2.04-3.54Zm3.58-63.81l-1.08-1.88-2.5-4.32,2.5-4.32,1.08-1.88h7.16l3.58,6.2-3.58,6.2h-7.16Zm19.28-5.4l.85,1.47,2.73,4.73-2.53,4.38-1.05,1.82h-7.16l-3.58-6.2,3.58-6.2h7.16Zm12.13-7l3.58,6.2-3.58,6.2h-7.16l-1.79-3.1-1.79-3.1,1.79-3.1,1.79-3.1h7.16Zm12.13,7l1.52,2.63,2.06,3.57-1.79,3.1-1.79,3.1h-7.16l-3.58-6.2,3.58-6.2h7.16Zm4.97-7h7.16l3.58,6.2-3.58,6.2h-7.16l-2.5-4.32-1.08-1.88,1.08-1.88,2.5-4.32Zm19.28,7l1.52,2.63,2.06,3.56-1.79,3.1-1.79,3.1h-7.16l-3.58-6.2,3.58-6.2h7.16Zm4.97-7h7.16l3.58,6.2-3.58,6.2h-7.16l-1.79-3.1-1.79-3.1,1.79-3.1,1.79-3.1Zm24.25,0h7.16l3.58,6.2-3.58,6.2h-7.16l-1.32-2.29-2.26-3.91,2.26-3.91,1.32-2.29Zm24.25,0h7.16l3.58,6.2-3.58,6.2h-7.16l-1.79-3.1-1.79-3.1,1.79-3.1,1.79-3.1Zm24.25,0h7.16l3.58,6.2-3.58,6.2h-7.16l-1.4-2.43-2.17-3.77,2.17-3.77,1.4-2.43Zm0,152.42l-1.18-2.05-2.4-4.15,2.22-3.84,1.36-2.36h7.16l3.58,6.2-3.58,6.2h-7.16Zm-24.25,0l-1.61-2.78-1.97-3.42,1.79-3.1,1.79-3.1h7.16l3.58,6.2-3.58,6.2h-7.16Zm-24.25,0l-1.05-1.83-2.53-4.37,2.32-4.03,1.25-2.17h7.16l3.58,6.2-3.58,6.2h-7.16Zm-24.25,0l-1.99-3.45-1.59-2.75,1.79-3.1,1.79-3.1h7.16l3.58,6.2-3.58,6.2h-7.16Zm-12.13-7l-3.58-6.2,3.58-6.2h7.16l1.79,3.1,1.79,3.1-1.79,3.1-1.79,3.1h-7.16Zm-12.13,7l-2.91-5.04-.67-1.16,1.19-2.07,2.38-4.13h7.16l3.58,6.2-3.58,6.2h-7.16Zm-12.13-7l-3.58-6.2,3.58-6.2h7.16l1.79,3.1,1.79,3.1-1.79,3.1-1.79,3.1h-7.16Zm-12.13,7l-2.47-4.28-1.11-1.92,1.79-3.1,1.79-3.1h7.16l3.58,6.2-3.58,6.2h-7.16Zm-12.13-7l-3.58-6.2,3.58-6.2h7.16l.87,1.5,2.71,4.7-2.38,4.13-1.19,2.07h-7.16Zm12.13-131.41h7.16l3.58,6.2-3.58,6.2h-7.16l-.59-1.02-2.99-5.18,1.27-2.2,2.31-4Zm24.25,0h7.16l3.58,6.2-3.58,6.2h-7.16l-1.15-2-2.43-4.2.85-1.47,2.73-4.73Zm24.25,0h7.16l3.58,6.2-3.58,6.2h-7.16l-1.14-1.97-2.44-4.23,1.61-2.78,1.97-3.42Zm24.25,0h7.16l3.58,6.2-3.58,6.2h-7.16l-3.58-6.2,2.63-4.55.95-1.65Zm24.25,0h7.16l3.58,6.2-3.58,6.2h-7.16l-3.58-6.2,1.99-3.44,1.59-2.75Zm24.25,0h7.16l3.58,6.2-3.58,6.2h-7.16l-3.58-6.2,2.46-4.27,1.11-1.93Zm0,124.41l-1.45-2.51-2.13-3.69,2.22-3.84,1.36-2.36h7.16l3.58,6.2-3.58,6.2h-7.16Zm-24.25,0l-1.79-3.1-1.79-3.1,1.79-3.1,1.79-3.1h7.16l3.58,6.2-3.58,6.2h-7.16Zm-24.25,0l-1.38-2.4-2.19-3.8,2.32-4.03,1.25-2.17h7.16l3.58,6.2-3.58,6.2h-7.16Zm-24.25,0l-1.79-3.1-1.79-3.1,1.79-3.1,1.79-3.1h7.16l3.58,6.2-3.58,6.2h-7.16Zm-12.13-7l-3.58-6.2,3.58-6.2h7.16l1.79,3.1,1.79,3.1-1.79,3.1-1.79,3.1h-7.16Zm-12.13,7l-2.71-4.7-.87-1.5,1.19-2.07,2.38-4.13h7.16l3.58,6.2-3.58,6.2h-7.16Zm-12.13-7l-3.58-6.2,3.58-6.2h7.16l1.79,3.1,1.79,3.1-1.79,3.1-1.79,3.1h-7.16Zm-12.13,7l-1.79-3.1-1.79-3.1,1.79-3.1,1.79-3.1h7.16l3.58,6.2-3.58,6.2h-7.16Zm-12.13-7l-3.58-6.2,3.58-6.2h7.16l1.19,2.07,2.38,4.13-2.38,4.13-1.19,2.07h-7.16Zm19.28-103.41l3.58,6.2-3.58,6.2h-7.16l-1.79-3.1-1.79-3.1,2.31-4,1.27-2.2h7.16Zm24.25,0l3.58,6.2-3.58,6.2h-7.16l-2.53-4.38-1.05-1.82,1.54-2.66,2.04-3.54h7.16Zm24.25,0l3.58,6.2-3.58,6.2h-7.16l-1.79-3.1-1.79-3.1,1.97-3.42,1.61-2.78h7.16Zm64.21,13.2l-1.79,3.1-1.79,3.1h-7.16l-3.58-6.2,3.58-6.2h7.16l1.58,2.74,2,3.46Zm0,14l-1.79,3.1-1.79,3.1h-7.16l-3.58-6.2,3.58-6.2h7.16l1.58,2.74,2,3.46Zm0,14l-1.58,2.74-2,3.46h-7.16l-3.58-6.2,3.58-6.2h7.16l1.79,3.1,1.79,3.1Zm0,14l-1.58,2.74-2,3.46h-7.16l-3.58-6.2,3.58-6.2h7.16l2.9,5.02.68,1.18Zm0,14l-1.79,3.1-1.79,3.1h-7.16l-3.58-6.2,3.58-6.2h7.16l1.79,3.1,1.79,3.1Zm0,14l-1.98,3.43-1.6,2.77h-7.16l-3.58-6.2,3.58-6.2h7.16l1.79,3.1,1.79,3.1Zm-22.86,13.2l-2.01-3.48-1.57-2.72,1.79-3.1,1.79-3.1h7.16l3.58,6.2-3.58,6.2h-7.16Zm-24.25,0l-1.53-2.65-2.05-3.55,2.19-3.8,1.38-2.4h7.16l3.58,6.2-3.58,6.2h-7.16Zm-24.25,0l-1.62-2.81-1.96-3.39,1.79-3.1,1.79-3.1h7.16l3.58,6.2-3.58,6.2h-7.16Zm-12.13-7l-3.58-6.2,3.58-6.2h7.16l1.79,3.1,1.79,3.1-1.48,2.57-2.1,3.63h-7.16Zm-12.13,7l-2.01-3.48-1.57-2.72.87-1.5,2.71-4.7h7.16l3.58,6.2-3.58,6.2h-7.16Zm-12.13-7l-3.58-6.2,3.58-6.2h7.16l1.79,3.1,1.79,3.1-1.48,2.56-2.1,3.64h-7.16Zm-12.13,7l-1.37-2.37-2.21-3.82,1.79-3.1,1.79-3.1h7.16l3.58,6.2-3.58,6.2h-7.16Zm-3.58-62.21l1.79-3.1,1.79-3.1h7.16l3.58,6.2-3.58,6.2h-7.16l-2.31-4-1.27-2.2Zm0-14l2.31-4,1.27-2.2h7.16l3.58,6.2-3.58,6.2h-7.16l-1.79-3.1-1.79-3.1Zm24.65-17.9l-1.79,3.1h-7.16l-3.58-6.2,3.58-6.2h7.16l3.58,6.2-1.79,3.1Zm10.34,11.7l3.58,6.2-3.58,6.2h-7.16l-2.53-4.38-1.05-1.82,1.54-2.66,2.04-3.54h7.16Zm13.92-11.7l-1.79,3.1h-7.16l-3.58-6.2,3.58-6.2h7.16l3.58,6.2-1.79,3.1Zm10.34,11.7l3.58,6.2-3.58,6.2h-7.16l-1.79-3.1-1.79-3.1,1.97-3.42,1.61-2.78h7.16Zm15.71-14.8l-1.32,2.29-2.26,3.91h-7.16l-3.58-6.2,3.58-6.2h7.16l2.84,4.91.74,1.29Zm24.25,0l-1.4,2.43-2.18,3.77h-7.16l-3.58-6.2,3.58-6.2h7.16l2.7,4.68.88,1.52Zm1.39,83.21l-1.79-3.1-1.79-3.1,1.79-3.1,1.79-3.1h7.16l3.58,6.2-3.58,6.2h-7.16Zm-24.25,0l-1.25-2.17-2.32-4.03,2.19-3.8,1.38-2.4h7.16l3.58,6.2-3.58,6.2h-7.16Zm-24.25,0l-1.79-3.1-1.79-3.1,1.79-3.1,1.79-3.1h7.16l3.58,6.2-3.58,6.2h-7.16Zm-12.13-7l-3.58-6.2,3.58-6.2h7.16l1.79,3.1,1.79,3.1-1.79,3.1-1.79,3.1h-7.16Zm-12.13,7l-2.38-4.13-1.19-2.07.87-1.5,2.71-4.7h7.16l3.58,6.2-3.58,6.2h-7.16Zm-12.13-7l-3.58-6.2,3.58-6.2h7.16l1.79,3.1,1.79,3.1-1.79,3.1-1.79,3.1h-7.16Zm-15.71-27.2l1.79-3.1,1.79-3.1h7.16l3.58,6.2-3.58,6.2h-7.16l-2.31-4-1.27-2.2Zm22.86-27.2l2.06,3.57,1.52,2.63-1.79,3.1-1.79,3.1h-7.16l-3.58-6.2,3.58-6.2h7.16Zm12.13,7l3.58,6.2-3.58,6.2h-7.16l-2.73-4.73-.85-1.47,1.08-1.88,2.5-4.32h7.16Zm12.13-7l2.06,3.56,1.52,2.63-1.79,3.1-1.79,3.1h-7.16l-3.58-6.2,3.58-6.2h7.16Zm12.13,7l3.58,6.2-3.58,6.2h-7.16l-1.97-3.42-1.61-2.78,1.79-3.1,1.79-3.1h7.16Zm12.13-7l2.01,3.49,1.56,2.71-1.32,2.29-2.26,3.91h-7.16l-3.58-6.2,3.58-6.2h7.16Zm24.25,0l1.97,3.41,1.61,2.79-1.4,2.43-2.18,3.77h-7.16l-3.58-6.2,3.58-6.2h7.16Zm4.97,47.4l-1.79-3.1-1.79-3.1,1.18-2.05,2.4-4.15h7.16l3.58,6.2-3.58,6.2h-7.16Zm-24.25,0l-1.25-2.17-2.32-4.03,1.29-2.23,2.29-3.97h7.16l3.58,6.2-3.58,6.2h-7.16Zm-24.25,0l-1.79-3.1-1.79-3.1,3.58-6.2h7.16l3.58,6.2-3.58,6.2h-7.16Zm-12.13-7l-3.58-6.2,3.58-6.2h7.16l.98,1.7,2.6,4.5-2.06,3.56-1.52,2.63h-7.16Zm-12.13,7l-2.38-4.13-1.19-2.07,3.58-6.2h7.16l3.58,6.2-3.58,6.2h-7.16Zm-12.13-7l-3.58-6.2,3.58-6.2h7.16l.97,1.68,2.61,4.52-2.06,3.57-1.52,2.63h-7.16Zm7.16-26.4l1.79,3.1,1.79,3.1-2.06,3.57-1.52,2.63h-7.16l-3.58-6.2,3.58-6.2h7.16Zm12.13,7l3.58,6.2-3.58,6.2h-7.16l-2.73-4.73-.85-1.47,1.08-1.88,2.5-4.32h7.16Zm12.13-7l1.79,3.1,1.79,3.1-2.06,3.57-1.52,2.63h-7.16l-3.58-6.2,3.58-6.2h7.16Zm12.13,7l3.58,6.2-3.58,6.2h-7.16l-1.97-3.42-1.61-2.78,1.79-3.1,1.79-3.1h7.16Zm12.13-7l2.24,3.89,1.34,2.31-.95,1.65-2.63,4.55h-7.16l-3.58-6.2,3.58-6.2h7.16Zm24.25,0l2.17,3.75,1.41,2.45-1.11,1.93-2.46,4.27h-7.16l-3.58-6.2,3.58-6.2h7.16Zm12.13,7l3.58,6.2-3.58,6.2h-7.16l-1.59-2.75-1.99-3.44,1.79-3.1,1.79-3.1h7.16Zm-24.25,0l3.58,6.2-3.58,6.2h-7.16l-.95-1.65-2.63-4.55,2.26-3.91,1.32-2.29h7.16Zm-19.28,19.4l-3.58-6.2,3.58-6.2h7.16l3.58,6.2-.95,1.65-2.63,4.55h-7.16Zm24.25,0l-3.58-6.2,3.58-6.2h7.16l3.58,6.2-1.11,1.93-2.46,4.27h-7.16ZM258.85-.25l3.58,6.2-3.58,6.2h-7.16l-1.59-2.75-1.99-3.44,1.79-3.1,1.79-3.1h7.16Zm-24.25,0l3.58,6.2-3.58,6.2h-7.16l-.95-1.65-2.63-4.55,2.26-3.91,1.32-2.29h7.16Zm-19.28,47.4l-3.58-6.2,3.58-6.2h7.16l2.32,4.03,1.25,2.17-1.38,2.4-2.19,3.8h-7.16Zm24.25,0l-3.58-6.2,3.58-6.2h7.16l2.22,3.84,1.36,2.36-1.45,2.51-2.13,3.69h-7.16Zm19.28-61.4l3.58,6.2-3.58,6.2h-7.16l-1.79-3.1-1.79-3.1,1.59-2.75,1.99-3.44h7.16Zm-8.55-.8l-1.4,2.43-2.18,3.77h-7.16l-3.58-6.2,3.58-6.2h7.16l1.97,3.41,1.61,2.79Zm-15.71.8l3.58,6.2-3.58,6.2h-7.16l-1.34-2.31-2.24-3.89,2.01-3.49,1.56-2.71h7.16Zm-8.55-.8l-1.32,2.29-2.26,3.91h-7.16l-3.58-6.2,3.58-6.2h7.16l2.01,3.49,1.56,2.71Zm-24.25,0l-1.79,3.1-1.79,3.1h-7.16l-3.58-6.2,3.58-6.2h7.16l2.06,3.56,1.52,2.63Zm-24.25,0l-1.79,3.1-1.79,3.1h-7.16l-3.58-6.2,3.58-6.2h7.16l2.06,3.57,1.52,2.63Zm-26.44,49.01l3.58-6.2h7.16l3.58,6.2-3.58,6.2h-7.16l-1.79-3.1-1.79-3.1Zm0,14l1.79-3.1,1.79-3.1h7.16l3.58,6.2-3.58,6.2h-7.16l-1.79-3.1-1.79-3.1Zm64.21,13.2l-3.58-6.2,3.58-6.2h7.16l2.32,4.03,1.25,2.17-1.59,2.76-1.99,3.44h-7.16Zm24.25,0l-3.58-6.2,3.58-6.2h7.16l2.22,3.84,1.36,2.36-1.63,2.82-1.95,3.38h-7.16Zm31.41-84.01h-7.16l-3.58-6.2,3.58-6.2h7.16l2.36,4.08,1.22,2.12-1.79,3.1-1.79,3.1Zm-12.13-5.4l3.58,6.2-3.58,6.2h-7.16l-1.79-3.1-1.79-3.1,1.59-2.75,1.99-3.44h7.16Zm-24.25,0l3.58,6.2-3.58,6.2h-7.16l-1.34-2.31-2.24-3.89,2.01-3.49,1.56-2.71h7.16Zm-84.88-7l3.58,6.2-2.5,4.32-1.08,1.88h-7.16l-3.58-6.2,3.58-6.2h7.16Zm0,14l1.54,2.66,2.04,3.54-2.5,4.32-1.08,1.88h-7.16l-3.58-6.2,3.58-6.2h7.16Zm0,14l1.54,2.66,2.04,3.54-2.5,4.32-1.08,1.88h-7.16l-3.58-6.2,3.58-6.2h7.16Zm0,14l1.05,1.82,2.53,4.38-2.73,4.73-.85,1.47h-7.16l-3.58-6.2,3.58-6.2h7.16Zm-7.16,14h7.16l.4.69,3.18,5.51-2.73,4.73-.85,1.47h-7.16l-3.58-6.2,3.58-6.2Zm7.16,14l1.19,2.07,2.38,4.13-2.71,4.7-.87,1.5h-7.16l-3.58-6.2,3.58-6.2h7.16Zm0,14l1.19,2.07,2.38,4.13-2.09,3.62-1.49,2.58h-7.16l-3.58-6.2,3.58-6.2h7.16Zm65.6,26.4l-3.58-6.2,3.58-6.2h7.16l2.32,4.03,1.25,2.17-1.25,2.17-2.32,4.03h-7.16Zm24.25,0l-3.58-6.2,3.58-6.2h7.16l2.22,3.84,1.36,2.36-1.36,2.36-2.22,3.84h-7.16Zm24.25,0l-3.58-6.2,3.58-6.2h7.16l1.79,3.1,1.79,3.1-1.79,3.1-1.79,3.1h-7.16Zm12.13-7l-1.59-2.75-1.99-3.45,2.13-3.69,1.45-2.51h7.16l3.58,6.2-3.58,6.2h-7.16Zm0-14l-1.36-2.36-2.22-3.84,2.13-3.69,1.45-2.51h7.16l3.58,6.2-3.58,6.2h-7.16Zm0-14l-1.36-2.36-2.22-3.84,1.34-2.32,2.24-3.88h7.16l3.58,6.2-3.58,6.2h-7.16Zm0-14l-1.11-1.93-2.46-4.27,2.17-3.77,1.4-2.43h7.16l3.58,6.2-3.58,6.2h-7.16Zm0-14l-1.11-1.93-2.46-4.27,2.17-3.77,1.4-2.43h7.16l3.58,6.2-3.58,6.2h-7.16Zm0-14l-1.41-2.45-2.17-3.75,1.97-3.41,1.61-2.79h7.16l3.58,6.2-3.58,6.2h-7.16Zm0-14l-1.41-2.45-2.17-3.75,1.97-3.41,1.61-2.79h7.16l3.58,6.2-3.58,6.2h-7.16Zm-60.63,105.01l-3.58-6.2,3.58-6.2h7.16l2.19,3.8,1.38,2.4-1.25,2.17-2.32,4.03h-7.16Zm24.25,0l-3.58-6.2,3.58-6.2h7.16l2.13,3.69,1.45,2.51-1.36,2.36-2.22,3.84h-7.16Zm24.25,0l-3.58-6.2,3.58-6.2h7.16l1.79,3.1,1.79,3.1-1.79,3.1-1.79,3.1h-7.16Zm7.16-138.42l2,3.46,1.58,2.74-1.79,3.1-1.79,3.1h-7.16l-3.58-6.2,3.58-6.2h7.16Zm-24.25,0l2.46,4.27,1.11,1.93-1.41,2.45-2.17,3.75h-7.16l-3.58-6.2,3.58-6.2h7.16Zm-24.25,0l2.63,4.55.95,1.65-1.34,2.31-2.24,3.89h-7.16l-3.58-6.2,3.58-6.2h7.16Zm-7.16,152.42l-3.58-6.2,3.58-6.2h7.16l2.19,3.8,1.38,2.4-.81,1.41-2.77,4.79h-7.16Zm24.25,0l-3.58-6.2,3.58-6.2h7.16l2.13,3.69,1.45,2.51-1.03,1.78-2.55,4.42h-7.16Zm24.25,0l-3.58-6.2,3.58-6.2h7.16l1.79,3.1,1.79,3.1-1.56,2.7-2.02,3.5h-7.16Zm7.16-166.42l1.79,3.1,1.79,3.1-1.58,2.74-2,3.46h-7.16l-3.58-6.2,3.58-6.2h7.16Zm-24.25,0l2.17,3.75,1.41,2.45-1.11,1.93-2.46,4.27h-7.16l-3.58-6.2,3.58-6.2h7.16Zm-24.25,0l2.24,3.89,1.34,2.31-.95,1.65-2.63,4.55h-7.16l-3.58-6.2,3.58-6.2h7.16Zm-92.04,21h7.16l3.58,6.2-3.58,6.2h-7.16l-.48-.83-3.1-5.37,2.04-3.54,1.54-2.66Zm-3.58,20.2l2.73-4.73.85-1.47h7.16l3.58,6.2-3.58,6.2h-7.16l-1.05-1.82-2.53-4.38Zm0,14l2.73-4.73.85-1.47h7.16l3.58,6.2-3.58,6.2h-7.16l-1.05-1.82-2.53-4.38Zm0,42.01l3.58-6.2h7.16l3.58,6.2-3.58,6.2h-7.16l-1.19-2.07-2.38-4.13Zm0,14l2.71-4.7.87-1.5h7.16l3.58,6.2-3.58,6.2h-7.16l-1.19-2.07-2.38-4.13Zm0,14l2.71-4.7.87-1.5h7.16l3.58,6.2-3.58,6.2h-7.16l-.98-1.69-2.6-4.51Zm3.58,7.8h7.16l3.58,6.2-3.58,6.2h-7.16l-.87-1.5-2.71-4.7,2.38-4.13,1.19-2.07Zm0,14h7.16l3.58,6.2-3.58,6.2h-7.16l-1.49-2.58-2.09-3.62,2.38-4.13,1.19-2.07Zm0,14h7.16l3.58,6.2-3.58,6.2h-7.16l-1.49-2.58-2.09-3.62,2.38-4.13,1.19-2.07Zm84.88,19.4l-3.58-6.2,3.58-6.2h7.16l2.19,3.8,1.38,2.4-1.01,1.76-2.56,4.44h-7.16Zm24.25,0l-3.58-6.2,3.58-6.2h7.16l2.13,3.69,1.45,2.51-1.22,2.11-2.36,4.09h-7.16Zm24.25,0l-3.58-6.2,3.58-6.2h7.16l1.79,3.1,1.79,3.1-1.79,3.1-1.79,3.1h-7.16Zm31.41-140.02h-7.16l-3.58-6.2,3.58-6.2h7.16l2.43,4.21,1.15,1.99-1.79,3.1-1.79,3.1Zm-24.25-54.4l1.79,3.1,1.79,3.1-1.58,2.74-2,3.46h-7.16l-3.58-6.2,3.58-6.2h7.16Zm-24.25,0l2.17,3.75,1.41,2.45-1.11,1.93-2.46,4.27h-7.16l-3.58-6.2,3.58-6.2h7.16Zm-24.25,0l2.24,3.89,1.34,2.31-.95,1.65-2.63,4.55h-7.16l-3.58-6.2,3.58-6.2h7.16Zm-97.01,14l1.05,1.82,2.53,4.38-2.73,4.73-.85,1.47h-7.16l-3.58-6.2,3.58-6.2h7.16Zm0,14l.85,1.47,2.73,4.73-2.53,4.38-1.05,1.82h-7.16l-3.58-6.2,3.58-6.2h7.16Zm0,14l3.58,6.2-2.5,4.32-1.08,1.88h-7.16l-3.58-6.2,3.58-6.2h7.16Zm0,14l1.54,2.66,2.04,3.54-2.5,4.32-1.08,1.88h-7.16l-3.58-6.2,3.58-6.2h7.16Zm0,14l1.54,2.66,2.04,3.54-2.5,4.32-1.08,1.88h-7.16l-3.58-6.2,3.58-6.2h7.16Zm0,14l1.05,1.82,2.53,4.38-2.73,4.73-.85,1.47h-7.16l-3.58-6.2,3.58-6.2h7.16Zm0,14l.4.69,3.18,5.51-2.73,4.73-.85,1.47h-7.16l-3.58-6.2,3.58-6.2h7.16Zm0,14l1.19,2.07,2.38,4.13-2.71,4.7-.87,1.5h-7.16l-3.58-6.2,3.58-6.2h7.16Zm0,14l1.19,2.07,2.38,4.13-2.09,3.62-1.49,2.58h-7.16l-3.58-6.2,3.58-6.2h7.16Zm0,14l1.19,2.07,2.38,4.13-2.38,4.13-1.19,2.07h-7.16l-3.58-6.2,3.58-6.2h7.16Zm0,14l.87,1.5,2.71,4.7-2.38,4.13-1.19,2.07h-7.16l-3.58-6.2,3.58-6.2h7.16Zm0,14l.87,1.5,2.71,4.7-2.6,4.51-.98,1.69h-7.16l-3.58-6.2,3.58-6.2h7.16Zm0,14l.87,1.5,2.71,4.7-2.23,3.87-1.35,2.33h-7.16l-3.58-6.2,3.58-6.2h7.16Zm89.85,26.4l-3.58-6.2,3.58-6.2h7.16l2.53,4.37,1.05,1.83-1.53,2.65-2.05,3.55h-7.16Zm24.25,0l-3.58-6.2,3.58-6.2h7.16l2.4,4.15,1.18,2.05-1.59,2.75-1.99,3.45h-7.16Zm24.25,0l-3.58-6.2,3.58-6.2h7.16l1.98,3.43,1.6,2.77-2.02,3.5-1.56,2.7h-7.16Zm24.25,0l-3.58-6.2,3.58-6.2h7.16l2.01,3.49,1.57,2.71-2.07,3.59-1.51,2.61h-7.16Zm12.13-7l-2.01-3.49-1.57-2.71,1.79-3.1,1.79-3.1h7.16l3.58,6.2-3.58,6.2h-7.16Zm0-14l-1.57-2.71-2.01-3.49,1.79-3.1,1.79-3.1h7.16l3.58,6.2-3.58,6.2h-7.16Zm0-14l-1.57-2.71-2.01-3.49,1.79-3.1,1.79-3.1h7.16l3.58,6.2-3.58,6.2h-7.16Zm0-14l-1.79-3.1-1.79-3.1,1.79-3.1,1.79-3.1h7.16l3.58,6.2-3.58,6.2h-7.16Zm0-14l-2.07-3.59-1.51-2.61,1.79-3.1,1.79-3.1h7.16l3.58,6.2-3.58,6.2h-7.16Zm0-14l-1.79-3.1-1.79-3.1,1.79-3.1,1.79-3.1h7.16l3.58,6.2-3.58,6.2h-7.16Zm0-14l-1.79-3.1-1.79-3.1,1.1-1.91,2.48-4.29h7.16l3.58,6.2-3.58,6.2h-7.16Zm0-14l-1.54-2.67-2.04-3.53,1.79-3.1,1.79-3.1h7.16l3.58,6.2-3.58,6.2h-7.16Zm0-14l-1.54-2.67-2.04-3.53,1.79-3.1,1.79-3.1h7.16l3.58,6.2-3.58,6.2h-7.16Zm0-14l-1.79-3.1-1.79-3.1,1.54-2.67,2.04-3.53h7.16l3.58,6.2-3.58,6.2h-7.16Zm0-14l-1.79-3.1-1.79-3.1,1.54-2.67,2.04-3.53h7.16l3.58,6.2-3.58,6.2h-7.16Zm0-14l-3.58-6.2,2.04-3.53,1.54-2.67h7.16l3.58,6.2-3.58,6.2h-7.16Zm0-14l-1.79-3.1-1.79-3.1,1.79-3.1,1.79-3.1h7.16l3.58,6.2-3.58,6.2h-7.16Zm0-14l-1.54-2.67-2.04-3.53,1.79-3.1,1.79-3.1h7.16l3.58,6.2-3.58,6.2h-7.16Zm0-14l-1.54-2.67-2.04-3.53,1.79-3.1,1.79-3.1h7.16l3.58,6.2-3.58,6.2h-7.16Zm-4.97-19.4l1.54,2.67,2.04,3.53-1.54,2.67-2.04,3.53h-7.16l-3.58-6.2,3.58-6.2h7.16Zm-24.25,0l1.58,2.74,2,3.46-1.58,2.74-2,3.46h-7.16l-3.58-6.2,3.58-6.2h7.16Zm-24.25,0l1.97,3.41,1.61,2.79-1.11,1.93-2.46,4.27h-7.16l-3.58-6.2,3.58-6.2h7.16Zm-24.25,0l2.01,3.49,1.56,2.71-.95,1.65-2.63,4.55h-7.16l-3.58-6.2,3.58-6.2h7.16Zm-7.16,236.43l-3.58-6.2,3.58-6.2h7.16l2.32,4.03,1.25,2.17-1.05,1.83-2.53,4.37h-7.16Zm12.13,7l-.81-1.41-2.77-4.79,1.99-3.44,1.59-2.76h7.16l3.58,6.2-3.58,6.2h-7.16Zm12.13-7l-3.58-6.2,3.58-6.2h7.16l2.22,3.84,1.36,2.36-1.18,2.05-2.4,4.15h-7.16Zm24.25,0l-3.58-6.2,3.58-6.2h7.16l1.79,3.1,1.79,3.1-1.6,2.77-1.98,3.43h-7.16Zm24.25,0l-3.58-6.2,3.58-6.2h7.16l1.79,3.1,1.79,3.1-1.57,2.71-2.01,3.49h-7.16Zm7.16-250.43l1.79,3.1,1.79,3.1-1.79,3.1-1.79,3.1h-7.16l-3.58-6.2,3.58-6.2h7.16Zm-24.25,0l1.79,3.1,1.79,3.1-1.79,3.1-1.79,3.1h-7.16l-3.58-6.2,3.58-6.2h7.16Zm-24.25,0l2.22,3.84,1.36,2.36-1.4,2.43-2.18,3.77h-7.16l-3.58-6.2,3.58-6.2h7.16Zm-24.25,0l2.32,4.03,1.25,2.17-1.32,2.29-2.26,3.91h-7.16l-3.58-6.2,3.58-6.2h7.16Zm-7.16,264.43l-3.58-6.2,3.58-6.2h7.16l2.05,3.55,1.53,2.65-1.05,1.83-2.53,4.37h-7.16Zm24.25,0l-3.58-6.2,3.58-6.2h7.16l1.99,3.45,1.59,2.75-1.18,2.05-2.4,4.15h-7.16Zm24.25,0l-3.58-6.2,3.58-6.2h7.16l1.56,2.7,2.02,3.5-1.6,2.77-1.98,3.43h-7.16Zm24.25,0l-3.58-6.2,3.58-6.2h7.16l1.51,2.61,2.07,3.59-1.57,2.71-2.01,3.49h-7.16Zm24.25-252.03l-3.58-6.2,3.58-6.2h7.16l3.58,6.2-3.58,6.2h-7.16Zm0-26.4h7.16l3.58,6.2-3.58,6.2h-7.16l-3.58-6.2,3.58-6.2Zm-24.25,0h7.16l3.58,6.2-2.04,3.53-1.54,2.67h-7.16l-3.58-6.2,3.58-6.2Zm-24.25,0h7.16l3.58,6.2-2,3.46-1.58,2.74h-7.16l-3.58-6.2,3.58-6.2Zm-24.25,0h7.16l3.58,6.2-1.61,2.79-1.97,3.41h-7.16l-3.58-6.2,3.58-6.2Zm-24.25,0h7.16l3.58,6.2-1.56,2.71-2.01,3.49h-7.16l-3.58-6.2,3.58-6.2Zm-24.25,0h7.16l3.58,6.2-1.52,2.63-2.06,3.56h-7.16l-.68-1.18-2.9-5.02,3.58-6.2Zm-24.25,0h7.16l3.58,6.2-1.52,2.63-2.06,3.57h-7.16l-.42-.72-3.16-5.47,3.58-6.2Zm-24.25,0h7.16l3.58,6.2-2.04,3.54-1.54,2.66h-7.16l-.82-1.41-2.76-4.79,3.58-6.2Zm-24.25,0h7.16l3.58,6.2-2.04,3.54-1.54,2.66h-7.16l-.68-1.18-2.9-5.02,3.58-6.2Zm-12.13,7h7.16l3.58,6.2-3.58,6.2h-7.16l-3.58-6.2,3.58-6.2Zm0,14h7.16l3.58,6.2-3.58,6.2h-7.16l-3.58-6.2,3.58-6.2Zm0,14h7.16l3.58,6.2-3.58,6.2h-7.16l-3.58-6.2,3.58-6.2Zm0,14h7.16l3.58,6.2-3.58,6.2h-7.16l-3.58-6.2,3.58-6.2Zm0,14h7.16l3.58,6.2-3.58,6.2h-7.16l-3.58-6.2,3.58-6.2Zm0,14h7.16l3.58,6.2-3.58,6.2h-7.16l-3.58-6.2,3.58-6.2Zm0,14h7.16l3.58,6.2-3.58,6.2h-7.16l-3.58-6.2,3.58-6.2Zm0,14h7.16l3.58,6.2-3.58,6.2h-7.16l-3.58-6.2,3.58-6.2Zm0,14h7.16l3.58,6.2-3.58,6.2h-7.16l-3.58-6.2,3.58-6.2Zm0,14h7.16l3.58,6.2-3.58,6.2h-7.16l-3.58-6.2,3.58-6.2Zm0,14h7.16l3.58,6.2-3.58,6.2h-7.16l-3.58-6.2,3.58-6.2Zm0,14h7.16l3.58,6.2-3.58,6.2h-7.16l-3.58-6.2,3.58-6.2Zm0,14h7.16l3.58,6.2-3.58,6.2h-7.16l-3.58-6.2,3.58-6.2Zm0,14h7.16l3.58,6.2-3.58,6.2h-7.16l-3.58-6.2,3.58-6.2Zm0,14h7.16l3.58,6.2-3.58,6.2h-7.16l-3.58-6.2,3.58-6.2Zm0,14h7.16l3.58,6.2-3.58,6.2h-7.16l-3.58-6.2,3.58-6.2Zm0,14h7.16l3.58,6.2-3.58,6.2h-7.16l-3.58-6.2,3.58-6.2Zm0,14h7.16l3.58,6.2-3.58,6.2h-7.16l-3.58-6.2,3.58-6.2Zm0,14h7.16l3.58,6.2-3.58,6.2h-7.16l-3.58-6.2,3.58-6.2Zm-3.58,20.2l3.58-6.2h7.16l3.58,6.2-3.58,6.2h-7.16l-3.58-6.2Zm22.86,13.2h-7.16l-3.58-6.2,3.58-6.2h7.16l1.35,2.33,2.23,3.87-3.58,6.2Zm24.25,0h-7.16l-3.58-6.2,3.58-6.2h7.16l1.35,2.33,2.23,3.87-3.58,6.2Zm24.25,0h-7.16l-3.58-6.2,3.58-6.2h7.16l1.79,3.1,1.79,3.1-3.58,6.2Zm24.25,0h-7.16l-3.58-6.2,3.58-6.2h7.16l1.79,3.1,1.79,3.1-3.58,6.2Zm24.25,0h-7.16l-3.58-6.2,3.58-6.2h7.16l2.56,4.44,1.01,1.76-3.58,6.2Zm24.25,0h-7.16l-3.58-6.2,3.58-6.2h7.16l2.36,4.09,1.22,2.11-3.58,6.2Zm24.25,0h-7.16l-3.58-6.2,3.58-6.2h7.16l1.79,3.1,1.79,3.1-3.58,6.2Zm24.25,0h-7.16l-3.58-6.2,3.58-6.2h7.16l1.79,3.1,1.79,3.1-3.58,6.2Zm24.25,0h-7.16l-3.58-6.2,3.58-6.2h7.16l3.58,6.2-3.58,6.2Zm0-14h-7.16l-3.58-6.2,3.58-6.2h7.16l3.58,6.2-3.58,6.2Zm0-14h-7.16l-3.58-6.2,3.58-6.2h7.16l3.58,6.2-3.58,6.2Zm0-14h-7.16l-3.58-6.2,3.58-6.2h7.16l3.58,6.2-3.58,6.2Zm0-14h-7.16l-3.58-6.2,3.58-6.2h7.16l3.58,6.2-3.58,6.2Zm0-14h-7.16l-3.58-6.2,3.58-6.2h7.16l3.58,6.2-3.58,6.2Zm0-14h-7.16l-3.58-6.2,3.58-6.2h7.16l3.58,6.2-3.58,6.2Zm0-14h-7.16l-3.58-6.2,3.58-6.2h7.16l3.58,6.2-3.58,6.2Zm0-14h-7.16l-3.58-6.2,3.58-6.2h7.16l3.58,6.2-3.58,6.2Zm0-14h-7.16l-3.58-6.2,3.58-6.2h7.16l3.58,6.2-3.58,6.2Zm0-14h-7.16l-3.58-6.2,3.58-6.2h7.16l3.58,6.2-3.58,6.2Zm0-14h-7.16l-3.58-6.2,3.58-6.2h7.16l3.58,6.2-3.58,6.2Zm0-14h-7.16l-3.58-6.2,3.58-6.2h7.16l3.58,6.2-3.58,6.2Zm0-14h-7.16l-3.58-6.2,3.58-6.2h7.16l3.58,6.2-3.58,6.2Zm0-14h-7.16l-3.58-6.2,3.58-6.2h7.16l3.58,6.2-3.58,6.2Zm0-14h-7.16l-3.58-6.2,3.58-6.2h7.16l3.58,6.2-3.58,6.2Zm0-14h-7.16l-3.58-6.2,3.58-6.2h7.16l3.58,6.2-3.58,6.2Zm0-14h-7.16l-3.58-6.2,3.58-6.2h7.16l3.58,6.2-3.58,6.2Zm0-14h-7.16l-3.58-6.2,3.58-6.2h7.16l3.58,6.2-3.58,6.2Z"/></g></g><path class="cls-4" d="m32.34,11.27c-1.47-.98-3.36-1.16-5-.47l-3.43,1.62v-2.88l-1.25-.72,1.23-1.84-1.35-.9-1.28,1.93-.96-.55-1.13.65-.93-2.07-1.47.66,1,2.22-1.07.62v2.84l-3.42-1.65c-1.62-.7-3.52-.53-5,.44-1.49.98-2.38,2.64-2.38,4.42v.52c0,2.78,2.16,5.06,4.88,5.27v-1.81c-1.74-.21-3.1-1.67-3.1-3.47v-.52c0-1.18.59-2.28,1.58-2.93.97-.64,2.24-.75,3.3-.3l5.68,2.74-6.05,2.86v9.34l6.53,3.77,1.6,3.31,1.65-3.44,6.31-3.64v-5.65h0v-3.51h0v-.18l-4.3-2.08-2.04,1,4.56,2.2v7.19l-6.26,3.61-6.26-3.61v-7.18l14.1-6.66c1.09-.45,2.31-.34,3.3.31,1,.67,1.57,1.74,1.57,2.93,0,1.86-1.45,3.37-3.27,3.5v1.8c2.81-.13,5.06-2.45,5.06-5.29,0-1.78-.89-3.43-2.37-4.42Zm-10.05,1.92l-2,.94-1.99-.96v-2.69l1.99-1.15,1.99,1.15v2.71Z"/><rect class="cls-5" x="16.81" y="39.87" width="215.36" height="110.92"/><path class="cls-4" d="m223.39,145.79l3.08-1.78v-6.52l-5.65-3.26-5.65,3.26v6.52l3.08,1.78-8.67,5.01,11.24,6.38,11.35-6.31-8.78-5.07Z"/><path class="cls-4" d="m239.25.75v158.5H.75V.75h238.5m.75-.75H0v160h240V0h0Z"/></svg>