<?xml version="1.0" encoding="UTF-8" standalone="no"?>
<svg
   id="Ebene_1"
   viewBox="0 0 62.42 98.16"
   version="1.1"
   sodipodi:docname="opsi-notifier_login.svg"
   inkscape:version="1.3 (0e150ed6c4, 2023-07-21)"
   xmlns:inkscape="http://www.inkscape.org/namespaces/inkscape"
   xmlns:sodipodi="http://sodipodi.sourceforge.net/DTD/sodipodi-0.dtd"
   xmlns="http://www.w3.org/2000/svg"
   xmlns:svg="http://www.w3.org/2000/svg">
  <sodipodi:namedview
     id="namedview3"
     pagecolor="#ffffff"
     bordercolor="#000000"
     borderopacity="0.25"
     inkscape:showpageshadow="2"
     inkscape:pageopacity="0.0"
     inkscape:pagecheckerboard="0"
     inkscape:deskcolor="#d1d1d1"
     inkscape:zoom="2.7825199"
     inkscape:cx="46.001468"
     inkscape:cy="106.73778"
     inkscape:window-width="1920"
     inkscape:window-height="1009"
     inkscape:window-x="0"
     inkscape:window-y="120"
     inkscape:window-maximized="1"
     inkscape:current-layer="Ebene_1" />
  <defs
     id="defs1">
    <style
       id="style1">.cls-1{fill:none;}.cls-1,.cls-2,.cls-3{stroke-width:0px;}.cls-4{opacity:.05;}.cls-5{clip-path:url(#clippath-1);}.cls-2{fill:#cb1e58;}.cls-3{fill:#e4e4e3;}</style>
    <clipPath
       id="clippath-1">
      <rect
         class="cls-1"
         x="-193.6"
         y="184.27"
         width="127.99"
         height="161.73"
         transform="translate(-394.74 135.52) rotate(-90)"
         id="rect1" />
    </clipPath>
  </defs>
  <path
     class="cls-2"
     d="m 56.749999,40.835002 v -26.09 L 31.209999,0.00500183 5.6699991,14.745002 v 26.08 l -5.67000001552734,3.27 v 36.04 L 31.209999,98.155002 l 31.21,-18.02 v -36.04 l -5.67,-3.27 z m -43.08,-21.47 17.54,-10.1300007 17.54,10.1300007 v 16.85 l -17.54,-10.12 -17.54,10.12 z m 24.3,41.38 -3.21,1.85 v 12 h -7.1 v -12 l -3.21,-1.85 v -7.8 l 6.76,-3.9 6.76,3.9 z"
     id="path1-6"
     style="fill:#cb1e58;stroke-width:0px" />
  <g
     class="cls-4"
     id="g3">
    <g
       class="cls-5"
       clip-path="url(#clippath-1)"
       id="g2">
      <path
         class="cls-3"
         d="m32.13,95.07l4.04-7-4.5-7.8h-9.01l-4.04,7h-7.16l-4.04-7H-1.6l-4.04,7h-7.16l-4.04-7h-9.01l-4.04,7h-7.16l-4.04-7h-9.01l-4.04,7h-7.16l-4.04-7h-9.01l-4.04,7h-7.16l-4.04-7h-9.01l-4.04,7h-7.16l-4.04-7h-9.01l-4.04,7h-7.16l-4.04-7h-9.01l-4.04,7h-7.16l-4.04-7h-9.01l-4.04,7h-8.08l-4.51,7.8,4.04,7-4.04,7,4.04,7-4.04,7,4.04,7-4.04,7,4.04,7-4.04,7,4.04,7-4.04,7,4.04,7-4.04,7,4.04,7-4.04,7,4.04,7-4.04,7,4.04,7-4.04,7,4.04,7-4.04,7,4.04,7-4.04,7,4.04,7-4.04,7,4.04,7-4.04,7,4.04,7-4.04,7,4.04,7-4.04,7,4.04,7-4.04,7,4.04,7-4.04,7,4.04,7-4.04,7,4.04,7-4.04,7,4.51,7.8h8.08l4.04,7h9.01l4.04-7h7.16l4.04,7h9.01l4.04-7h7.16l4.04,7h9.01l4.04-7h7.16l4.04,7h9.01l4.04-7h7.16l4.04,7h9.01l4.04-7h7.16l4.04,7h9.01l4.04-7h7.16l4.04,7h9.01l4.04-7h7.16l4.04,7H7.41l4.04-7h7.16l4.04,7h9.01l4.5-7.8-4.04-7,4.04-7-4.04-7,4.04-7-4.04-7,4.04-7-4.04-7,4.04-7-4.04-7,4.04-7-4.04-7,4.04-7-4.04-7,4.04-7-4.04-7,4.04-7-4.04-7,4.04-7-4.04-7,4.04-7-4.04-7,4.04-7-4.04-7,4.04-7-4.04-7,4.04-7-4.04-7,4.04-7-4.04-7,4.04-7-4.04-7,4.04-7-4.04-7,4.04-7-4.04-7,4.04-7-4.04-7,4.04-7-4.04-7ZM9.67,364.2l-1.79-3.1,1.57-2.71,2.01-3.49h7.16l3.58,6.2-3.58,6.2h-7.16l-1.79-3.1Zm-23.82.74l-2.22-3.84,1.95-3.38,1.63-2.82h7.16l3.58,6.2-3.58,6.2h-7.16l-1.36-2.36Zm-24.68-.74l-1.79-3.1,1.61-2.78,1.97-3.42h7.16l3.58,6.2-3.58,6.2h-7.16l-1.79-3.1Zm-23.72.93l-2.32-4.03,1.99-3.44,1.59-2.76h7.16l3.58,6.2-3.58,6.2h-7.16l-1.25-2.17Zm-24.79-.93l-1.79-3.1,1.99-3.45,1.59-2.75h7.16l3.58,6.2-3.58,6.2h-7.16l-1.79-3.1Zm-10.34-3.9l-3.58-6.2,3.58-6.2h7.16l2.03,3.51,1.55,2.69-2.1,3.63-1.48,2.57h-7.16Zm-14.51,2.87l-1.19-2.07,1.49-2.58,2.09-3.62h7.16l3.58,6.2-3.58,6.2h-7.16l-2.38-4.13Zm-9.74-2.87l-3.58-6.2,3.58-6.2h7.16l2.03,3.52,1.55,2.68-2.1,3.64-1.48,2.56h-7.16Zm-13.92,3.9l-1.79-3.1,2.47-4.28,1.11-1.92h7.16l3.58,6.2-3.58,6.2h-7.16l-1.79-3.1Zm-10.34-3.9l-3.58-6.2,3.58-6.2h7.16l1.57,2.72,2.01,3.48-2.91,5.04-.67,1.16h-7.16Zm-13.32,4.93l-2.38-4.13,2.91-5.04.67-1.16h7.16l3.58,6.2-3.58,6.2h-7.16l-1.19-2.07Zm-10.93-4.93l-3.58-6.2,3.58-6.2h7.16l1.57,2.72,2.01,3.48-2.91,5.04-.67,1.16h-7.16Zm7.16-264.43l1.19,2.07,2.38,4.13-2.5,4.32-1.08,1.88h-7.16l-3.58-6.2,3.58-6.2h7.16Zm4.97-7h7.16l3.58,6.2-3.58,6.2h-7.16l-.98-1.69-2.6-4.51,2.04-3.54,1.54-2.66Zm19.28,7l1.19,2.07,2.38,4.13-2.5,4.32-1.08,1.88h-7.16l-3.58-6.2,3.58-6.2h7.16Zm4.97-7h7.16l3.58,6.2-3.58,6.2h-7.16l-1.37-2.37-2.21-3.82,1.27-2.2,2.31-4Zm19.28,7l1.79,3.1,1.79,3.1-1.79,3.1-1.79,3.1h-7.16l-3.58-6.2,3.58-6.2h7.16Zm4.97-7h7.16l3.58,6.2-3.58,6.2h-7.16l-2.01-3.48-1.57-2.72.85-1.47,2.73-4.73Zm19.28,7l1.79,3.1,1.79,3.1-1.79,3.1-1.79,3.1h-7.16l-3.58-6.2,3.58-6.2h7.16Zm4.97-7h7.16l2.54,4.4,1.04,1.8-3.58,6.2h-7.16l-1.62-2.81-1.96-3.39,1.61-2.78,1.97-3.42Zm24.25,0h7.16l3.05,5.29.53.91-3.58,6.2h-7.16l-1.53-2.65-2.05-3.55,2.63-4.55.95-1.65Zm24.25,0h7.16l2.96,5.13.62,1.07-3.58,6.2h-7.16l-2.01-3.48-1.57-2.72,1.99-3.44,1.59-2.75Zm24.25,0h7.16l3.05,5.29.53.91-3.58,6.2h-7.16l-1.59-2.75-1.99-3.45,2.46-4.27,1.11-1.93Zm24.25,0h7.16l2.96,5.13.62,1.07-3.58,6.2h-7.16l-2.07-3.59-1.51-2.61,2.04-3.53,1.54-2.67Zm0,264.43l-1.51-2.61-2.07-3.59,1.57-2.71,2.01-3.49h7.16l3.58,6.2-3.58,6.2h-7.16Zm-24.25,0l-1.03-1.78-2.55-4.42,1.95-3.38,1.63-2.82h7.16l3.58,6.2-3.58,6.2h-7.16Zm-24.25,0l-1.57-2.72-2.01-3.48,1.61-2.78,1.97-3.42h7.16l3.58,6.2-3.58,6.2h-7.16Zm-48.51,0l-1.96-3.39-1.62-2.81,1.99-3.45,1.59-2.75h7.16l3.58,6.2-3.58,6.2h-7.16Zm-12.13-7l-3.58-6.2,3.58-6.2h7.16l1.79,3.1,1.79,3.1-2.1,3.63-1.48,2.57h-7.16Zm-12.13,7l-2.6-4.51-.98-1.69,1.49-2.58,2.09-3.62h7.16l3.58,6.2-3.58,6.2h-7.16Zm-12.13-7l-3.58-6.2,3.58-6.2h7.16l1.79,3.1,1.79,3.1-2.1,3.64-1.48,2.56h-7.16Zm-12.13,7l-2.21-3.82-1.37-2.37,2.47-4.28,1.11-1.92h7.16l3.58,6.2-3.58,6.2h-7.16Zm-12.13-7l-3.58-6.2,3.58-6.2h7.16l1.19,2.07,2.38,4.13-2.91,5.04-.67,1.16h-7.16Zm-12.13,7l-1.57-2.72-2.01-3.48,2.91-5.04.67-1.16h7.16l3.58,6.2-3.58,6.2h-7.16Zm-12.13-7l-3.58-6.2,3.58-6.2h7.16l1.19,2.07,2.38,4.13-2.91,5.04-.67,1.16h-7.16Zm7.16-236.43l1.54,2.66,2.04,3.54-2.73,4.73-.85,1.47h-7.16l-3.58-6.2,3.58-6.2h7.16Zm4.97-7h7.16l3.58,6.2-3.58,6.2h-7.16l-1.54-2.66-2.04-3.54,2.73-4.73.85-1.47Zm19.28,7l1.54,2.66,2.04,3.54-2.73,4.73-.85,1.47h-7.16l-3.58-6.2,3.58-6.2h7.16Zm4.97-7h7.16l3.58,6.2-3.58,6.2h-7.16l-2.31-4-1.27-2.2,2.31-4,1.27-2.2Zm19.28,7l2.06,3.57,1.52,2.63-2.06,3.57-1.52,2.63h-7.16l-3.58-6.2,3.58-6.2h7.16Zm4.97-7h7.16l3.58,6.2-3.58,6.2h-7.16l-2.73-4.73-.85-1.47,1.54-2.66,2.04-3.54Zm19.28,7l2.06,3.56,1.52,2.63-2.06,3.56-1.52,2.63h-7.16l-3.58-6.2,3.58-6.2h7.16Zm4.97-7h7.16l3.58,6.2-3.58,6.2h-7.16l-1.97-3.42-1.61-2.78,1.97-3.42,1.61-2.78Zm24.25,0h7.16l3.58,6.2-3.58,6.2h-7.16l-.95-1.65-2.63-4.55,2.01-3.49,1.56-2.71Zm24.25,0h7.16l3.58,6.2-3.58,6.2h-7.16l-1.59-2.75-1.99-3.44,1.59-2.75,1.99-3.44Zm24.25,0h7.16l3.58,6.2-3.58,6.2h-7.16l-1.11-1.93-2.46-4.27,1.97-3.41,1.61-2.79Zm24.25,0h7.16l3.58,6.2-3.58,6.2h-7.16l-1.54-2.67-2.04-3.53,1.54-2.67,2.04-3.53Zm0,236.43l-1.79-3.1-1.79-3.1,2.07-3.59,1.51-2.61h7.16l3.58,6.2-3.58,6.2h-7.16Zm-24.25,0l-1.22-2.11-2.36-4.09,2.55-4.42,1.03-1.78h7.16l3.58,6.2-3.58,6.2h-7.16Zm-24.25,0l-1.79-3.1-1.79-3.1,2.01-3.48,1.57-2.72h7.16l3.58,6.2-3.58,6.2h-7.16Zm-24.25,0l-1.01-1.76-2.56-4.44,2.77-4.79.81-1.41h7.16l3.58,6.2-3.58,6.2h-7.16Zm-24.25,0l-1.79-3.1-1.79-3.1,1.62-2.81,1.96-3.39h7.16l3.58,6.2-3.58,6.2h-7.16Zm-12.13-7l-3.58-6.2,3.58-6.2h7.16l1.48,2.57,2.1,3.63-1.55,2.69-2.03,3.51h-7.16Zm-12.13,7l-2.23-3.87-1.35-2.33.98-1.69,2.6-4.51h7.16l3.58,6.2-3.58,6.2h-7.16Zm-12.13-7l-3.58-6.2,3.58-6.2h7.16l1.48,2.56,2.1,3.64-1.55,2.68-2.03,3.52h-7.16Zm-12.13,7l-1.79-3.1-1.79-3.1,1.37-2.37,2.21-3.82h7.16l3.58,6.2-3.58,6.2h-7.16Zm-12.13-7l-3.58-6.2,3.58-6.2h7.16l.67,1.16,2.91,5.04-2.01,3.48-1.57,2.72h-7.16Zm-12.13,7l-1.35-2.33-2.23-3.87,2.01-3.48,1.57-2.72h7.16l3.58,6.2-3.58,6.2h-7.16Zm-12.13-7l-3.58-6.2,3.58-6.2h7.16l.67,1.16,2.91,5.04-2.01,3.48-1.57,2.72h-7.16Zm7.16-208.43l1.05,1.82,2.53,4.38-2.73,4.73-.85,1.47h-7.16l-3.58-6.2,3.58-6.2h7.16Zm12.13-7l3.58,6.2-3.58,6.2h-7.16l-1.54-2.66-2.04-3.54,2.5-4.32,1.08-1.88h7.16Zm12.13,7l1.05,1.82,2.53,4.38-2.73,4.73-.85,1.47h-7.16l-3.58-6.2,3.58-6.2h7.16Zm12.13-7l3.58,6.2-3.58,6.2h-7.16l-2.31-4-1.27-2.2,1.79-3.1,1.79-3.1h7.16Zm12.13,7l1.79,3.1,1.79,3.1-2.06,3.57-1.52,2.63h-7.16l-3.58-6.2,3.58-6.2h7.16Zm4.97-7h7.16l3.58,6.2-3.58,6.2h-7.16l-2.73-4.73-.85-1.47,1.08-1.88,2.5-4.32Zm19.28,7l1.79,3.1,1.79,3.1-2.06,3.56-1.52,2.63h-7.16l-3.58-6.2,3.58-6.2h7.16Zm4.97-7h7.16l3.58,6.2-3.58,6.2h-7.16l-1.97-3.42-1.61-2.78,1.79-3.1,1.79-3.1Zm24.25,0h7.16l3.58,6.2-3.58,6.2h-7.16l-.95-1.65-2.63-4.55,2.26-3.91,1.32-2.29Zm24.25,0h7.16l3.58,6.2-3.58,6.2h-7.16l-1.59-2.75-1.99-3.44,1.79-3.1,1.79-3.1Zm24.25,0h7.16l3.58,6.2-3.58,6.2h-7.16l-1.11-1.93-2.46-4.27,2.17-3.77,1.4-2.43Zm19.28,7l1.79,3.1,1.79,3.1-1.54,2.67-2.04,3.53H-.67l-3.58-6.2,3.58-6.2h7.16Zm3.58,20.2l-1.54,2.67-2.04,3.53H-.67l-3.58-6.2,3.58-6.2h7.16l1.79,3.1,1.79,3.1Zm0,14l-1.79,3.1-1.79,3.1H-.67l-3.58-6.2,3.58-6.2h7.16l2.04,3.53,1.54,2.67Zm0,28l-1.79,3.1-1.79,3.1H-.67l-3.58-6.2,3.58-6.2h7.16l1.54,2.67,2.04,3.53Zm0,14l-1.79,3.1-1.79,3.1H-.67l-3.58-6.2,3.58-6.2h7.16l1.54,2.67,2.04,3.53Zm0,14l-1.54,2.67-2.04,3.53H-.67l-3.58-6.2,3.58-6.2h7.16l1.79,3.1,1.79,3.1Zm0,14l-1.54,2.67-2.04,3.53H-.67l-3.58-6.2,3.58-6.2h7.16l3.21,5.57.36.63Zm0,14l-1.79,3.1-1.79,3.1H-.67l-3.58-6.2,3.58-6.2h7.16l1.79,3.1,1.79,3.1Zm0,14l-2.01,3.49-1.57,2.71H-.67l-3.58-6.2,3.58-6.2h7.16l1.79,3.1,1.79,3.1Zm0,14l-1.79,3.1-1.79,3.1H-.67l-3.58-6.2,3.58-6.2h7.16l1.79,3.1,1.79,3.1Zm0,14l-1.79,3.1-1.79,3.1H-.67l-3.58-6.2,3.58-6.2h7.16l1.79,3.1,1.79,3.1Zm0,14l-1.51,2.61-2.07,3.59H-.67l-3.58-6.2,3.58-6.2h7.16l1.79,3.1,1.79,3.1Zm0,14l-1.79,3.1-1.79,3.1H-.67l-3.58-6.2,3.58-6.2h7.16l1.79,3.1,1.79,3.1Zm-22.86,13.2l-1.63-2.82-1.95-3.38,2.22-3.84,1.36-2.36h7.16l3.58,6.2-3.58,6.2h-7.16Zm-24.25,0l-1.97-3.42-1.61-2.78,1.79-3.1,1.79-3.1h7.16l3.58,6.2-3.58,6.2h-7.16Zm-24.25,0l-1.59-2.76-1.99-3.44,2.32-4.03,1.25-2.17h7.16l3.58,6.2-3.58,6.2h-7.16Zm-24.25,0l-1.59-2.75-1.99-3.45,1.79-3.1,1.79-3.1h7.16l3.58,6.2-3.58,6.2h-7.16Zm-12.13-7l-3.58-6.2,3.58-6.2h7.16l1.79,3.1,1.79,3.1-1.79,3.1-1.79,3.1h-7.16Zm-12.13,7l-2.09-3.62-1.49-2.58,1.19-2.07,2.38-4.13h7.16l3.58,6.2-3.58,6.2h-7.16Zm-12.13-7l-3.58-6.2,3.58-6.2h7.16l1.79,3.1,1.79,3.1-1.79,3.1-1.79,3.1h-7.16Zm-12.13,7l-1.11-1.92-2.47-4.28,1.79-3.1,1.79-3.1h7.16l3.58,6.2-3.58,6.2h-7.16Zm-12.13-7l-3.58-6.2,3.58-6.2h7.16l.87,1.5,2.71,4.7-2.23,3.87-1.35,2.33h-7.16Zm-12.13,7l-.67-1.16-2.91-5.04,2.38-4.13,1.19-2.07h7.16l3.58,6.2-3.58,6.2h-7.16Zm-3.58-118.21l2.5-4.32,1.08-1.88h7.16l3.58,6.2-3.58,6.2h-7.16l-1.54-2.66-2.04-3.54Zm0-70.01l2.5-4.32,1.08-1.88h7.16l3.58,6.2-3.58,6.2h-7.16l-1.54-2.66-2.04-3.54Zm22.86.8l1.05,1.82,2.53,4.38-2.73,4.73-.85,1.47h-7.16l-3.58-6.2,3.58-6.2h7.16Zm12.13-7l3.58,6.2-3.58,6.2h-7.16l-2.31-4-1.27-2.2,1.79-3.1,1.79-3.1h7.16Zm12.13,7l1.79,3.1,1.79,3.1-2.06,3.57-1.52,2.63h-7.16l-3.58-6.2,3.58-6.2h7.16Zm4.97-7h7.16l3.58,6.2-3.58,6.2h-7.16l-2.73-4.73-.85-1.47,1.08-1.88,2.5-4.32Zm19.28,7l1.79,3.1,1.79,3.1-2.06,3.57-1.52,2.63h-7.16l-3.58-6.2,3.58-6.2h7.16Zm4.97-7h7.16l3.58,6.2-3.58,6.2h-7.16l-1.97-3.42-1.61-2.78,1.79-3.1,1.79-3.1Zm24.25,0h7.16l3.58,6.2-3.58,6.2h-7.16l-.95-1.65-2.63-4.55,2.26-3.91,1.32-2.29Zm24.25,0h7.16l3.58,6.2-3.58,6.2h-7.16l-1.59-2.75-1.99-3.44,1.79-3.1,1.79-3.1Zm24.25,0h7.16l3.58,6.2-3.58,6.2h-7.16l-1.11-1.93-2.46-4.27,2.17-3.77,1.4-2.43Zm0,180.42l-1.18-2.05-2.4-4.15,2.22-3.84,1.36-2.36h7.16l3.58,6.2-3.58,6.2h-7.16Zm-24.25,0l-1.61-2.78-1.97-3.42,1.79-3.1,1.79-3.1h7.16l3.58,6.2-3.58,6.2h-7.16Zm-24.25,0l-1.05-1.83-2.53-4.37,2.32-4.03,1.25-2.17h7.16l3.58,6.2-3.58,6.2h-7.16Zm-24.25,0l-1.99-3.45-1.59-2.75,1.79-3.1,1.79-3.1h7.16l3.58,6.2-3.58,6.2h-7.16Zm-12.13-7l-3.58-6.2,3.58-6.2h7.16l1.79,3.1,1.79,3.1-2.03,3.51-1.55,2.69h-7.16Zm-12.13,7l-2.91-5.04-.67-1.16,1.19-2.07,2.38-4.13h7.16l3.58,6.2-3.58,6.2h-7.16Zm-12.13-7l-3.58-6.2,3.58-6.2h7.16l1.79,3.1,1.79,3.1-2.03,3.52-1.55,2.68h-7.16Zm-12.13,7l-2.47-4.28-1.11-1.92,1.79-3.1,1.79-3.1h7.16l3.58,6.2-3.58,6.2h-7.16Zm-12.13-7l-3.58-6.2,3.58-6.2h7.16l.87,1.5,2.71,4.7-2.6,4.51-.98,1.69h-7.16Zm-15.71-83.21l2.5-4.32,1.08-1.88h7.16l3.58,6.2-3.58,6.2h-7.16l-1.54-2.66-2.04-3.54Zm3.58-63.81l-1.08-1.88-2.5-4.32,2.5-4.32,1.08-1.88h7.16l3.58,6.2-3.58,6.2h-7.16Zm19.28-5.4l.85,1.47,2.73,4.73-2.53,4.38-1.05,1.82h-7.16l-3.58-6.2,3.58-6.2h7.16Zm12.13-7l3.58,6.2-3.58,6.2h-7.16l-1.79-3.1-1.79-3.1,1.79-3.1,1.79-3.1h7.16Zm12.13,7l1.52,2.63,2.06,3.57-1.79,3.1-1.79,3.1h-7.16l-3.58-6.2,3.58-6.2h7.16Zm4.97-7h7.16l3.58,6.2-3.58,6.2h-7.16l-2.5-4.32-1.08-1.88,1.08-1.88,2.5-4.32Zm19.28,7l1.52,2.63,2.06,3.56-1.79,3.1-1.79,3.1h-7.16l-3.58-6.2,3.58-6.2h7.16Zm4.97-7h7.16l3.58,6.2-3.58,6.2h-7.16l-1.79-3.1-1.79-3.1,1.79-3.1,1.79-3.1Zm24.25,0h7.16l3.58,6.2-3.58,6.2h-7.16l-1.32-2.29-2.26-3.91,2.26-3.91,1.32-2.29Zm24.25,0h7.16l3.58,6.2-3.58,6.2h-7.16l-1.79-3.1-1.79-3.1,1.79-3.1,1.79-3.1Zm24.25,0h7.16l3.58,6.2-3.58,6.2h-7.16l-1.4-2.43-2.17-3.77,2.17-3.77,1.4-2.43Zm0,152.42l-1.18-2.05-2.4-4.15,2.22-3.84,1.36-2.36h7.16l3.58,6.2-3.58,6.2h-7.16Zm-24.25,0l-1.61-2.78-1.97-3.42,1.79-3.1,1.79-3.1h7.16l3.58,6.2-3.58,6.2h-7.16Zm-24.25,0l-1.05-1.83-2.53-4.37,2.32-4.03,1.25-2.17h7.16l3.58,6.2-3.58,6.2h-7.16Zm-24.25,0l-1.99-3.45-1.59-2.75,1.79-3.1,1.79-3.1h7.16l3.58,6.2-3.58,6.2h-7.16Zm-12.13-7l-3.58-6.2,3.58-6.2h7.16l1.79,3.1,1.79,3.1-1.79,3.1-1.79,3.1h-7.16Zm-12.13,7l-2.91-5.04-.67-1.16,1.19-2.07,2.38-4.13h7.16l3.58,6.2-3.58,6.2h-7.16Zm-12.13-7l-3.58-6.2,3.58-6.2h7.16l1.79,3.1,1.79,3.1-1.79,3.1-1.79,3.1h-7.16Zm-12.13,7l-2.47-4.28-1.11-1.92,1.79-3.1,1.79-3.1h7.16l3.58,6.2-3.58,6.2h-7.16Zm-12.13-7l-3.58-6.2,3.58-6.2h7.16l.87,1.5,2.71,4.7-2.38,4.13-1.19,2.07h-7.16Zm12.13-131.41h7.16l3.58,6.2-3.58,6.2h-7.16l-.59-1.02-2.99-5.18,1.27-2.2,2.31-4Zm24.25,0h7.16l3.58,6.2-3.58,6.2h-7.16l-1.15-2-2.43-4.2.85-1.47,2.73-4.73Zm24.25,0h7.16l3.58,6.2-3.58,6.2h-7.16l-1.14-1.97-2.44-4.23,1.61-2.78,1.97-3.42Zm24.25,0h7.16l3.58,6.2-3.58,6.2h-7.16l-3.58-6.2,2.63-4.55.95-1.65Zm24.25,0h7.16l3.58,6.2-3.58,6.2h-7.16l-3.58-6.2,1.99-3.44,1.59-2.75Zm24.25,0h7.16l3.58,6.2-3.58,6.2h-7.16l-3.58-6.2,2.46-4.27,1.11-1.93Zm0,124.41l-1.45-2.51-2.13-3.69,2.22-3.84,1.36-2.36h7.16l3.58,6.2-3.58,6.2h-7.16Zm-24.25,0l-1.79-3.1-1.79-3.1,1.79-3.1,1.79-3.1h7.16l3.58,6.2-3.58,6.2h-7.16Zm-24.25,0l-1.38-2.4-2.19-3.8,2.32-4.03,1.25-2.17h7.16l3.58,6.2-3.58,6.2h-7.16Zm-24.25,0l-1.79-3.1-1.79-3.1,1.79-3.1,1.79-3.1h7.16l3.58,6.2-3.58,6.2h-7.16Zm-12.13-7l-3.58-6.2,3.58-6.2h7.16l1.79,3.1,1.79,3.1-1.79,3.1-1.79,3.1h-7.16Zm-12.13,7l-2.71-4.7-.87-1.5,1.19-2.07,2.38-4.13h7.16l3.58,6.2-3.58,6.2h-7.16Zm-12.13-7l-3.58-6.2,3.58-6.2h7.16l1.79,3.1,1.79,3.1-1.79,3.1-1.79,3.1h-7.16Zm-12.13,7l-1.79-3.1-1.79-3.1,1.79-3.1,1.79-3.1h7.16l3.58,6.2-3.58,6.2h-7.16Zm-12.13-7l-3.58-6.2,3.58-6.2h7.16l1.19,2.07,2.38,4.13-2.38,4.13-1.19,2.07h-7.16Zm19.28-103.41l3.58,6.2-3.58,6.2h-7.16l-1.79-3.1-1.79-3.1,2.31-4,1.27-2.2h7.16Zm24.25,0l3.58,6.2-3.58,6.2h-7.16l-2.53-4.38-1.05-1.82,1.54-2.66,2.04-3.54h7.16Zm24.25,0l3.58,6.2-3.58,6.2h-7.16l-1.79-3.1-1.79-3.1,1.97-3.42,1.61-2.78h7.16Zm64.21,13.2l-1.79,3.1-1.79,3.1h-7.16l-3.58-6.2,3.58-6.2h7.16l1.58,2.74,2,3.46Zm0,14l-1.79,3.1-1.79,3.1h-7.16l-3.58-6.2,3.58-6.2h7.16l1.58,2.74,2,3.46Zm0,14l-1.58,2.74-2,3.46h-7.16l-3.58-6.2,3.58-6.2h7.16l1.79,3.1,1.79,3.1Zm0,14l-1.58,2.74-2,3.46h-7.16l-3.58-6.2,3.58-6.2h7.16l2.9,5.02.68,1.18Zm0,14l-1.79,3.1-1.79,3.1h-7.16l-3.58-6.2,3.58-6.2h7.16l1.79,3.1,1.79,3.1Zm0,14l-1.98,3.43-1.6,2.77h-7.16l-3.58-6.2,3.58-6.2h7.16l1.79,3.1,1.79,3.1Zm-22.86,13.2l-2.01-3.48-1.57-2.72,1.79-3.1,1.79-3.1h7.16l3.58,6.2-3.58,6.2h-7.16Zm-24.25,0l-1.53-2.65-2.05-3.55,2.19-3.8,1.38-2.4h7.16l3.58,6.2-3.58,6.2h-7.16Zm-24.25,0l-1.62-2.81-1.96-3.39,1.79-3.1,1.79-3.1h7.16l3.58,6.2-3.58,6.2h-7.16Zm-12.13-7l-3.58-6.2,3.58-6.2h7.16l1.79,3.1,1.79,3.1-1.48,2.57-2.1,3.63h-7.16Zm-12.13,7l-2.01-3.48-1.57-2.72.87-1.5,2.71-4.7h7.16l3.58,6.2-3.58,6.2h-7.16Zm-12.13-7l-3.58-6.2,3.58-6.2h7.16l1.79,3.1,1.79,3.1-1.48,2.56-2.1,3.64h-7.16Zm-12.13,7l-1.37-2.37-2.21-3.82,1.79-3.1,1.79-3.1h7.16l3.58,6.2-3.58,6.2h-7.16Zm-3.58-62.21l1.79-3.1,1.79-3.1h7.16l3.58,6.2-3.58,6.2h-7.16l-2.31-4-1.27-2.2Zm0-14l2.31-4,1.27-2.2h7.16l3.58,6.2-3.58,6.2h-7.16l-1.79-3.1-1.79-3.1Zm24.65-17.9l-1.79,3.1h-7.16l-3.58-6.2,3.58-6.2h7.16l3.58,6.2-1.79,3.1Zm10.34,11.7l3.58,6.2-3.58,6.2h-7.16l-2.53-4.38-1.05-1.82,1.54-2.66,2.04-3.54h7.16Zm13.92-11.7l-1.79,3.1h-7.16l-3.58-6.2,3.58-6.2h7.16l3.58,6.2-1.79,3.1Zm10.34,11.7l3.58,6.2-3.58,6.2h-7.16l-1.79-3.1-1.79-3.1,1.97-3.42,1.61-2.78h7.16Zm15.71-14.8l-1.32,2.29-2.26,3.91h-7.16l-3.58-6.2,3.58-6.2h7.16l2.84,4.91.74,1.29Zm24.25,0l-1.4,2.43-2.18,3.77h-7.16l-3.58-6.2,3.58-6.2h7.16l2.7,4.68.88,1.52Zm1.39,83.21l-1.79-3.1-1.79-3.1,1.79-3.1,1.79-3.1h7.16l3.58,6.2-3.58,6.2h-7.16Zm-24.25,0l-1.25-2.17-2.32-4.03,2.19-3.8,1.38-2.4h7.16l3.58,6.2-3.58,6.2h-7.16Zm-24.25,0l-1.79-3.1-1.79-3.1,1.79-3.1,1.79-3.1h7.16l3.58,6.2-3.58,6.2h-7.16Zm-12.13-7l-3.58-6.2,3.58-6.2h7.16l1.79,3.1,1.79,3.1-1.79,3.1-1.79,3.1h-7.16Zm-12.13,7l-2.38-4.13-1.19-2.07.87-1.5,2.71-4.7h7.16l3.58,6.2-3.58,6.2h-7.16Zm-12.13-7l-3.58-6.2,3.58-6.2h7.16l1.79,3.1,1.79,3.1-1.79,3.1-1.79,3.1h-7.16Zm-15.71-27.2l1.79-3.1,1.79-3.1h7.16l3.58,6.2-3.58,6.2h-7.16l-2.31-4-1.27-2.2Zm22.86-27.2l2.06,3.57,1.52,2.63-1.79,3.1-1.79,3.1h-7.16l-3.58-6.2,3.58-6.2h7.16Zm12.13,7l3.58,6.2-3.58,6.2h-7.16l-2.73-4.73-.85-1.47,1.08-1.88,2.5-4.32h7.16Zm12.13-7l2.06,3.56,1.52,2.63-1.79,3.1-1.79,3.1h-7.16l-3.58-6.2,3.58-6.2h7.16Zm12.13,7l3.58,6.2-3.58,6.2h-7.16l-1.97-3.42-1.61-2.78,1.79-3.1,1.79-3.1h7.16Zm12.13-7l2.01,3.49,1.56,2.71-1.32,2.29-2.26,3.91h-7.16l-3.58-6.2,3.58-6.2h7.16Zm24.25,0l1.97,3.41,1.61,2.79-1.4,2.43-2.18,3.77h-7.16l-3.58-6.2,3.58-6.2h7.16Zm4.97,47.4l-1.79-3.1-1.79-3.1,1.18-2.05,2.4-4.15h7.16l3.58,6.2-3.58,6.2h-7.16Zm-24.25,0l-1.25-2.17-2.32-4.03,1.29-2.23,2.29-3.97h7.16l3.58,6.2-3.58,6.2h-7.16Zm-24.25,0l-1.79-3.1-1.79-3.1,3.58-6.2h7.16l3.58,6.2-3.58,6.2h-7.16Zm-12.13-7l-3.58-6.2,3.58-6.2h7.16l.98,1.7,2.6,4.5-2.06,3.56-1.52,2.63h-7.16Zm-12.13,7l-2.38-4.13-1.19-2.07,3.58-6.2h7.16l3.58,6.2-3.58,6.2h-7.16Zm-12.13-7l-3.58-6.2,3.58-6.2h7.16l.97,1.68,2.61,4.52-2.06,3.57-1.52,2.63h-7.16Zm7.16-26.4l1.79,3.1,1.79,3.1-2.06,3.57-1.52,2.63h-7.16l-3.58-6.2,3.58-6.2h7.16Zm12.13,7l3.58,6.2-3.58,6.2h-7.16l-2.73-4.73-.85-1.47,1.08-1.88,2.5-4.32h7.16Zm12.13-7l1.79,3.1,1.79,3.1-2.06,3.57-1.52,2.63h-7.16l-3.58-6.2,3.58-6.2h7.16Zm12.13,7l3.58,6.2-3.58,6.2h-7.16l-1.97-3.42-1.61-2.78,1.79-3.1,1.79-3.1h7.16Zm12.13-7l2.24,3.89,1.34,2.31-.95,1.65-2.63,4.55h-7.16l-3.58-6.2,3.58-6.2h7.16Zm24.25,0l2.17,3.75,1.41,2.45-1.11,1.93-2.46,4.27h-7.16l-3.58-6.2,3.58-6.2h7.16Zm12.13,7l3.58,6.2-3.58,6.2h-7.16l-1.59-2.75-1.99-3.44,1.79-3.1,1.79-3.1h7.16Zm-24.25,0l3.58,6.2-3.58,6.2h-7.16l-.95-1.65-2.63-4.55,2.26-3.91,1.32-2.29h7.16Zm-19.28,19.4l-3.58-6.2,3.58-6.2h7.16l3.58,6.2-.95,1.65-2.63,4.55h-7.16Zm24.25,0l-3.58-6.2,3.58-6.2h7.16l3.58,6.2-1.11,1.93-2.46,4.27h-7.16Zm19.28-33.4l3.58,6.2-3.58,6.2h-7.16l-1.59-2.75-1.99-3.44,1.79-3.1,1.79-3.1h7.16Zm-24.25,0l3.58,6.2-3.58,6.2h-7.16l-.95-1.65-2.63-4.55,2.26-3.91,1.32-2.29h7.16Zm-19.28,47.4l-3.58-6.2,3.58-6.2h7.16l2.32,4.03,1.25,2.17-1.38,2.4-2.19,3.8h-7.16Zm24.25,0l-3.58-6.2,3.58-6.2h7.16l2.22,3.84,1.36,2.36-1.45,2.51-2.13,3.69h-7.16Zm19.28-61.4l3.58,6.2-3.58,6.2h-7.16l-1.79-3.1-1.79-3.1,1.59-2.75,1.99-3.44h7.16Zm-8.55-.8l-1.4,2.43-2.18,3.77h-7.16l-3.58-6.2,3.58-6.2h7.16l1.97,3.41,1.61,2.79Zm-15.71.8l3.58,6.2-3.58,6.2h-7.16l-1.34-2.31-2.24-3.89,2.01-3.49,1.56-2.71h7.16Zm-8.55-.8l-1.32,2.29-2.26,3.91h-7.16l-3.58-6.2,3.58-6.2h7.16l2.01,3.49,1.56,2.71Zm-24.25,0l-1.79,3.1-1.79,3.1h-7.16l-3.58-6.2,3.58-6.2h7.16l2.06,3.56,1.52,2.63Zm-24.25,0l-1.79,3.1-1.79,3.1h-7.16l-3.58-6.2,3.58-6.2h7.16l2.06,3.57,1.52,2.63Zm-26.44,49.01l3.58-6.2h7.16l3.58,6.2-3.58,6.2h-7.16l-1.79-3.1-1.79-3.1Zm0,14l1.79-3.1,1.79-3.1h7.16l3.58,6.2-3.58,6.2h-7.16l-1.79-3.1-1.79-3.1Zm64.21,13.2l-3.58-6.2,3.58-6.2h7.16l2.32,4.03,1.25,2.17-1.59,2.76-1.99,3.44h-7.16Zm24.25,0l-3.58-6.2,3.58-6.2h7.16l2.22,3.84,1.36,2.36-1.63,2.82-1.95,3.38h-7.16Zm31.41-84.01h-7.16l-3.58-6.2,3.58-6.2h7.16l2.36,4.08,1.22,2.12-1.79,3.1-1.79,3.1Zm-12.13-5.4l3.58,6.2-3.58,6.2h-7.16l-1.79-3.1-1.79-3.1,1.59-2.75,1.99-3.44h7.16Zm-24.25,0l3.58,6.2-3.58,6.2h-7.16l-1.34-2.31-2.24-3.89,2.01-3.49,1.56-2.71h7.16Zm-84.88-7l3.58,6.2-2.5,4.32-1.08,1.88h-7.16l-3.58-6.2,3.58-6.2h7.16Zm0,14l1.54,2.66,2.04,3.54-2.5,4.32-1.08,1.88h-7.16l-3.58-6.2,3.58-6.2h7.16Zm0,14l1.54,2.66,2.04,3.54-2.5,4.32-1.08,1.88h-7.16l-3.58-6.2,3.58-6.2h7.16Zm0,14l1.05,1.82,2.53,4.38-2.73,4.73-.85,1.47h-7.16l-3.58-6.2,3.58-6.2h7.16Zm-7.16,14h7.16l.4.69,3.18,5.51-2.73,4.73-.85,1.47h-7.16l-3.58-6.2,3.58-6.2Zm7.16,14l1.19,2.07,2.38,4.13-2.71,4.7-.87,1.5h-7.16l-3.58-6.2,3.58-6.2h7.16Zm0,14l1.19,2.07,2.38,4.13-2.09,3.62-1.49,2.58h-7.16l-3.58-6.2,3.58-6.2h7.16Zm65.6,26.4l-3.58-6.2,3.58-6.2h7.16l2.32,4.03,1.25,2.17-1.25,2.17-2.32,4.03h-7.16Zm24.25,0l-3.58-6.2,3.58-6.2h7.16l2.22,3.84,1.36,2.36-1.36,2.36-2.22,3.84h-7.16Zm24.25,0l-3.58-6.2,3.58-6.2h7.16l1.79,3.1,1.79,3.1-1.79,3.1-1.79,3.1h-7.16Zm12.13-7l-1.59-2.75-1.99-3.45,2.13-3.69,1.45-2.51h7.16l3.58,6.2-3.58,6.2h-7.16Zm0-14l-1.36-2.36-2.22-3.84,2.13-3.69,1.45-2.51h7.16l3.58,6.2-3.58,6.2h-7.16Zm0-14l-1.36-2.36-2.22-3.84,1.34-2.32,2.24-3.88h7.16l3.58,6.2-3.58,6.2h-7.16Zm0-14l-1.11-1.93-2.46-4.27,2.17-3.77,1.4-2.43h7.16l3.58,6.2-3.58,6.2h-7.16Zm0-14l-1.11-1.93-2.46-4.27,2.17-3.77,1.4-2.43h7.16l3.58,6.2-3.58,6.2h-7.16Zm0-14l-1.41-2.45-2.17-3.75,1.97-3.41,1.61-2.79h7.16l3.58,6.2-3.58,6.2h-7.16Zm0-14l-1.41-2.45-2.17-3.75,1.97-3.41,1.61-2.79h7.16l3.58,6.2-3.58,6.2h-7.16Zm-60.63,105.01l-3.58-6.2,3.58-6.2h7.16l2.19,3.8,1.38,2.4-1.25,2.17-2.32,4.03h-7.16Zm24.25,0l-3.58-6.2,3.58-6.2h7.16l2.13,3.69,1.45,2.51-1.36,2.36-2.22,3.84h-7.16Zm24.25,0l-3.58-6.2,3.58-6.2h7.16l1.79,3.1,1.79,3.1-1.79,3.1-1.79,3.1h-7.16Zm7.16-138.42l2,3.46,1.58,2.74-1.79,3.1-1.79,3.1h-7.16l-3.58-6.2,3.58-6.2h7.16Zm-24.25,0l2.46,4.27,1.11,1.93-1.41,2.45-2.17,3.75h-7.16l-3.58-6.2,3.58-6.2h7.16Zm-24.25,0l2.63,4.55.95,1.65-1.34,2.31-2.24,3.89h-7.16l-3.58-6.2,3.58-6.2h7.16Zm-7.16,152.42l-3.58-6.2,3.58-6.2h7.16l2.19,3.8,1.38,2.4-.81,1.41-2.77,4.79h-7.16Zm24.25,0l-3.58-6.2,3.58-6.2h7.16l2.13,3.69,1.45,2.51-1.03,1.78-2.55,4.42h-7.16Zm24.25,0l-3.58-6.2,3.58-6.2h7.16l1.79,3.1,1.79,3.1-1.56,2.7-2.02,3.5h-7.16Zm7.16-166.42l1.79,3.1,1.79,3.1-1.58,2.74-2,3.46h-7.16l-3.58-6.2,3.58-6.2h7.16Zm-24.25,0l2.17,3.75,1.41,2.45-1.11,1.93-2.46,4.27h-7.16l-3.58-6.2,3.58-6.2h7.16Zm-24.25,0l2.24,3.89,1.34,2.31-.95,1.65-2.63,4.55h-7.16l-3.58-6.2,3.58-6.2h7.16Zm-92.04,21h7.16l3.58,6.2-3.58,6.2h-7.16l-.48-.83-3.1-5.37,2.04-3.54,1.54-2.66Zm-3.58,20.2l2.73-4.73.85-1.47h7.16l3.58,6.2-3.58,6.2h-7.16l-1.05-1.82-2.53-4.38Zm0,14l2.73-4.73.85-1.47h7.16l3.58,6.2-3.58,6.2h-7.16l-1.05-1.82-2.53-4.38Zm0,42.01l3.58-6.2h7.16l3.58,6.2-3.58,6.2h-7.16l-1.19-2.07-2.38-4.13Zm0,14l2.71-4.7.87-1.5h7.16l3.58,6.2-3.58,6.2h-7.16l-1.19-2.07-2.38-4.13Zm0,14l2.71-4.7.87-1.5h7.16l3.58,6.2-3.58,6.2h-7.16l-.98-1.69-2.6-4.51Zm3.58,7.8h7.16l3.58,6.2-3.58,6.2h-7.16l-.87-1.5-2.71-4.7,2.38-4.13,1.19-2.07Zm0,14h7.16l3.58,6.2-3.58,6.2h-7.16l-1.49-2.58-2.09-3.62,2.38-4.13,1.19-2.07Zm0,14h7.16l3.58,6.2-3.58,6.2h-7.16l-1.49-2.58-2.09-3.62,2.38-4.13,1.19-2.07Zm84.88,19.4l-3.58-6.2,3.58-6.2h7.16l2.19,3.8,1.38,2.4-1.01,1.76-2.56,4.44h-7.16Zm24.25,0l-3.58-6.2,3.58-6.2h7.16l2.13,3.69,1.45,2.51-1.22,2.11-2.36,4.09h-7.16Zm24.25,0l-3.58-6.2,3.58-6.2h7.16l1.79,3.1,1.79,3.1-1.79,3.1-1.79,3.1h-7.16ZM6.49,178.28H-.67l-3.58-6.2,3.58-6.2h7.16l2.43,4.21,1.15,1.99-1.79,3.1-1.79,3.1Zm-24.25-54.4l1.79,3.1,1.79,3.1-1.58,2.74-2,3.46h-7.16l-3.58-6.2,3.58-6.2h7.16Zm-24.25,0l2.17,3.75,1.41,2.45-1.11,1.93-2.46,4.27h-7.16l-3.58-6.2,3.58-6.2h7.16Zm-24.25,0l2.24,3.89,1.34,2.31-.95,1.65-2.63,4.55h-7.16l-3.58-6.2,3.58-6.2h7.16Zm-97.01,14l1.05,1.82,2.53,4.38-2.73,4.73-.85,1.47h-7.16l-3.58-6.2,3.58-6.2h7.16Zm0,14l.85,1.47,2.73,4.73-2.53,4.38-1.05,1.82h-7.16l-3.58-6.2,3.58-6.2h7.16Zm0,14l3.58,6.2-2.5,4.32-1.08,1.88h-7.16l-3.58-6.2,3.58-6.2h7.16Zm0,14l1.54,2.66,2.04,3.54-2.5,4.32-1.08,1.88h-7.16l-3.58-6.2,3.58-6.2h7.16Zm0,14l1.54,2.66,2.04,3.54-2.5,4.32-1.08,1.88h-7.16l-3.58-6.2,3.58-6.2h7.16Zm0,14l1.05,1.82,2.53,4.38-2.73,4.73-.85,1.47h-7.16l-3.58-6.2,3.58-6.2h7.16Zm0,14l.4.69,3.18,5.51-2.73,4.73-.85,1.47h-7.16l-3.58-6.2,3.58-6.2h7.16Zm0,14l1.19,2.07,2.38,4.13-2.71,4.7-.87,1.5h-7.16l-3.58-6.2,3.58-6.2h7.16Zm0,14l1.19,2.07,2.38,4.13-2.09,3.62-1.49,2.58h-7.16l-3.58-6.2,3.58-6.2h7.16Zm0,14l1.19,2.07,2.38,4.13-2.38,4.13-1.19,2.07h-7.16l-3.58-6.2,3.58-6.2h7.16Zm0,14l.87,1.5,2.71,4.7-2.38,4.13-1.19,2.07h-7.16l-3.58-6.2,3.58-6.2h7.16Zm0,14l.87,1.5,2.71,4.7-2.6,4.51-.98,1.69h-7.16l-3.58-6.2,3.58-6.2h7.16Zm0,14l.87,1.5,2.71,4.7-2.23,3.87-1.35,2.33h-7.16l-3.58-6.2,3.58-6.2h7.16Zm89.85,26.4l-3.58-6.2,3.58-6.2h7.16l2.53,4.37,1.05,1.83-1.53,2.65-2.05,3.55h-7.16Zm24.25,0l-3.58-6.2,3.58-6.2h7.16l2.4,4.15,1.18,2.05-1.59,2.75-1.99,3.45h-7.16Zm24.25,0l-3.58-6.2,3.58-6.2h7.16l1.98,3.43,1.6,2.77-2.02,3.5-1.56,2.7h-7.16Zm24.25,0l-3.58-6.2,3.58-6.2h7.16l2.01,3.49,1.57,2.71-2.07,3.59-1.51,2.61H-.67Zm12.13-7l-2.01-3.49-1.57-2.71,1.79-3.1,1.79-3.1h7.16l3.58,6.2-3.58,6.2h-7.16Zm0-14l-1.57-2.71-2.01-3.49,1.79-3.1,1.79-3.1h7.16l3.58,6.2-3.58,6.2h-7.16Zm0-14l-1.57-2.71-2.01-3.49,1.79-3.1,1.79-3.1h7.16l3.58,6.2-3.58,6.2h-7.16Zm0-14l-1.79-3.1-1.79-3.1,1.79-3.1,1.79-3.1h7.16l3.58,6.2-3.58,6.2h-7.16Zm0-14l-2.07-3.59-1.51-2.61,1.79-3.1,1.79-3.1h7.16l3.58,6.2-3.58,6.2h-7.16Zm0-14l-1.79-3.1-1.79-3.1,1.79-3.1,1.79-3.1h7.16l3.58,6.2-3.58,6.2h-7.16Zm0-14l-1.79-3.1-1.79-3.1,1.1-1.91,2.48-4.29h7.16l3.58,6.2-3.58,6.2h-7.16Zm0-14l-1.54-2.67-2.04-3.53,1.79-3.1,1.79-3.1h7.16l3.58,6.2-3.58,6.2h-7.16Zm0-14l-1.54-2.67-2.04-3.53,1.79-3.1,1.79-3.1h7.16l3.58,6.2-3.58,6.2h-7.16Zm0-14l-1.79-3.1-1.79-3.1,1.54-2.67,2.04-3.53h7.16l3.58,6.2-3.58,6.2h-7.16Zm0-14l-1.79-3.1-1.79-3.1,1.54-2.67,2.04-3.53h7.16l3.58,6.2-3.58,6.2h-7.16Zm0-14l-3.58-6.2,2.04-3.53,1.54-2.67h7.16l3.58,6.2-3.58,6.2h-7.16Zm0-14l-1.79-3.1-1.79-3.1,1.79-3.1,1.79-3.1h7.16l3.58,6.2-3.58,6.2h-7.16Zm0-14l-1.54-2.67-2.04-3.53,1.79-3.1,1.79-3.1h7.16l3.58,6.2-3.58,6.2h-7.16Zm0-14l-1.54-2.67-2.04-3.53,1.79-3.1,1.79-3.1h7.16l3.58,6.2-3.58,6.2h-7.16Zm-4.97-19.4l1.54,2.67,2.04,3.53-1.54,2.67-2.04,3.53H-.67l-3.58-6.2,3.58-6.2h7.16Zm-24.25,0l1.58,2.74,2,3.46-1.58,2.74-2,3.46h-7.16l-3.58-6.2,3.58-6.2h7.16Zm-24.25,0l1.97,3.41,1.61,2.79-1.11,1.93-2.46,4.27h-7.16l-3.58-6.2,3.58-6.2h7.16Zm-24.25,0l2.01,3.49,1.56,2.71-.95,1.65-2.63,4.55h-7.16l-3.58-6.2,3.58-6.2h7.16Zm-7.16,236.43l-3.58-6.2,3.58-6.2h7.16l2.32,4.03,1.25,2.17-1.05,1.83-2.53,4.37h-7.16Zm12.13,7l-.81-1.41-2.77-4.79,1.99-3.44,1.59-2.76h7.16l3.58,6.2-3.58,6.2h-7.16Zm12.13-7l-3.58-6.2,3.58-6.2h7.16l2.22,3.84,1.36,2.36-1.18,2.05-2.4,4.15h-7.16Zm24.25,0l-3.58-6.2,3.58-6.2h7.16l1.79,3.1,1.79,3.1-1.6,2.77-1.98,3.43h-7.16Zm24.25,0l-3.58-6.2,3.58-6.2h7.16l1.79,3.1,1.79,3.1-1.57,2.71-2.01,3.49H-.67ZM6.49,95.87l1.79,3.1,1.79,3.1-1.79,3.1-1.79,3.1H-.67l-3.58-6.2,3.58-6.2h7.16Zm-24.25,0l1.79,3.1,1.79,3.1-1.79,3.1-1.79,3.1h-7.16l-3.58-6.2,3.58-6.2h7.16Zm-24.25,0l2.22,3.84,1.36,2.36-1.4,2.43-2.18,3.77h-7.16l-3.58-6.2,3.58-6.2h7.16Zm-24.25,0l2.32,4.03,1.25,2.17-1.32,2.29-2.26,3.91h-7.16l-3.58-6.2,3.58-6.2h7.16Zm-7.16,264.43l-3.58-6.2,3.58-6.2h7.16l2.05,3.55,1.53,2.65-1.05,1.83-2.53,4.37h-7.16Zm24.25,0l-3.58-6.2,3.58-6.2h7.16l1.99,3.45,1.59,2.75-1.18,2.05-2.4,4.15h-7.16Zm24.25,0l-3.58-6.2,3.58-6.2h7.16l1.56,2.7,2.02,3.5-1.6,2.77-1.98,3.43h-7.16Zm24.25,0l-3.58-6.2,3.58-6.2h7.16l1.51,2.61,2.07,3.59-1.57,2.71-2.01,3.49H-.67ZM23.58,108.27l-3.58-6.2,3.58-6.2h7.16l3.58,6.2-3.58,6.2h-7.16Zm0-26.4h7.16l3.58,6.2-3.58,6.2h-7.16l-3.58-6.2,3.58-6.2Zm-24.25,0h7.16l3.58,6.2-2.04,3.53-1.54,2.67H-.67l-3.58-6.2,3.58-6.2Zm-24.25,0h7.16l3.58,6.2-2,3.46-1.58,2.74h-7.16l-3.58-6.2,3.58-6.2Zm-24.25,0h7.16l3.58,6.2-1.61,2.79-1.97,3.41h-7.16l-3.58-6.2,3.58-6.2Zm-24.25,0h7.16l3.58,6.2-1.56,2.71-2.01,3.49h-7.16l-3.58-6.2,3.58-6.2Zm-24.25,0h7.16l3.58,6.2-1.52,2.63-2.06,3.56h-7.16l-.68-1.18-2.9-5.02,3.58-6.2Zm-24.25,0h7.16l3.58,6.2-1.52,2.63-2.06,3.57h-7.16l-.42-.72-3.16-5.47,3.58-6.2Zm-24.25,0h7.16l3.58,6.2-2.04,3.54-1.54,2.66h-7.16l-.82-1.41-2.76-4.79,3.58-6.2Zm-24.25,0h7.16l3.58,6.2-2.04,3.54-1.54,2.66h-7.16l-.68-1.18-2.9-5.02,3.58-6.2Zm-12.13,7h7.16l3.58,6.2-3.58,6.2h-7.16l-3.58-6.2,3.58-6.2Zm0,14h7.16l3.58,6.2-3.58,6.2h-7.16l-3.58-6.2,3.58-6.2Zm0,14h7.16l3.58,6.2-3.58,6.2h-7.16l-3.58-6.2,3.58-6.2Zm0,14h7.16l3.58,6.2-3.58,6.2h-7.16l-3.58-6.2,3.58-6.2Zm0,14h7.16l3.58,6.2-3.58,6.2h-7.16l-3.58-6.2,3.58-6.2Zm0,14h7.16l3.58,6.2-3.58,6.2h-7.16l-3.58-6.2,3.58-6.2Zm0,14h7.16l3.58,6.2-3.58,6.2h-7.16l-3.58-6.2,3.58-6.2Zm0,14h7.16l3.58,6.2-3.58,6.2h-7.16l-3.58-6.2,3.58-6.2Zm0,14h7.16l3.58,6.2-3.58,6.2h-7.16l-3.58-6.2,3.58-6.2Zm0,14h7.16l3.58,6.2-3.58,6.2h-7.16l-3.58-6.2,3.58-6.2Zm0,14h7.16l3.58,6.2-3.58,6.2h-7.16l-3.58-6.2,3.58-6.2Zm0,14h7.16l3.58,6.2-3.58,6.2h-7.16l-3.58-6.2,3.58-6.2Zm0,14h7.16l3.58,6.2-3.58,6.2h-7.16l-3.58-6.2,3.58-6.2Zm0,14h7.16l3.58,6.2-3.58,6.2h-7.16l-3.58-6.2,3.58-6.2Zm0,14h7.16l3.58,6.2-3.58,6.2h-7.16l-3.58-6.2,3.58-6.2Zm0,14h7.16l3.58,6.2-3.58,6.2h-7.16l-3.58-6.2,3.58-6.2Zm0,14h7.16l3.58,6.2-3.58,6.2h-7.16l-3.58-6.2,3.58-6.2Zm0,14h7.16l3.58,6.2-3.58,6.2h-7.16l-3.58-6.2,3.58-6.2Zm0,14h7.16l3.58,6.2-3.58,6.2h-7.16l-3.58-6.2,3.58-6.2Zm-3.58,20.2l3.58-6.2h7.16l3.58,6.2-3.58,6.2h-7.16l-3.58-6.2Zm22.86,13.2h-7.16l-3.58-6.2,3.58-6.2h7.16l1.35,2.33,2.23,3.87-3.58,6.2Zm24.25,0h-7.16l-3.58-6.2,3.58-6.2h7.16l1.35,2.33,2.23,3.87-3.58,6.2Zm24.25,0h-7.16l-3.58-6.2,3.58-6.2h7.16l1.79,3.1,1.79,3.1-3.58,6.2Zm24.25,0h-7.16l-3.58-6.2,3.58-6.2h7.16l1.79,3.1,1.79,3.1-3.58,6.2Zm24.25,0h-7.16l-3.58-6.2,3.58-6.2h7.16l2.56,4.44,1.01,1.76-3.58,6.2Zm24.25,0h-7.16l-3.58-6.2,3.58-6.2h7.16l2.36,4.09,1.22,2.11-3.58,6.2Zm24.25,0h-7.16l-3.58-6.2,3.58-6.2h7.16l1.79,3.1,1.79,3.1-3.58,6.2Zm24.25,0H-.67l-3.58-6.2,3.58-6.2h7.16l1.79,3.1,1.79,3.1-3.58,6.2Zm24.25,0h-7.16l-3.58-6.2,3.58-6.2h7.16l3.58,6.2-3.58,6.2Zm0-14h-7.16l-3.58-6.2,3.58-6.2h7.16l3.58,6.2-3.58,6.2Zm0-14h-7.16l-3.58-6.2,3.58-6.2h7.16l3.58,6.2-3.58,6.2Zm0-14h-7.16l-3.58-6.2,3.58-6.2h7.16l3.58,6.2-3.58,6.2Zm0-14h-7.16l-3.58-6.2,3.58-6.2h7.16l3.58,6.2-3.58,6.2Zm0-14h-7.16l-3.58-6.2,3.58-6.2h7.16l3.58,6.2-3.58,6.2Zm0-14h-7.16l-3.58-6.2,3.58-6.2h7.16l3.58,6.2-3.58,6.2Zm0-14h-7.16l-3.58-6.2,3.58-6.2h7.16l3.58,6.2-3.58,6.2Zm0-14h-7.16l-3.58-6.2,3.58-6.2h7.16l3.58,6.2-3.58,6.2Zm0-14h-7.16l-3.58-6.2,3.58-6.2h7.16l3.58,6.2-3.58,6.2Zm0-14h-7.16l-3.58-6.2,3.58-6.2h7.16l3.58,6.2-3.58,6.2Zm0-14h-7.16l-3.58-6.2,3.58-6.2h7.16l3.58,6.2-3.58,6.2Zm0-14h-7.16l-3.58-6.2,3.58-6.2h7.16l3.58,6.2-3.58,6.2Zm0-14h-7.16l-3.58-6.2,3.58-6.2h7.16l3.58,6.2-3.58,6.2Zm0-14h-7.16l-3.58-6.2,3.58-6.2h7.16l3.58,6.2-3.58,6.2Zm0-14h-7.16l-3.58-6.2,3.58-6.2h7.16l3.58,6.2-3.58,6.2Zm0-14h-7.16l-3.58-6.2,3.58-6.2h7.16l3.58,6.2-3.58,6.2Zm0-14h-7.16l-3.58-6.2,3.58-6.2h7.16l3.58,6.2-3.58,6.2Zm0-14h-7.16l-3.58-6.2,3.58-6.2h7.16l3.58,6.2-3.58,6.2Z"
         id="path2" />
    </g>
  </g>
</svg>
